<?xml version="1.0" encoding="utf-8"?>
<svg version="1.1" xmlns="http://www.w3.org/2000/svg" viewBox="0 0 657 242">
<rect width="657" height="242" fill="#eee"/>
<path d="M486.79,162.56c0.18-0.15,0.4-0.27,0.54-0.45c0.07-0.09,0.03-0.28,0.03-0.42 c-0.16,0.05-0.32,0.11-0.48,0.16l1.51-1.17c0.63,0.04,1.26,0.07,1.9,0.11c0.03-0.14,0.08-0.34,0.17-0.7 c0.15,0.36,0.22,0.54,0.31,0.75c0.13-0.11,0.24-0.2,0.37-0.32c0.12,0.1,0.24,0.19,0.35,0.3c0.13,0.12,0.26,0.24,0.49,0.45 c0.17-0.83,0.31-1.51,0.46-2.24c-0.64,0.08-0.97,0.75-1.54,0.38c-0.49-0.32-0.85-0.12-1.16,0.42c-0.32-0.55-0.57-0.96-0.84-1.43 c-0.83,0.63-1.55,1.32-2.67,0.92c0.06,0.73,0.07,1.35,0.18,1.96c0.04,0.2,0.32,0.35,0.49,0.53c-0.03,0.24-0.75,0.39-0.09,0.72 c-0.26,0.18-0.52,0.36-0.89,0.61c0.62,0.37,1.26,0.35,1.58,0.89c0.02,0.03,0.22-0.05,0.33-0.08c0.72,0.49,1.54,0.42,2.4,0.51 c-0.27-0.47-0.46-0.81-0.66-1.16c-0.64,0.25-1.2,0.47-1.77,0.68c-0.09-0.45-0.18-0.9-0.27-1.35 C487.25,162.6,487.02,162.58,486.79,162.56z" fill="red"/>
</svg>