<?xml version="1.0" encoding="utf-8"?>
<svg xmlns="http://www.w3.org/2000/svg" viewBox="460 40 180 100">
<rect x="460" y="40" width="180" height="100" fill="#eee"/>
<path d="M194.39,228.98c-0.13-0.84,0.39-1.42,0.82-2.03c0.27-0.39,0.63-0.75,0.77-1.19c0.16-0.51,0.41-0.84,0.88-1.05 c0.11-0.05,0.24-0.1,0.29-0.19c0.6-0.9,1.24-1.79,1.78-2.73c0.31-0.55,0.63-1.05,1.08-1.51c0.43-0.43,0.75-0.99,1.07-1.53 c0.62-1.05,1.2-2.13,1.81-3.2c0.41-0.72,0.83-1.44,1.23-2.17c0.13-0.24,0.26-0.53,0.26-0.79c0-1.17,0.44-2.02,1.48-2.61 c0.32-0.19,0.44-0.71,0.69-1.04c1.16-1.55,2.43-3.02,3.47-4.64c2.19-3.43,4.33-6.91,6.15-10.57c0.5-1.02,1.27-1.9,1.85-2.88 c0.7-1.18,1.33-2.4,1.97-3.61c0.53-1.01,1.02-2.03,1.36-3.18c-0.16,0.18-0.33,0.35-0.49,0.53c-1.64,1.84-3.31,3.65-4.92,5.51 c-1.27,1.47-2.47,2.99-3.69,4.5c-0.09,0.11-0.12,0.28-0.18,0.42c-0.34,0.82-0.89,1.1-1.66,0.77c-0.21-0.09-0.44-0.4-0.45-0.63 c-0.02-0.38,0.1-0.78,0.22-1.14c0.31-0.94,0.65-1.86,1-2.84c-0.59-0.24-1.11-0.46-1.64-0.67c0.02-0.06,0.04-0.13,0.07-0.19 c0.14,0.02,0.29,0.02,0.42,0.07c1.36,0.42,2.17-0.29,1.96-1.73c-0.07-0.48,0.14-0.78,0.45-1.12c0.69-0.76,1.31-1.57,1.92-2.39 c0.13-0.17,0.12-0.43,0.21-0.8c-1.03,0.33-1.63,1.01-2.25,1.62c-1.83,1.8-3.61,3.64-5.43,5.44c-1.58,1.57-3.22,3.08-4.79,4.67 c-1.2,1.21-2.31,2.52-3.5,3.74c-0.66,0.68-1.39,1.28-2.08,1.92c-0.31,0.29-0.59,0.63-0.9,0.92c-1.4,1.28-2.82,2.54-4.2,3.84 c-1.42,1.33-2.81,2.69-4.2,4.05c-1.78,1.74-3.56,3.48-5.3,5.26c-1.4,1.44-2.72,2.96-4.1,4.43c-1.2,1.27-2.43,2.51-3.64,3.76 c-0.27,0.28-0.5,0.61-0.79,0.88c-0.63,0.6-1.76,0.34-1.91-0.45c-0.04-0.2,0.01-0.5,0.14-0.64c1.23-1.29,2.49-2.55,3.73-3.83 c2.06-2.13,4.11-4.24,6.02-6.52c1.76-2.1,3.21-4.39,4.89-6.54c1.28-1.64,2.54-3.3,3.87-4.9c1.59-1.9,3.14-3.85,4.9-5.59 c1.64-1.62,3.12-3.36,4.53-5.17c0.63-0.81,1.16-1.69,1.76-2.54c0.79-1.13,1.61-2.25,2.4-3.38c0.12-0.18,0.19-0.39,0.38-0.77 c-0.97,0.3-1.52,0.89-2.09,1.39c-1.78,1.57-3.52,3.2-5.29,4.8c-1.12,1.01-2.3,1.96-3.4,2.99c-0.83,0.78-1.57,1.66-2.35,2.49 c-0.41,0.44-1.13,0.5-1.62,0.13c-0.38-0.29-0.34-0.91,0.02-1.45c1.38-2.05,2.71-4.14,4.13-6.17c0.81-1.17,1.77-2.23,2.63-3.36 c0.76-1.01,1.48-2.05,2.21-3.07c0.44-0.61,0.89-1.21,1.3-1.83c0.13-0.2,0.17-0.46,0.24-0.7c-0.07-0.06-0.15-0.11-0.22-0.17 c-1.15,0.93-2.32,1.84-3.45,2.8c-1.42,1.2-2.8,2.45-4.21,3.66c-1.7,1.47-3.42,2.91-5.1,4.39c-2.74,2.42-5.41,4.91-8.18,7.28 c-2.22,1.91-4.54,3.71-6.83,5.54c-2.57,2.05-5.15,4.08-7.71,6.14c-1.66,1.34-3.28,2.71-4.9,4.08c-0.33,0.28-0.58,0.65-0.86,0.99 c-0.73,0.88-0.72,0.88-1.87,0.38c-0.25-0.63,0.02-1.13,0.44-1.6c1.02-1.16,2.05-2.32,3.05-3.5c0.21-0.25,0.46-0.63,0.41-0.9 c-0.13-0.7,0.43-1.08,0.76-1.2c1.49-0.51,2.28-1.81,3.32-2.79c1.89-1.79,3.58-3.79,5.33-5.72c1.35-1.49,2.67-3.01,3.99-4.52 c0.31-0.36,0.62-0.73,0.88-1.12c1.46-2.22,3.34-4.08,5.05-6.1c1.31-1.54,2.72-2.99,4.09-4.47c1-1.07,2.03-2.12,3.03-3.19 c0.13-0.13,0.17-0.35,0.32-0.68c-1.07,0.28-1.76,0.92-2.52,1.44c-1.32,0.92-2.52,2-3.85,2.91c-1.17,0.81-2.27,1.68-3.57,2.32 c-0.6,0.29-1.05,0.95-1.46,1.52c-0.44,0.61-0.84,0.79-1.47,0.29c-0.14-0.11-0.35-0.12-0.71-0.24c0.21-0.48,0.3-0.98,0.59-1.28 c2.01-2.11,3.48-4.6,5.11-6.99c1.05-1.54,1.88-3.3,3.37-4.55c0.55-0.46,0.97-1.11,1.24-1.93c-0.99-0.36-1.86-0.67-2.73-1 c-0.15-0.05-0.29-0.13-0.43-0.21c-1.77-0.96-3.56-1.88-5.3-2.89c-1.37-0.79-2.69-1.67-4.01-2.54c-0.99-0.66-1.97-1.35-2.91-2.08 c-0.89-0.69-1.68-1.53-2.6-2.17c-1.25-0.88-2.22-2.02-3.22-3.13c-0.1-0.12-0.24-0.22-0.38-0.29c-1.51-0.76-2.57-1.97-3.44-3.37 c-0.02-0.03-0.03-0.08-0.06-0.1c-1.33-1.11-2.06-2.71-3.17-3.99c-0.14-0.16-0.37-0.26-0.63-0.43c-0.18,0.28-0.34,0.49-0.46,0.72 c-0.43,0.9-0.73,1.9-1.81,2.29c-0.13,0.05-0.31,0.2-0.33,0.33c-0.11,0.84-0.89,1.08-1.37,1.57c-0.85,0.87-1.71,1.75-2.59,2.6 c-1.05,1.01-2.1,2.01-3.19,2.97c-0.53,0.47-1.16,0.81-1.71,1.27c-0.67,0.56-1.28,1.18-1.93,1.76c-1.84,1.67-3.71,3.32-5.51,5.04 c-0.3,0.28-0.37,0.84-0.44,1.29c-0.03,0.17,0.27,0.39,0.52,0.73c-0.35,0.45-0.75,1.03-1.22,1.55c-1.27,1.39-2.57,2.76-3.87,4.12 c-0.38,0.4-0.85,0.72-1.22,1.13c-1.7,1.89-3.37,3.79-5.06,5.69c-0.4,0.44-0.79,0.89-1.25,1.27c-2,1.67-3.45,3.82-5.14,5.75 c-1.34,1.54-2.81,2.97-4.18,4.49c-1.35,1.5-2.64,3.06-3.95,4.59c-0.83,0.97-1.66,1.93-2.47,2.91c-0.96,1.15-1.91,2.32-2.87,3.47 c-2.21,2.63-4.42,5.25-6.64,7.87c-0.95,1.11-1.93,2.19-2.89,3.3c-0.2,0.24-0.35,0.52-0.55,0.76c-1.08,1.27-2.17,2.52-3.24,3.8 c-1.16,1.38-2.31,2.78-3.45,4.18c-0.4,0.49-0.79,0.99-1.1,1.53c-0.62,1.07-0.67,1.11-1.94,0.52c0.08-0.23,0.12-0.51,0.27-0.71 c1.09-1.56,2.21-3.09,3.29-4.66c0.99-1.43,1.83-2.94,2.62-4.5c0.55-1.08,1.21-2.1,1.87-3.12c1.03-1.59,2.08-3.16,3.29-4.64 c0.94-1.15,1.63-2.49,2.44-3.75c0.39-0.6,0.82-1.16,1.19-1.77c1.36-2.21,2.62-4.49,4.1-6.62c0.69-0.99,1.34-2.03,2.08-2.99 c0.94-1.21,1.74-2.51,2.59-3.79c1.43-2.16,2.34-4.58,3.58-6.88c-0.61,0.3-1.11,0.76-1.53,1.26c-1.64,1.93-3.26,3.88-4.88,5.83 c-1.06,1.28-2.08,2.6-3.13,3.89c-2.03,2.48-4.08,4.95-6.1,7.43c-1.47,1.8-2.91,3.61-4.37,5.41c-0.66,0.82-1.34,1.63-2,2.43 c-1.32-0.51-1.29-0.61-0.69-1.78c1.16-2.26,2.97-4.13,3.91-6.52c0.03-0.07,0.06-0.16,0.12-0.2c1.22-1.01,1.61-2.57,2.45-3.83 c0.86-1.28,1.62-2.64,2.43-3.95c1.15-1.84,2.19-3.75,3.25-5.64c0.88-1.56,1.86-3.1,2.84-4.63c0.71-1.11,1.32-2.28,2.1-3.62 c-1.11,0.29-1.56,1.04-2.06,1.63c-1.8,2.12-3.72,4.1-5.65,6.09c-0.41,0.43-0.74,0.93-1.13,1.38c-0.28,0.32-0.58,0.62-0.91,0.96 c-0.41-0.28-0.74-0.5-1.2-0.8c2.16-3.63,3.63-7.5,4.91-11.45c-0.09-0.05-0.19-0.1-0.28-0.15c-0.91,0.97-1.83,1.92-2.71,2.9 c-2.38,2.66-4.74,5.32-7.11,7.99c-1.39,1.56-2.75,3.15-4.15,4.7c-0.98,1.09-2.01,2.14-3,3.21c-2.54,2.76-5.19,5.42-7.51,8.39 c-1.53,1.96-3.4,3.65-5.09,5.49c-1.1,1.2-2.13,2.45-3.21,3.67c-0.55,0.62-1.13,1.21-1.69,1.82c-0.96,1.05-1.9,2.12-2.89,3.14 c-0.82,0.85-1.69,1.66-2.65,2.58c-0.32-0.2-0.66-0.43-1.09-0.7c0.69-0.88,1.33-1.68,1.95-2.48c1.13-1.47,2.39-2.84,3.45-4.38 c1.6-2.34,3.08-4.75,4.6-7.14c1.1-1.73,2.38-3.35,3.58-5.02c0.88-0.33,0.91-1.14,1.17-1.88c0.17-0.5,0.63-0.89,0.95-1.34 c0.7-0.99,1.4-1.97,2.08-2.97c0.67-1,1.27-2.06,1.98-3.04c0.89-1.23,1.53-2.63,2.65-3.71c0.62-0.6,0.91-1.45,0.72-2.47 c-1.4,1.6-2.8,3.2-4.21,4.83c-0.3-0.09-0.58-0.14-0.82-0.26c-0.46-0.23-0.63-0.6-0.34-1.08c0.87-1.46,1.2-3.1,1.59-4.72 c0.1-0.42,0.36-0.8,0.51-1.21c0.54-1.47,1.07-2.94,1.61-4.42c-0.08-0.05-0.16-0.1-0.23-0.15c-0.68,0.62-1.41,1.2-2.04,1.87 c-0.83,0.9-1.55,1.9-2.38,2.8c-0.56,0.61-1.24,1.11-1.82,1.7c-0.69,0.72-1.33,1.48-2.09,2.33c-0.52,0.1-1.1,0.01-1.34-0.8 c1.26-2.52,2.79-4.93,3.68-7.72c-0.15,0.02-0.28,0-0.34,0.05c-2.23,2.25-4.45,4.51-6.69,6.76c-1.48,1.49-2.99,2.94-4.49,4.41 c-0.9,0.88-1.81,1.77-2.71,2.65c-1.68,1.64-3.38,3.25-5.03,4.92c-1.92,1.95-3.77,3.97-5.7,5.92c-1.14,1.15-2.4,2.18-3.52,3.35 c-2.08,2.17-4.43,4.09-6.13,6.61c-0.04,0.06-0.12,0.1-0.24,0.19c-0.22-0.08-0.51-0.13-0.72-0.27c-0.52-0.35-0.55-0.66-0.17-1.2 c0.56-0.81,1.12-1.63,1.72-2.42c1.34-1.74,2.7-3.47,4.07-5.19c1.18-1.49,2.37-2.97,3.55-4.47c1.08-1.36,2.06-2.81,3.22-4.09 c2.02-2.23,3.56-4.8,5.49-7.1c2.4-2.86,4.7-5.81,6.96-8.79c0.82-1.08,1.89-2.03,2.37-3.7c-0.71,0.52-1.24,0.87-1.73,1.27 c-1.6,1.28-3.18,2.59-4.76,3.88c-1.56,1.28-3.14,2.55-4.68,3.85c-0.5,0.42-0.89,0.99-1.39,1.41c-0.42,0.35-1.05,0.27-1.38-0.09 c-0.36-0.39-0.22-0.69,0.06-1.14c1.19-1.92,2.28-3.9,3.43-5.84c0.93-1.57,1.92-3.11,2.86-4.67c0.45-0.74,0.8-1.54,1.26-2.27 c0.47-0.76,1-1.47,1.56-2.28c-0.18-0.18-0.33-0.48-0.55-0.53c-2.16-0.52-4.1-1.62-6.08-2.54c-1.79-0.83-3.58-1.84-4.97-3.35 c-0.08-0.09-0.18-0.16-0.27-0.23c-1.45-1.1-2.94-2.15-4.33-3.32c-0.64-0.53-1.2-1.08-2.01-1.41c-0.7-0.29-0.51-1.65,0.24-1.94 c1.29-0.5,2.6-0.95,3.91-1.39c1-0.34,1.23-0.59,1.33-1.7c0.11-1.15,0.15-2.29-0.3-3.38c-0.17-0.41,0.07-0.67,0.38-0.9 c0.37-0.27,0.69-0.19,0.93,0.16c0.41,0.6,1.08,0.78,1.68,1.07c1,0.49,2.03,0.91,2.96,1.51c0.92,0.59,1.73,1.35,2.6,2.03 c0.27,0.21,0.58,0.38,1.01,0.67c0.11-0.6,0.2-1.05,0.28-1.5c0.05,0,0.09,0,0.14,0c0.05,0.24,0.1,0.48,0.18,0.9 c0.14-0.42,0.31-0.69,0.32-0.97c0.03-1.11-0.05-2.22,0.01-3.33c0.07-1.31,0.24-2.61,0.38-3.91c0.16-1.62,0.34-3.24,0.49-4.86 c0.07-0.74,0.13-1.47,0.17-2.21c0.08-1.46,0.14-2.93,0.21-4.39c0.14-2.58,0.29-5.16,0.42-7.75c0.13-2.7,0.23-5.39,0.33-8.09 c0.07-1.75,0.23-3.51,0.14-5.25c-0.1-1.96,0.14-3.87,0.38-5.8c0.07-0.58-0.02-1.17,0.01-1.76c0.1-1.98,0.2-3.96,0.36-5.94 c0.04-0.44,0.33-0.87,0.53-1.37c1.7,0.2,3.33,0.44,4.98,0.56c0.83,0.06,1.68-0.12,2.55-0.19c0.78,0.45,1.05,1.02,0.59,1.95 c-0.25,0.5-0.25,1.16-0.22,1.74c0.16,2.94-0.42,5.81-0.71,8.7c-0.21,2.01-0.43,4.03-0.56,6.05c-0.18,2.73-0.3,5.46-0.4,8.19 c-0.04,0.98,0.14,1.96,0.08,2.94c-0.09,1.69-0.28,3.38-0.42,5.07c-0.08,0.91-0.09,1.83-0.22,2.73c-0.43,2.85-0.11,5.73-0.46,8.6 c-0.23,1.85,0.13,3.76,0.19,5.65c0.05,1.63,0.11,3.27,0.05,4.9c-0.05,1.3,0.07,2.61-0.36,3.91c-0.18,0.53,0.04,1.2,0.67,1.73 c2.19,1.87,4.82,2.89,7.39,4.04c2.27,1.02,4.56,1.97,7.03,3.03c0.21-1.26,0.43-2.36,0.56-3.48c0.25-2.25,0.45-4.5,0.64-6.76 c0.22-2.68,0.43-5.37,0.62-8.05c0.2-2.81,0.38-5.63,0.56-8.45c0.19-3.01,0.33-6.02,0.56-9.02c0.14-1.82,0.42-3.63,0.6-5.44 c0.25-2.57,0.47-5.14,0.7-7.71c0.09-0.95,0.2-1.9,0.26-2.86c0.18-2.61,0.28-5.23,0.51-7.83c0.29-3.36,0.69-6.72,1.01-10.08 c0.14-1.46,0.18-2.93,0.29-4.39c0.11-1.46,0.23-2.91,0.42-4.36c0.18-1.34,0.1-2.67-0.03-4.01c-0.11-1.17,0.15-2.32,0.19-3.49 c0.03-0.78,0.24-1.58-0.11-2.34c-0.16-0.36-0.36-0.61-0.83-0.44c-1.38,0.48-2.77,0.93-4.14,1.42c-1.18,0.43-2.33,0.92-3.5,1.35 c-1.52,0.56-3.04,1.08-4.56,1.63c-2.15,0.77-4.28,1.6-6.34,2.6c-1.6,0.78-3.3,1.36-4.91,2.1c-1,0.46-1.99,1-2.88,1.65 c-0.98,0.72-2.03,1.3-3.1,1.85c-0.63,0.32-1.15,0.83-1.74,1.23c-1.22,0.81-2.47,1.58-3.68,2.42c-0.68,0.47-1.31,1.03-1.95,1.55 c-1.28,1.04-2.55,2.1-3.83,3.13c-1.04,0.84-2.11,1.65-2.92,2.28c-0.14,1.88-0.27,3.41-0.37,4.95c-0.03,0.51,0.02,1.02-0.01,1.53 c-0.06,1.11-0.14,2.22-0.24,3.33c-0.19,2.18-0.16,4.35-0.04,6.53c0.06,1.01,0.1,2.06-0.06,3.05c-0.34,2.04-0.34,4.08-0.36,6.13 c-0.02,1.58-0.29,3.15-0.39,4.72c-0.06,1.03,0,2.07-0.03,3.1c-0.02,0.9-0.08,1.81-0.12,2.62c-0.59,0.91-1.43,0.76-2.26,0.66 c-0.69-0.08-1.38-0.17-2.07-0.21c-0.72-0.05-0.93-0.21-1.02-0.87c-0.1-0.66-0.22-1.32-0.31-1.98c-0.1-0.66-0.18-1.32-0.11-2.01 c0.12,0.46,0.24,0.91,0.36,1.37c0.62-0.6,0.6-1.25,0.42-1.87c-0.25-0.82-0.29-1.61-0.15-2.46c0.12-0.74,0.01-1.51,0-2.27 c-0.01-0.67-0.07-1.35-0.01-2.01c0.14-1.5-0.18-2.97-0.25-4.45c-0.01-0.2,0-0.39,0.03-0.59c0.28-1.77,0.11-3.54,0.02-5.32 c-0.09-1.85,0.06-3.72,0.12-5.58c0.01-0.41,0.07-0.82,0.11-1.3c-0.65,0.26-1.26,0.33-1.61,0.68c-0.44,0.43-0.89,0.3-1.14,0.09 c-1.17-1.03-2.59-1.44-4.03-1.84c-0.69-0.19-1.34-0.78-2.1-0.24c-0.56,0.4-1.32,0.31-1.82,0.95c-0.26,0.33-0.96,0.4-1.46,0.42 c-0.49,0.01-1.1,0.31-1.49-0.38c-0.15-0.27-0.56-0.39-0.87-0.56c-0.77-0.41-1.01-1.27-1.57-1.86c-1.15-1.2-2.3-2.32-3.87-2.99 c-0.76-0.32-1.39-1.01-2-1.61c-0.64-0.62-0.46-1.52,0.3-2.01c0.36-0.23,0.69-0.52,1-0.81c0.46-0.44,0.9-0.89,1.32-1.36 c0.33-0.37,0.58-0.82,0.94-1.17c0.7-0.69,1.43-1.36,2.18-2c1.4-1.21,2.82-2.41,4.23-3.6c1.24-1.04,2.38-2.24,3.76-3.06 c1.06-0.63,2.06-1.33,3.07-2.03c1.25-0.88,2.48-1.79,3.75-2.66c0.55-0.38,1.15-0.67,1.73-1c1.09-0.63,2.2-1.23,3.27-1.91 c0.19-0.12,0.32-0.57,0.26-0.8c-0.21-0.71-0.49-1.4-0.81-2.06c-0.7-1.46-1.41-2.92-2.16-4.36c-1.31-2.49-2.68-4.94-4-7.43 c-0.67-1.26-1.27-2.56-1.92-3.84c-0.3-0.59-0.63-1.17-0.94-1.75c0.28-0.41,0.5-0.72,0.7-1.01c0.66,0.02,1.05,0.37,1.4,0.84 c1.05,1.41,2.26,2.66,3.64,3.75c0.75,0.59,1.43,1.27,2.15,1.9c0.31,0.27,0.65,0.53,0.97,0.79c0.07-0.06,0.13-0.13,0.2-0.19 c-0.61-0.85-1.22-1.7-1.85-2.54c-1.37-1.84-2.76-3.68-4.14-5.52c-0.9-1.19-1.79-2.39-2.7-3.58c-1.43-1.85-2.87-3.69-4.31-5.53 c-0.27-0.34-0.6-0.63-0.85-0.98c-0.8-1.12-1.69-2.2-2.34-3.4c-0.5-0.93-1.41-1.49-1.87-2.42c-0.15-0.31-0.42-0.57-0.63-0.86 c-0.83-1.19-1.71-2.32-2.74-3.35c-0.83-0.84-1.55-1.8-2.34-2.68c-0.29-0.32-0.64-0.59-0.97-0.88c-0.64-0.55-0.81-0.94-0.57-1.41 c0.31-0.6,0.84-0.24,1.06-0.27c0.86,0.84,1.58,1.61,2.36,2.32c3.16,2.86,6.38,5.65,9.5,8.56c2.7,2.52,5.22,5.22,7.94,7.71 c1.67,1.53,3.21,3.17,4.79,4.78c0.96,0.98,2.04,1.91,3.21,2.63c2.03,1.25,3.73,2.84,5.37,4.52c1.41,1.44,2.89,2.83,4.34,4.23 c0.14,0.13,0.3,0.24,0.63,0.26c-0.07-0.22-0.1-0.47-0.23-0.65c-0.9-1.16-1.86-2.29-2.74-3.46c-0.84-1.11-1.59-2.28-2.42-3.4 c-0.37-0.51-0.2-0.91,0.18-1.24c0.43-0.38,0.79-0.31,1.21,0.22c1.35,1.7,3.18,2.87,4.77,4.31c1.03,0.93,2.14,1.77,3.22,2.64 c0.14,0.11,0.32,0.17,0.54,0.28c-0.34-1.26-5.74-9.25-9.77-13.75c0.06-0.19,0.11-0.43,0.22-0.63c0.28-0.53,0.58-0.6,1.04-0.21 c0.57,0.49,1.07,1.05,1.63,1.54c1.2,1.05,2.43,2.06,3.64,3.1c1.42,1.22,2.82,2.45,4.24,3.66c0.24,0.2,0.51,0.36,0.97,0.68 c-0.12-0.4-0.13-0.62-0.24-0.78c-1.05-1.44-2.11-2.86-3.19-4.28c-0.16-0.21-0.45-0.32-0.61-0.53c-1.08-1.4-2.15-2.81-3.22-4.22 c-0.73-0.94-1.47-1.87-2.2-2.81c-0.83-1.06-1.65-2.14-2.49-3.19c-2.17-2.74-4.35-5.46-6.51-8.2c-0.25-0.31-0.43-0.67-0.66-0.99 c-0.98-1.39-1.86-2.86-2.98-4.12c-1.15-1.28-2.15-2.65-3.11-4.06c-0.4-0.58-1.05-0.98-1.5-1.53c-0.77-0.95-1.45-1.97-2.21-2.93 c-0.49-0.62-1.08-1.16-1.58-1.78c-0.56-0.69-0.46-0.97,0.44-1.57c0.82,0.79,1.64,1.59,2.48,2.37c1.71,1.59,3.46,3.15,5.16,4.76 c1.82,1.72,3.61,3.47,5.42,5.2c0.28,0.27,0.53,0.63,0.87,0.8c1.85,0.87,2.81,2.66,4.2,4c1.29,1.24,2.52,2.55,3.8,3.8 c1.5,1.46,3.02,2.9,4.55,4.34c0.99,0.92,2,1.82,3.01,2.72c2.28,2.04,4.59,4.05,6.84,6.13c3.79,3.51,7.49,7.12,11.04,10.87 c0.15,0.16,0.34,0.29,0.63,0.33c-0.57-0.81-1.23-1.58-1.7-2.45c-0.67-1.23-1.68-2.22-2.21-3.56c-0.37-0.96-1.2-1.75-1.84-2.59 c-1.63-2.15-3.26-4.29-4.9-6.43c-0.41-0.53-0.85-1.03-1.3-1.56c0.27-0.4,0.48-0.72,0.74-1.11c5.55,4.69,11.08,9.36,16.61,14.03 c0.06-0.05,0.13-0.1,0.19-0.15c-0.09-0.23-0.13-0.5-0.27-0.69c-2-2.65-4.04-5.29-6.03-7.95c-1.64-2.19-3.24-4.42-4.88-6.61 c-0.38-0.5-0.86-0.93-1.26-1.41c-1.11-1.34-2.26-2.66-3.28-4.06c-1.54-2.1-3.21-4.07-5.04-5.91c-0.4-0.4-0.42-0.82-0.04-1.24 c0.39-0.42,0.75-0.39,1.23,0.06c0.78,0.74,1.52,1.51,2.36,2.17c1.87,1.46,3.81,2.83,5.67,4.31c1.18,0.94,2.29,1.98,3.41,2.99 c2.04,1.84,4.07,3.69,6.11,5.52c0.2,0.18,0.48,0.28,0.88,0.31c-0.31-0.49-0.52-1.15-0.96-1.45c-1.38-0.95-2.32-2.32-3.44-3.51 c-1.91-2.03-3.8-4.1-5.68-6.15c-0.51-0.55-0.97-1.15-1.46-1.71c-0.94-1.06-1.88-2.12-2.83-3.16c-1.39-1.51-2.85-2.93-4.08-4.6 c-0.9-1.23-2.12-2.23-3.19-3.33c-0.41-0.42-0.83-0.84-1.23-1.27c-1.67-1.86-3.28-3.78-5.03-5.57c-1.28-1.31-2.47-2.68-3.67-4.05 c-0.74-0.85-1.63-1.58-2.51-2.29c-0.78-0.63-0.85-1-0.09-1.67c0.08-0.07,0.21-0.1,0.38-0.18c0.19,0.16,0.42,0.32,0.6,0.52 c1.47,1.51,3.19,2.72,4.86,3.99c1.29,0.98,2.54,2.01,3.82,3c0.37,0.29,0.8,0.51,1.15,0.82c2.08,1.77,4.28,3.43,6.19,5.38 c2.49,2.56,5.24,4.83,7.82,7.29c2.88,2.73,5.92,5.28,8.89,7.91c1.41,1.25,2.82,2.52,4.24,3.77c0.32,0.28,0.71,0.5,1.04,0.78 c1.45,1.21,2.89,2.43,4.33,3.66c0.48,0.41,0.92,0.87,1.4,1.27c2.46,2.07,4.92,4.12,7.38,6.19c0.93,0.78,1.88,1.55,2.79,2.36 c1.33,1.19,2.62,2.43,3.95,3.62c1.19,1.05,2.44,2.03,3.61,3.1c0.84,0.77,1.54,1.67,2.36,2.46c1.45,1.4,2.95,2.74,4.42,4.12 c0.52,0.49,0.99,1.04,1.51,1.53c0.46,0.43,0.98,0.78,1.42,1.22c0.58,0.58,1.23,1.14,1.61,1.84c0.27,0.49,0.57,0.81,1.03,1.08 c2.89,1.73,5.92,3.25,8.29,5.75c1.14,1.2,2.46,2.23,3.64,3.39c1.55,1.53,3.08,3.07,4.54,4.68c1.16,1.28,2.21,2.67,3.32,4.01 c0.22,0.27,0.5,0.49,0.76,0.75c1.36-1.15,2.63-2.29,3.96-3.34c0.64-0.5,1.44-0.79,2.13-1.25c0.49-0.32,0.98-0.7,1.35-1.15 c0.89-1.08,1.86-1.98,3.16-2.61c1.05-0.51,1.93-1.38,2.89-2.08c0.37-0.27,0.76-0.54,1.15-0.79c0.3-0.2,0.65-0.33,0.91-0.57 c0.92-0.85,1.99-1.41,3.14-1.88c0.4-0.16,0.74-0.45,1.22-0.75c-0.53-0.62-1.04-1.21-1.54-1.8c-1.63-1.95-3.24-3.92-4.88-5.86 c-0.71-0.85-1.48-1.65-2.21-2.49c-1.6-1.87-3.22-3.72-4.78-5.62c-1.13-1.37-2.14-2.84-3.27-4.22c-0.72-0.88-1.57-1.66-2.33-2.51 c-0.92-1.04-1.81-2.11-2.7-3.17c-1.16-1.39-2.27-2.83-3.49-4.16c-1.23-1.34-2.59-2.56-3.85-3.87c-0.8-0.83-1.51-1.74-2.28-2.59 c-1.45-1.62-2.9-3.23-4.38-4.82c-0.56-0.61-0.61-0.97-0.02-2.01c0.29,0.13,0.65,0.19,0.88,0.4c1.92,1.76,3.81,3.55,5.73,5.31 c1.55,1.42,3.12,2.82,4.7,4.21c0.57,0.5,1.22,0.9,1.76,1.42c1.62,1.52,3.19,3.08,4.8,4.61c1.49,1.42,3.03,2.78,4.48,4.23 c1.85,1.85,3.64,3.75,5.43,5.66c2.07,2.21,4.36,4.15,6.74,6.02c2.41,1.89,4.67,3.95,6.97,5.97c1.55,1.36,3.06,2.77,4.66,4.1 c-0.83-1.68-2.05-3.07-3.22-4.51c-1.16-1.43-2.32-2.86-3.46-4.27c0.31-0.42,0.56-0.76,0.86-1.18c0.29,0.16,0.62,0.28,0.89,0.49 c1.04,0.79,2.07,1.6,3.1,2.41c1.43,1.13,2.83,2.29,4.26,3.41c1.19,0.93,2.4,1.84,3.62,2.73c0.24,0.18,0.56,0.26,1.1,0.5 c-0.38-0.63-0.61-1.06-0.88-1.46c-0.75-1.1-1.49-2.21-2.29-3.27c-1-1.33-2.08-2.59-3.08-3.92c-1.17-1.55-2.28-3.15-3.43-4.71 c-0.82-1.12-1.65-2.22-2.54-3.43c0.23-0.35,0.48-0.73,0.76-1.15c6.08,4.52,12.07,8.97,18.05,13.42c0.05-0.05,0.1-0.1,0.14-0.15 c-0.57-0.74-1.11-1.51-1.7-2.23c-3.03-3.67-6.07-7.34-9.1-11.01c-1.54-1.86-3.05-3.75-4.63-5.56c-0.88-1.01-1.91-1.88-2.85-2.84 c-0.58-0.59-1.12-1.23-1.69-1.84c-0.73-0.78-1.42-1.6-2.2-2.31c-1.45-1.31-2.69-2.8-3.94-4.3c-0.78-0.94-1.66-1.8-2.5-2.68 c-1.81-1.88-3.65-3.73-5.44-5.64c-0.73-0.78-1.33-1.69-2.05-2.49c-0.62-0.7-1.31-1.34-1.98-1.99c-0.75-0.72-1.53-1.41-1.51-2.64 c0.28-0.17,0.57-0.35,0.78-0.47c1.42,1.15,2.74,2.26,4.1,3.31c1.1,0.85,2.27,1.61,3.38,2.45c1.97,1.48,3.92,2.98,5.87,4.5 c2.72,2.12,5.07,4.67,7.87,6.72c1.34,0.98,2.46,2.26,3.68,3.4c1.54,1.44,3.11,2.85,4.63,4.3c1.63,1.56,3.22,3.16,4.84,4.72 c0.74,0.71,1.55,1.35,2.29,2.05c0.52,0.49,0.96,1.05,1.48,1.54c1.99,1.88,3.96,3.8,6.02,5.6c1.28,1.12,2.71,2.05,4.23,2.95 c-0.47-0.63-0.92-1.27-1.41-1.88c-0.97-1.21-1.97-2.39-2.93-3.6c-1.43-1.8-2.77-3.67-4.26-5.41c-1.46-1.71-2.82-3.5-4.15-5.31 c-1.67-2.26-3.55-4.38-5.38-6.52c-0.38-0.44-0.48-0.75-0.14-1.25c0.29-0.42,0.59-0.5,0.99-0.21c0.19,0.14,0.39,0.28,0.57,0.44 c1.6,1.42,3.23,2.82,4.8,4.27c1.34,1.23,2.62,2.51,3.93,3.77c1.6,1.54,3.21,3.05,4.78,4.61c0.88,0.87,1.66,1.83,2.53,2.7 c1.03,1.03,2.1,2.01,3.16,3.01c0.09-0.08,0.17-0.16,0.26-0.24c-0.51-0.6-1.02-1.2-1.53-1.81c-1.12-1.34-2.24-2.68-3.36-4.03 c-1.08-1.31-1.98-2.77-3.29-3.91c-0.74-0.64-1.28-1.51-1.93-2.26c-0.84-0.99-1.72-1.94-2.55-2.94c-1.31-1.58-2.6-3.19-3.9-4.78 c-1.33-1.62-2.66-3.24-4.01-4.85c-0.46-0.55-1-1.02-1.45-1.57c-0.68-0.82-1.26-1.71-1.97-2.5c-1.2-1.33-1.97-3-3.39-4.18 c-0.75-0.63-1.3-1.49-1.95-2.24c-0.6-0.69-1.22-1.37-1.83-2.05c-0.6-0.66-0.6-0.77,0.09-1.63c0.88,0.2,1.47,0.89,2.09,1.46 c1.81,1.65,3.51,3.43,5.33,5.07c1.56,1.41,3.24,2.69,4.84,4.06c1.8,1.54,3.57,3.12,5.34,4.69c1.22,1.07,2.46,2.13,3.65,3.23 c1.4,1.29,2.77,2.61,4.13,3.94c1.16,1.13,2.26,2.32,3.42,3.44c1.31,1.26,2.66,2.48,3.99,3.73c0.61,0.57,1.18,1.18,1.78,1.76 c1.51,1.46,3.01,2.93,4.56,4.35c0.91,0.83,1.93,1.54,2.86,2.35c1.41,1.22,2.78,2.48,4.17,3.72c0.27,0.24,0.54,0.46,1.03,0.87 c-0.15-0.44-0.18-0.66-0.29-0.81c-0.88-1.13-1.77-2.26-2.69-3.36c-1.65-1.98-3.32-3.93-4.97-5.91c-1.89-2.28-3.77-4.58-5.64-6.88 c-0.22-0.27-0.53-0.6-0.52-0.89c0.02-0.34,0.29-0.88,0.55-0.94c0.35-0.08,0.94,0.09,1.16,0.36c1.67,2.15,3.89,3.69,5.95,5.41 c1.67,1.38,3.33,2.78,4.93,4.23c1.74,1.57,3.42,3.2,5.11,4.83c0.83,0.8,1.6,1.67,2.42,2.48c0.38,0.38,0.81,0.7,1.22,1.04 c0.07-0.06,0.14-0.12,0.2-0.18c-0.67-0.86-1.35-1.71-1.99-2.58c-1.01-1.37-2.12-2.65-3.01-4.12c-0.79-1.3-1.77-2.48-2.72-3.66 c-1.01-1.26-2.08-2.47-3.13-3.7c-1.36-1.6-2.72-3.2-4.1-4.78c-0.28-0.32-0.67-0.54-1.1-0.87c-0.01-0.14-0.08-0.39-0.02-0.6 c0.1-0.31,0.24-0.76,0.47-0.84c0.26-0.09,0.7,0.09,0.95,0.29c1.17,0.96,2.29,1.97,3.43,2.96c0.17,0.14,0.35,0.27,0.71,0.54 c-0.27-1.02-0.99-1.46-1.49-1.99c-1.22-1.31-2.56-2.51-3.85-3.75c-1.93-1.87-3.85-3.74-5.79-5.6c-0.79-0.76-1.57-1.53-2.42-2.21 c-0.5-0.4-0.68-0.82-0.68-1.42c0-0.34-0.06-0.75-0.26-1c-0.65-0.8-1.39-1.52-2.06-2.29c-0.87-1.01-1.72-2.04-2.61-3.11 c0.34-0.37,0.6-0.66,0.94-1.04c0.31,0.26,0.57,0.47,0.82,0.7c0.92,0.86,1.8,1.76,2.75,2.59c1.77,1.54,3.57,3.04,5.36,4.55 c2.03,1.7,4.09,3.35,6.09,5.07c2.64,2.28,5.25,4.6,7.84,6.94c1.02,0.92,1.91,1.98,2.9,2.94c1.42,1.39,2.87,2.73,4.3,4.11 c1.13,1.09,2.22,2.22,3.35,3.31c0.88,0.85,1.82,1.64,2.69,2.5c1.05,1.03,2.05,2.11,3.1,3.14c1.35,1.34,2.73,2.65,4.08,3.99 c0.73,0.72,1.42,1.49,2.14,2.22c0.41,0.42,0.85,0.83,1.27,1.24c0.91,0.87,1.84,1.74,2.74,2.63c0.31,0.31,0.5,0.72,0.81,1.03 c1.27,1.29,2.59,2.54,3.85,3.85c1.62,1.68,3.19,3.4,4.8,5.09c0.52,0.54,1.08,1.04,1.63,1.55c0.23,0.21,0.48,0.4,0.68,0.64 c0.86,0.98,1.59,2.1,2.58,2.92c1.21,1.01,2.24,2.2,3.45,3.21c0.6,0.5,1.15,1.18,1.27,2.06c0.02,0.18,0.1,0.39,0.23,0.52 c1.29,1.22,2.41,2.6,3.97,3.55c1.02,0.62,1.83,1.6,2.71,2.45c1.68,1.61,3.4,3.17,4.99,4.87c1.04,1.11,2.3,1.92,3.45,2.86 c1.32,1.09,2.62,2.19,4.01,3.35c1.52-1.14,3.01-2.29,4.54-3.39c0.84-0.6,1.74-0.93,2.88-0.72c0.98,0.18,2.03-0.04,3.05-0.1 c0.69-0.04,1.32,0.04,1.96,0.35c0.6,0.29,1.3,0.38,1.92,0.63c0.73,0.29,1.43,0.66,2.12,1.02c1.15,0.6,2.3,1.23,3.44,1.86 c0.41,0.23,0.82,0.47,1.21,0.7c1.77-1.07,3.53-2.14,5.3-3.19c1.46-0.87,2.92-1.72,4.38-2.58c0.41-0.24,0.79-0.52,1.19-0.78 c1.46-0.95,2.93-1.89,4.39-2.84c0.66-0.43,1.33-0.84,1.99-1.28c0.63-0.42,1.19-0.95,1.85-1.3c2.09-1.09,3.89-2.61,5.84-3.9 c1.39-0.91,2.77-1.82,4.16-2.74c2.07-1.36,4.14-2.72,6.2-4.1c1.51-1.01,2.99-2.06,4.48-3.1c2.7-1.89,5.38-3.8,8.08-5.69 c1.3-0.91,2.64-1.77,3.96-2.64c2.68-1.78,5.37-3.54,8.04-5.32c1.56-1.05,3.11-2.11,4.65-3.2c1.21-0.85,2.59-0.89,3.97-0.92 c1.83-0.04,3.66-0.02,5.48-0.01c0.47,0,0.94,0.08,1.4,0.09c3.41,0.11,6.82,0.3,10.24,0.06c2.06-0.14,4.14-0.03,6.21-0.06 c0.75-0.01,1.5-0.12,2.26-0.15c2.47-0.09,4.94-0.27,7.4-0.21c2.94,0.07,5.84-0.29,8.76-0.45c1.45-0.08,2.91-0.01,4.36-0.08 c1.23-0.06,2.46-0.25,3.69-0.33c1.94-0.12,3.88-0.21,5.81-0.26c2.93-0.08,5.87-0.15,8.81-0.15c2.45,0,4.89,0.15,7.34,0.13 c2.22-0.02,4.45-0.27,6.67-0.27c0.87,0,1.84,0.21,2.58,0.64c1.47,0.85,2.83,1.9,4.22,2.89c2.01,1.43,3.93,2.99,5.96,4.38 c3.12,2.14,6.25,4.26,9.38,6.38c2.33,1.58,4.69,3.11,7,4.72c1.22,0.85,2.43,1.69,3.77,2.38c0.99,0.51,1.76,1.43,2.69,2.06 c3.73,2.51,7.49,4.98,11.25,7.45c0.28,0.19,0.66,0.37,0.97,0.34c1.58-0.15,3.15-0.38,4.72-0.57c0.59-0.07,1.19-0.15,1.78-0.13 c0.97,0.04,1.34,0.58,1.17,1.57c-0.04,0.23-0.12,0.55-0.01,0.69c0.61,0.79,0.34,1.66,0.2,2.61c0.99,0.05,1.92,0.14,2.84,0.13 c1.82-0.03,3.64-0.12,5.47-0.2c2.26-0.09,4.53-0.13,6.79-0.29c3.69-0.26,7.38-0.6,11.07-0.88c0.54-0.04,1.09,0.08,1.64,0.12 c1.14,0.08,2.12,0.05,3.03-0.99c0.96-1.1,2.25-1.92,3.44-2.8c0.25-0.19,0.7-0.23,1.02-0.17c1.5,0.29,2.99,0.33,4.48-0.03 c0.23-0.06,0.49-0.09,0.71-0.03c1.14,0.29,2.28,0.03,3.42,0.04c2.28,0.02,4.57-0.39,6.83,0.22c0.44,0.12,0.95-0.05,1.43-0.03 c2.06,0.07,4.11,0.17,6.16,0.25c2.24,0.09,4.5,0.35,6.73,0.22c2.09-0.12,4.18,0.29,6.26-0.15c0.29-0.06,0.62,0.08,0.93,0.06 c0.85-0.04,0.95-0.21,0.75-1.2c0.24-0.06,0.48-0.11,0.86-0.2c0,0.28,0.02,0.47-0.01,0.65c-0.02,0.15-0.08,0.29-0.16,0.54 c0.32,0,0.56,0,0.8,0c1.39,1.01,0.65,2.47,0.68,3.79c0.02,0.91,0.05,1.82,0.1,2.73c0.02,0.42,0.29,0.66,0.71,0.66 c0.91,0.01,1.82,0.04,2.73-0.02c0.61-0.05,1.17-0.16,1.67,0.35c0.17,0.17,0.49,0.25,0.76,0.27c3.25,0.28,6.51,0.52,9.76,0.81 c1.46,0.13,2.91,0.48,4.38,0.54c2.41,0.11,4.69,0.83,7.03,1.28c2.66,0.51,5.33,0.93,7.98,1.43c0.97,0.18,1.93,0.47,2.88,0.73 c2.05,0.56,4.11,1.12,6.15,1.72c1.86,0.55,3.68,1.19,5.54,1.75c1.98,0.59,3.99,1.1,5.97,1.71c1.06,0.33,2.07,0.82,3.12,1.2 c0.52,0.19,1.07,0.31,1.61,0.4c0.65,0.12,1.15,0.48,1.34,1.06c0.11,0.34-0.09,0.79-0.13,1.02c-1.72,0.33-3.27,0.63-4.68,0.91 c-0.63,1.29-1.19,2.37-1.68,3.48c-0.2,0.45-0.25,0.97-0.38,1.45c-0.06,0.22-0.14,0.45-0.24,0.65c-0.83,1.58-1.04,3.33-1.41,5.04 c-0.14,0.65-0.03,1.35-0.02,2.02c0.01,1.17,0.01,2.34,0.03,3.52c0.01,0.63-0.15,1.12-0.57,1.66c0.05,0.06,0.08,0.17,0.14,0.18 c0.88,0.18,1.76,0.37,2.65,0.52c0.35,0.06,0.81,0.16,1.06,0c0.9-0.61,1.56,0.15,2.31,0.31c0.45,0.1,0.86,0.37,1.3,0.48 c0.85,0.22,1.6,0.52,1.84,1.57c-0.29,0.44-0.45,1.1-1.34,0.86c-0.2-0.05-0.5,0.33-0.76,0.49c-1.26,0.8-2.65,1.4-3.74,2.47 c-0.15,0.15-0.51,0.26-0.69,0.19c-1.49-0.56-3.01-0.37-4.5-0.16c-0.73,0.1-1.43,0.19-2.16,0.09c-0.38-0.05-1.99,0.2-2.36,0.36 c-0.01-0.54-0.33-0.75-0.76-0.5c-0.49,0.29-0.91,0.72-1.42,1.13c0.38,0.63,0.37,1.24-0.16,1.81c-0.12,0.13-0.21,0.35-0.21,0.53 c-0.04,1.37-0.04,1.37-0.91,2.01c0.17,0.44,0.33,0.88,0.5,1.33c-1.04,0.1-1.03,0.13-1.31,1.03c-0.18,0.6-0.47,1.17-0.7,1.75 c-0.28,0.7-0.64,1.37-0.82,2.09c-0.28,1.13-1,1.8-2.1,1.78c-1.65-0.02-3.3,0-4.95-0.05c-1.58-0.05-3.16-0.15-4.74-0.23 c-0.16-0.01-0.33-0.08-0.47-0.04c-1.38,0.41-2.76,0.13-4.13,0c-1.64-0.15-3.27-0.1-4.89,0.09c-0.08,0.01-0.17,0.07-0.23,0.04 c-0.75-0.36-1.36,0-1.89,0.35c-0.46-0.21-0.85-0.55-1.21-0.53c-0.84,0.05-0.84,0.13-1.6-0.06c0.01-0.08,0.01-0.22,0.03-0.22 c0.85-0.1,1.24-0.71,1.76-1.31c0.73-0.84,1.07-1.83,1.53-2.76c0.33-0.66,0.23-1.56,0.23-2.35c0.01-2.6-0.03-5.19-0.01-7.79 c0.01-0.73-0.26-1.26-0.86-1.59c-1.12-0.61-1.83-1.59-2.63-2.54c-1.37-1.62-2.32-3.47-3.27-5.32c-0.55-1.06-1.44-1.79-2.19-2.65 c-0.52-0.6-1.17-1.08-1.68-1.69c-1.41-1.7-3.3-2.43-5.4-2.74c-0.79-0.12-1.06-0.58-0.79-1.43c-1.74,0.15-2.78-1.27-4.23-1.81 c-1.3-0.48-2.54-1.09-3.95-1.3c-1.44-0.22-2.84-0.73-4.27-1.09c-0.53-0.13-1.08-0.23-1.63-0.28c-2.16-0.22-4.18,0.29-6.14,1.16 c-0.85,0.37-1.76,0.45-2.67,0.43c-1.33-0.03-2.59,0.17-3.85,0.66c-1.55,0.61-3.2,0.96-4.75,1.58c-2.07,0.82-3.73,2.28-5.35,3.76 c-1,0.92-1.78,1.97-2.44,3.18c-0.51,0.95-1.42,1.7-2.23,2.46c-1.76,1.66-3.15,3.57-4.24,5.73c-0.74,1.48-1.46,2.96-2.55,4.29 c-1.76,2.14-2.24,4.63-0.97,7.26c0.8,1.66,0.93,3.46,0.98,5.24c0.03,1.24,0.5,2.2,1.18,3.17c0.88,1.25,1.74,2.51,2.52,3.83 c0.93,1.6,2.09,2.99,3.9,3.69c0.71,0.27,1.26,0.74,1.81,1.3c1.39,1.42,2.99,2.63,4.87,3.34c0.98,0.37,2.06,0.48,3.14,0.6 c-0.76-0.44-1.28-1.14-2.17-1.44c-1.08-0.37-2.12-0.94-3.06-1.58c-0.77-0.52-1.15-1.42-1.3-2.35c-0.29-1.8-1.02-3.39-2.08-4.87 c-0.95-1.32-1.89-2.68-2.58-4.14c-0.91-1.92-1.95-3.87-1.99-6.04c-0.06-2.46,0.08-4.93,0.26-7.38c0.07-0.88,0.49-1.74,0.78-2.59 c0.41-1.2,0.6-2.44,1.22-3.6c0.89-1.68,2.04-3.14,3.32-4.49c1.42-1.5,2.74-3.06,4.06-4.63c0.84-1,1.94-1.79,3.37-2.03 c1.32-0.22,2.62-0.66,3.9-1.08c1-0.33,1.94-0.94,2.96-1.15c1.94-0.41,3.89-0.8,5.91-0.75c2.07,0.05,4.13-0.01,6.18,0.43 c0.84,0.18,1.75,0.07,2.63,0.06c0.85-0.01,1.64,0.15,2.44,0.5c1.49,0.66,3.02,1.23,4.53,1.84c0.88,0.35,1.76,0.71,2.64,1.06 c1.7,0.69,2.96,1.91,4.21,3.22c1.47,1.55,3.12,2.92,4.69,4.38c0.23,0.21,0.5,0.43,0.62,0.7c0.64,1.44,1.24,2.89,1.85,4.34 c-0.03,0.02-0.07,0.03-0.1,0.05c-0.12,0.1-0.24,0.21-0.37,0.32c0.08,0.06,0.16,0.13,0.24,0.19c0.07-0.12,0.16-0.24,0.21-0.37 c0.03-0.06-0.01-0.15-0.02-0.23c0.98,2,1.41,4.14,1.44,6.35c0.03,2.67,0.09,5.34-0.33,8c-0.27,1.7-0.83,3.28-1.52,4.84 c-0.44,1-0.83,2.03-1.23,3.05c-0.52,1.31-1.24,2.51-2.09,3.64c-0.52,0.69-0.94,1.46-1.41,2.18c-0.13,0.2-0.26,0.39-0.42,0.56 c-0.7,0.74-1.45,1.44-2.11,2.21c-0.8,0.92-1.75,1.59-2.86,2.08c-0.61,0.26-1.16,0.66-1.73,0.99c-0.2-0.26-0.35-0.47-0.64-0.85 c-0.1,0.48-0.16,0.75-0.23,1.04c-0.59,0.21-1.22,0.4-1.82,0.67c-2.05,0.9-4.19,1.42-6.42,1.64c-0.65,0.06-1.27,0.32-1.91,0.47 c-0.26,0.06-0.54,0.13-0.8,0.12c-0.79-0.05-1.57-0.13-2.35-0.21c-1.97-0.2-3.96-0.33-5.91-0.65c-1.03-0.17-2-0.69-3.1-0.65 c-0.2,0.01-0.41-0.22-0.61-0.35c-0.54-0.37-1.08-0.75-1.75-1.21c-0.1,0.5-0.16,0.82-0.22,1.13c-0.98-0.14-1.9-0.23-2.8-0.4 c-0.91-0.18-1.87-0.32-2.7-0.71c-0.86-0.41-1.74-0.35-2.61-0.44c-1.48-0.15-2.78-0.73-4.14-1.29c-1.26-0.53-2.34-1.29-3.48-1.98 c-1.1-0.66-2.22-1.33-3.23-2.12c-0.8-0.62-1.51-1.39-2.16-2.17c-0.33-0.4-0.46-0.96-0.66-1.46c-0.07-0.17-0.08-0.37-0.15-0.55 c-0.49-1.27-0.98-2.54-1.47-3.81c-0.02-0.06-0.12-0.09-0.18-0.14c0.96-0.66-0.39-1.26-0.06-1.94c0.07-0.13-0.19-0.5-0.38-0.67 c-0.33-0.29-0.72-0.51-1.16-0.81c-1.15,2.27-2.07,4.67-2.41,7.34c-0.28,0.06-0.58,0.13-0.97,0.23c0.29,0.16,0.51,0.29,0.91,0.51 c-0.34,0.09-0.5,0.18-0.67,0.18c-9.63-0.01-19.25-0.02-28.88-0.06c-4.02-0.02-8.05-0.11-12.07-0.15c-0.72-0.01-1.49-0.18-2.08,0.53 c-0.16,0.19-0.61,0.22-0.91,0.18c-2.18-0.31-4.37-0.12-6.55-0.15c-2.06-0.03-4.12-0.07-6.18-0.07c-1.12,0-2.24,0.1-3.35,0.09 c-1.73-0.02-3.46-0.1-5.19-0.15c-1.54-0.04-3.08-0.06-4.61-0.1c-1.07-0.03-2.14-0.17-3.2-0.12c-1.33,0.06-2.66-0.13-4,0.01 c-1.01,0.1-2.05-0.17-3.07-0.24c-1.38-0.09-2.75-0.17-4.13-0.2c-1.77-0.04-3.55,0.03-5.32-0.03c-3.48-0.12-6.96-0.34-10.45-0.46 c-2.67-0.09-5.34-0.11-8.01-0.13c-2.17-0.01-4.34,0.04-6.51,0.05c-2.67,0.01-5.34,0.01-8.01-0.01c-1.51-0.01-3.01-0.12-4.51-0.12 c-0.94,0-1.88,0.14-2.82,0.2c-1.19,0.07-2.38,0.17-3.57,0.16c-1.54-0.02-3.08-0.19-4.62-0.21c-2.5-0.03-4.99,0.03-7.49,0 c-1.75-0.02-3.5-0.08-5.24-0.22c-1.38-0.11-2.75-0.08-4.12-0.1c-2.05-0.02-4.1-0.1-6.15-0.09c-0.86,0.01-1.71,0.21-2.57,0.29 c-1.26,0.11-2.53,0.28-3.78,0.25c-2.4-0.05-4.8-0.22-7.31-0.34c-0.76,1.63-1.54,3.42-2.59,5.04c-0.41,0.63-0.93,1.21-1.53,1.73 c-0.6,0.52-1.03,1.27-1.71,1.75c-0.9,0.64-1.8,1.29-2.75,1.87c-1.17,0.72-2.33,1.51-3.6,2.03c-1.07,0.44-2.26,0.6-3.42,0.79 c-1.56,0.25-3.12,0.45-4.7,0.57c-2.02,0.15-4.04,0.01-6.05-0.29c-1.01-0.15-2.06-0.06-3.08-0.16c-1.3-0.13-2.6-0.3-3.88-0.55 c-1.63-0.32-3.24-0.74-4.86-1.12c-1.78-0.42-3.54-0.86-5.19-1.7c-1.19-0.6-2.49-0.98-3.74-1.47c-0.15-0.06-0.36-0.11-0.41-0.22 c-0.32-0.78-1.16-0.94-1.68-1.47c-0.61-0.62-1.12-1.34-1.79-1.88c-1.6-1.31-2.2-3.22-3.14-4.93c-0.96-1.74-1.58-3.6-1.96-5.54 c-0.06-0.31-0.16-0.64-0.11-0.94c0.11-0.71-0.19-1.07-0.83-1.37c-0.93-0.43-1.79-1.01-2.68-1.51c-0.48-0.27-0.98-0.52-1.46-0.8 c-0.23-0.13-0.47-0.27-0.67-0.45c-1.92-1.69-4.1-3.06-5.97-4.83c-1.66-1.58-3.53-2.93-5.4-4.46c-1.53,0.76-2.44,2.36-3.73,3.54 c-1.3,1.19-2.4,2.6-3.61,3.94c0.26,0.21,0.54,0.43,0.95,0.75c-0.55,0.7-1.01,1.37-1.55,1.98c-2.86,3.23-5.62,6.54-8.12,10.08 c-1.76,2.48-3.77,4.78-5.63,7.2c-1.52,1.97-2.96,4-4.47,5.98c-2.03,2.68-4.11,5.32-6.12,8.01c-0.78,1.04-1.44,2.18-2.13,3.28 c-1.77,2.83-3.66,5.58-5.7,8.22c-1.12,1.45-2.26,2.88-3.35,4.36c-0.54,0.73-0.96,1.55-1.48,2.3c-1.09,1.56-2.22,3.08-3.32,4.64 c-1.64,2.33-3.27,4.67-4.88,7.02c-0.98,1.44-1.89,2.92-2.89,4.35c-0.68,0.97-1.46,1.85-2.18,2.79c-0.62,0.82-1.22,1.66-1.82,2.5 c-0.47,0.67-0.92,1.36-1.38,2.05c-0.72,0-1.44,0-2.16,0c1-1.33,1.99-2.67,2.99-4c1.28-1.71,2.6-3.4,3.83-5.15 c0.84-1.2,1.56-2.49,2.34-3.73c0.47-0.74,0.99-1.45,1.44-2.21c0.73-1.21,1.42-2.45,2.12-3.68c0.8-1.41,1.62-2.8,2.38-4.23 c0.73-1.36,1.37-2.77,2.11-4.12c0.37-0.69,0.86-1.32,1.33-1.95c1.25-1.66,1.83-3.7,3.16-5.34c0.83-1.01,1.31-2.31,1.94-3.48 c0.49-0.91,1-1.81,1.47-2.73c0.27-0.54,0.46-1.12,0.75-1.64c0.52-0.96,1.1-1.89,1.63-2.84c0.45-0.81,0.86-1.64,1.29-2.46 c-0.09-0.05-0.18-0.1-0.27-0.16c-2.51,3.3-4.85,6.72-7.12,10.18c-2.27,3.46-4.69,6.83-6.43,10.57c-0.34,0.09-0.65,0.16-0.95,0.24 c-1.08-0.78-1.13-1.12-0.29-2.15c0.12-0.15,0.26-0.3,0.36-0.47c0.86-1.34,1.71-2.68,2.57-4.01c1.27-1.97,2.5-3.96,3.47-6.1 c0.65-1.44,1.45-2.82,2.17-4.23c0.28-0.56,0.51-1.15,0.77-1.73c0.26-0.57,0.48-1.17,0.82-1.68c0.44-0.64,0.5-1.21-0.02-1.96 c-0.42,0.5-0.82,0.94-1.17,1.41c-0.79,1.04-1.54,2.1-2.32,3.14c-1.44,1.93-2.9,3.84-4.34,5.77c-0.76,1.02-1.48,2.06-2.22,3.08 c-0.34,0.46-1.07,0.6-1.45,0.29c-0.37-0.3-0.41-0.9-0.15-1.36c1.65-2.87,2.91-5.91,3.74-9.12c0.08-0.31,0.06-0.64,0.08-0.96 c-0.7,0.55-1.16,1.18-1.66,1.78c-1.41,1.72-2.89,3.38-4.23,5.15c-1.41,1.86-2.65,3.84-4.04,5.71c-2.22,2.99-4.56,5.87-6.92,8.75 c-1.48,1.81-2.96,3.62-4.43,5.43c-0.5,0.61-1,1.23-1.5,1.85c-1.94,2.39-3.9,4.75-5.81,7.17c-1.15,1.46-2.2,3-3.34,4.47 c-1.5,1.94-3.05,3.84-4.56,5.78c-0.14,0.18-0.12,0.49-0.18,0.74C196.47,228.98,195.43,228.98,194.39,228.98z" fill="#ddd"/>
<path d="" fill="red" fill-rule="evenodd"/>
</svg>