<?xml version="1.0" encoding="utf-8"?>
<svg version="1.1" xmlns="http://www.w3.org/2000/svg" viewBox="0 0 657 242">
<rect width="657" height="242" fill="#eee"/>
<path d="M560.48,155.05 c0.49,0.68,0.81,1.34,1.32,1.8c1.18,1.06,2.57,1.82,4.06,2.39c0.88,0.34,1.81,0.43,2.64-0.04c0.97-0.56,2-0.88,3.08-1.16 c1.83-0.46,3.11-1.85,4.55-2.94c1.43-1.08,1.81-2.69,1.88-4.39c0.07-1.77-0.36-3.47-0.94-5.1c-0.26-0.74-0.85-1.46-1.48-1.94 c-0.92-0.71-1.62-1.71-2.82-2.11c-1.07-0.36-2.05-1.06-3.14-1.3c-2.39-0.53-4.72-0.28-6.82,1.11c-0.68,0.45-1.29,1.01-1.95,1.5 c-0.74,0.54-1.72,2.39-1.67,3.26c0.11,1.74,0.2,3.48,0.4,5.21c0.09,0.85,0.4,1.68,0.61,2.53c0.08,0.31,0.16,0.61,0.24,0.92 c-0.1,0.04-0.19,0.08-0.29,0.11c-0.14-0.61-0.52-1.11-0.61-1.72c-0.16-1.16-0.26-2.33-0.42-3.49c-0.07-0.47,0.08-1.02-0.38-1.44 c-0.27,0.64-0.6,3.8-0.34,4.42c0.44,1.03,0.7,2.17,1.66,3.03C560.21,155.48,560.31,155.32,560.48,155.05z" fill="red"/>
</svg>