<?xml version="1.0" encoding="utf-8"?>
<svg version="1.1" xmlns="http://www.w3.org/2000/svg" viewBox="0 0 657 242">
<rect width="657" height="242" fill="#eee"/>
<path d="M470.33,82.69c-0.68,0.37-0.34,0.77,0,1.11c0.38,0.38,0.82,0.71,1.25,1.04 c0.08,0.06,0.27-0.04,0.41-0.06c0.42,1.21,1.63,1.44,2.48,2.14c0.36-0.53,0.66-0.99,0.98-1.46c-0.38-0.46-0.74-0.77-1.27-0.71 c-0.08,0.1-0.17,0.2-0.25,0.3c0.24,0.11,0.47,0.21,0.85,0.38c-0.49,0.06-0.77,0.09-1.05,0.13c-0.06-0.33-0.12-0.63-0.18-0.92 c-0.58,0.06-1.09,0.11-1.59,0.16c-0.15-0.66-0.29-1.32-0.5-1.96c-0.02-0.07-0.47-0.01-0.71-0.01c0.09-0.13,0.28-0.35,0.26-0.37 c-0.42-0.46-0.82-0.32-1.15,0.46C470.07,82.82,470.2,82.76,470.33,82.69z" fill="red"/>
</svg>