<?xml version="1.0" encoding="utf-8"?>
<svg xmlns="http://www.w3.org/2000/svg" viewBox="620 473 685 135" width="685" height="135">
  <defs>
    <clipPath id="viewport">
      <rect x="620" y="473" width="685" height="135"/>
    </clipPath>
  </defs>
  <rect x="620" y="473" width="685" height="135" fill="white"/>
  
  <!-- Car+DNA watermark at 12% opacity -->
  <g clip-path="url(#viewport)" opacity="0.12">
    <g transform="translate(596.8, 405.8) scale(1.113)">
      <path d="M194.39,228.98c-0.13-0.84,0.39-1.42,0.82-2.03c0.27-0.39,0.63-0.75,0.77-1.19c0.16-0.51,0.41-0.84,0.88-1.05 c0.11-0.05,0.24-0.1,0.29-0.19c0.6-0.9,1.24-1.79,1.78-2.73c0.31-0.55,0.63-1.05,1.08-1.51c0.43-0.43,0.75-0.99,1.07-1.53 c0.62-1.05,1.2-2.13,1.81-3.2c0.41-0.72,0.83-1.44,1.23-2.17c0.13-0.24,0.26-0.53,0.26-0.79c0-1.17,0.44-2.02,1.48-2.61 c0.32-0.19,0.44-0.71,0.69-1.04c1.16-1.55,2.43-3.02,3.47-4.64c2.19-3.43,4.33-6.91,6.15-10.57c0.5-1.02,1.27-1.9,1.85-2.88 c0.7-1.18,1.33-2.4,1.97-3.61c0.53-1.01,1.02-2.03,1.36-3.18c-0.16,0.18-0.33,0.35-0.49,0.53c-1.64,1.84-3.31,3.65-4.92,5.51 c-1.27,1.47-2.47,2.99-3.69,4.5c-0.09,0.11-0.12,0.28-0.18,0.42c-0.34,0.82-0.89,1.1-1.66,0.77c-0.21-0.09-0.44-0.4-0.45-0.63 c-0.02-0.38,0.1-0.78,0.22-1.14c0.31-0.94,0.65-1.86,1-2.84c-0.59-0.24-1.11-0.46-1.64-0.67c0.02-0.06,0.04-0.13,0.07-0.19 c0.14,0.02,0.29,0.02,0.42,0.07c1.36,0.42,2.17-0.29,1.96-1.73c-0.07-0.48,0.14-0.78,0.45-1.12c0.69-0.76,1.31-1.57,1.92-2.39 c0.13-0.17,0.12-0.43,0.21-0.8c-1.03,0.33-1.63,1.01-2.25,1.62c-1.83,1.8-3.61,3.64-5.43,5.44c-1.58,1.57-3.22,3.08-4.79,4.67 c-1.2,1.21-2.31,2.52-3.5,3.74c-0.66,0.68-1.39,1.28-2.08,1.92c-0.31,0.29-0.59,0.63-0.9,0.92c-1.4,1.28-2.82,2.54-4.2,3.84 c-1.42,1.33-2.81,2.69-4.2,4.05c-1.78,1.74-3.56,3.48-5.3,5.26c-1.4,1.44-2.72,2.96-4.1,4.43c-1.2,1.27-2.43,2.51-3.64,3.76 c-0.27,0.28-0.5,0.61-0.79,0.88c-0.63,0.6-1.76,0.34-1.91-0.45c-0.04-0.2,0.01-0.5,0.14-0.64c1.23-1.29,2.49-2.55,3.73-3.83 c2.06-2.13,4.11-4.24,6.02-6.52c1.76-2.1,3.21-4.39,4.89-6.54c1.28-1.64,2.54-3.3,3.87-4.9c1.59-1.9,3.14-3.85,4.9-5.59 c1.64-1.62,3.12-3.36,4.53-5.17c0.63-0.81,1.16-1.69,1.76-2.54c0.79-1.13,1.61-2.25,2.4-3.38c0.12-0.18,0.19-0.39,0.38-0.77 c-0.97,0.3-1.52,0.89-2.09,1.39c-1.78,1.57-3.52,3.2-5.29,4.8c-1.12,1.01-2.3,1.96-3.4,2.99c-0.83,0.78-1.57,1.66-2.35,2.49 c-0.41,0.44-1.13,0.5-1.62,0.13c-0.38-0.29-0.34-0.91,0.02-1.45c1.38-2.05,2.71-4.14,4.13-6.17c0.81-1.17,1.77-2.23,2.63-3.36 c0.76-1.01,1.48-2.05,2.21-3.07c0.44-0.61,0.89-1.21,1.3-1.83c0.13-0.2,0.17-0.46,0.24-0.7c-0.07-0.06-0.15-0.11-0.22-0.17 c-1.15,0.93-2.32,1.84-3.45,2.8c-1.42,1.2-2.8,2.45-4.21,3.66c-1.7,1.47-3.42,2.91-5.1,4.39c-2.74,2.42-5.41,4.91-8.18,7.28 c-2.22,1.91-4.54,3.71-6.83,5.54c-2.57,2.05-5.15,4.08-7.71,6.14c-1.66,1.34-3.28,2.71-4.9,4.08c-0.33,0.28-0.58,0.65-0.86,0.99 c-0.73,0.88-0.72,0.88-1.87,0.38c-0.25-0.63,0.02-1.13,0.44-1.6c1.02-1.16,2.05-2.32,3.05-3.5c0.21-0.25,0.46-0.63,0.41-0.9 c-0.13-0.7,0.43-1.08,0.76-1.2c1.49-0.51,2.28-1.81,3.32-2.79c1.89-1.79,3.58-3.79,5.33-5.72c1.35-1.49,2.67-3.01,3.99-4.52 c0.31-0.36,0.62-0.73,0.88-1.12c1.46-2.22,3.34-4.08,5.05-6.1c1.31-1.54,2.72-2.99,4.09-4.47c1-1.07,2.03-2.12,3.03-3.19 c0.13-0.13,0.17-0.35,0.32-0.68c-1.07,0.28-1.76,0.92-2.52,1.44c-1.32,0.92-2.52,2-3.85,2.91c-1.17,0.81-2.27,1.68-3.57,2.32 c-0.6,0.29-1.05,0.95-1.46,1.52c-0.44,0.61-0.84,0.79-1.47,0.29c-0.14-0.11-0.35-0.12-0.71-0.24c0.21-0.48,0.3-0.98,0.59-1.28 c2.01-2.11,3.48-4.6,5.11-6.99c1.05-1.54,1.88-3.3,3.37-4.55c0.55-0.46,0.97-1.11,1.24-1.93c-0.99-0.36-1.86-0.67-2.73-1 c-0.15-0.05-0.29-0.13-0.43-0.21c-1.77-0.96-3.56-1.88-5.3-2.89c-1.37-0.79-2.69-1.67-4.01-2.54c-0.99-0.66-1.97-1.35-2.91-2.08 c-0.89-0.69-1.68-1.53-2.6-2.17c-1.25-0.88-2.22-2.02-3.22-3.13c-0.1-0.12-0.24-0.22-0.38-0.29c-1.51-0.76-2.57-1.97-3.44-3.37 c-0.02-0.03-0.03-0.08-0.06-0.1c-1.33-1.11-2.06-2.71-3.17-3.99c-0.14-0.16-0.37-0.26-0.63-0.43c-0.18,0.28-0.34,0.49-0.46,0.72 c-0.43,0.9-0.73,1.9-1.81,2.29c-0.13,0.05-0.31,0.2-0.33,0.33c-0.11,0.84-0.89,1.08-1.37,1.57c-0.85,0.87-1.71,1.75-2.59,2.6 c-1.05,1.01-2.1,2.01-3.19,2.97c-0.53,0.47-1.16,0.81-1.71,1.27c-0.67,0.56-1.28,1.18-1.93,1.76c-1.84,1.67-3.71,3.32-5.51,5.04 c-0.3,0.28-0.37,0.84-0.44,1.29c-0.03,0.17,0.27,0.39,0.52,0.73c-0.35,0.45-0.75,1.03-1.22,1.55c-1.27,1.39-2.57,2.76-3.87,4.12 c-0.38,0.4-0.85,0.72-1.22,1.13c-1.7,1.89-3.37,3.79-5.06,5.69c-0.4,0.44-0.79,0.89-1.25,1.27c-2,1.67-3.45,3.82-5.14,5.75 c-1.34,1.54-2.81,2.97-4.18,4.49c-1.35,1.5-2.64,3.06-3.95,4.59c-0.83,0.97-1.66,1.93-2.47,2.91c-0.96,1.15-1.91,2.32-2.87,3.47 c-2.21,2.63-4.42,5.25-6.64,7.87c-0.95,1.11-1.93,2.19-2.89,3.3c-0.2,0.24-0.35,0.52-0.55,0.76c-1.08,1.27-2.17,2.52-3.24,3.8 c-1.16,1.38-2.31,2.78-3.45,4.18c-0.4,0.49-0.79,0.99-1.1,1.53c-0.62,1.07-0.67,1.11-1.94,0.52c0.08-0.23,0.12-0.51,0.27-0.71 c1.09-1.56,2.21-3.09,3.29-4.66c0.99-1.43,1.83-2.94,2.62-4.5c0.55-1.08,1.21-2.1,1.87-3.12c1.03-1.59,2.08-3.16,3.29-4.64 c0.94-1.15,1.63-2.49,2.44-3.75c0.39-0.6,0.82-1.16,1.19-1.77c1.36-2.21,2.62-4.49,4.1-6.62c0.69-0.99,1.34-2.03,2.08-2.99 c0.94-1.21,1.74-2.51,2.59-3.79c1.43-2.16,2.34-4.58,3.58-6.88c-0.61,0.3-1.11,0.76-1.53,1.26c-1.64,1.93-3.26,3.88-4.88,5.83 c-1.06,1.28-2.08,2.6-3.13,3.89c-2.03,2.48-4.08,4.95-6.1,7.43c-1.47,1.8-2.91,3.61-4.37,5.41c-0.66,0.82-1.34,1.63-2,2.43 c-1.32-0.51-1.29-0.61-0.69-1.78c1.16-2.26,2.97-4.13,3.91-6.52c0.03-0.07,0.06-0.16,0.12-0.2c1.22-1.01,1.61-2.57,2.45-3.83 c0.86-1.28,1.62-2.64,2.43-3.95c1.15-1.84,2.19-3.75,3.25-5.64c0.88-1.56,1.86-3.1,2.84-4.63c0.71-1.11,1.32-2.28,2.1-3.62 c-1.11,0.29-1.56,1.04-2.06,1.63c-1.8,2.12-3.72,4.1-5.65,6.09c-0.41,0.43-0.74,0.93-1.13,1.38c-0.28,0.32-0.58,0.62-0.91,0.96 c-0.41-0.28-0.74-0.5-1.2-0.8c2.16-3.63,3.63-7.5,4.91-11.45c-0.09-0.05-0.19-0.1-0.28-0.15c-0.91,0.97-1.83,1.92-2.71,2.9 c-2.38,2.66-4.74,5.32-7.11,7.99c-1.39,1.56-2.75,3.15-4.15,4.7c-0.98,1.09-2.01,2.14-3,3.21c-2.54,2.76-5.19,5.42-7.51,8.39 c-1.53,1.96-3.4,3.65-5.09,5.49c-1.1,1.2-2.13,2.45-3.21,3.67c-0.55,0.62-1.13,1.21-1.69,1.82c-0.96,1.05-1.9,2.12-2.89,3.14 c-0.82,0.85-1.69,1.66-2.65,2.58c-0.32-0.2-0.66-0.43-1.09-0.7c0.69-0.88,1.33-1.68,1.95-2.48c1.13-1.47,2.39-2.84,3.45-4.38 c1.6-2.34,3.08-4.75,4.6-7.14c1.1-1.73,2.38-3.35,3.58-5.02c0.88-0.33,0.91-1.14,1.17-1.88c0.17-0.5,0.63-0.89,0.95-1.34 c0.7-0.99,1.4-1.97,2.08-2.97c0.67-1,1.27-2.06,1.98-3.04c0.89-1.23,1.53-2.63,2.65-3.71c0.62-0.6,0.91-1.45,0.72-2.47 c-1.4,1.6-2.8,3.2-4.21,4.83c-0.3-0.09-0.58-0.14-0.82-0.26c-0.46-0.23-0.63-0.6-0.34-1.08c0.87-1.46,1.2-3.1,1.59-4.72 c0.1-0.42,0.36-0.8,0.51-1.21c0.54-1.47,1.07-2.94,1.61-4.42c-0.08-0.05-0.16-0.1-0.23-0.15c-0.68,0.62-1.41,1.2-2.04,1.87 c-0.83,0.9-1.55,1.9-2.38,2.8c-0.56,0.61-1.24,1.11-1.82,1.7c-0.69,0.72-1.33,1.48-2.09,2.33c-0.52,0.1-1.1,0.01-1.34-0.8 c1.26-2.52,2.79-4.93,3.68-7.72c-0.15,0.02-0.28,0-0.34,0.05c-2.23,2.25-4.45,4.51-6.69,6.76c-1.48,1.49-2.99,2.94-4.49,4.41 c-0.9,0.88-1.81,1.77-2.71,2.65c-1.68,1.64-3.38,3.25-5.03,4.92c-1.92,1.95-3.77,3.97-5.7,5.92c-1.14,1.15-2.4,2.18-3.52,3.35 c-2.08,2.17-4.43,4.09-6.13,6.61c-0.04,0.06-0.12,0.1-0.24,0.19c-0.22-0.08-0.51-0.13-0.72-0.27c-0.52-0.35-0.55-0.66-0.17-1.2 c0.56-0.81,1.12-1.63,1.72-2.42c1.34-1.74,2.7-3.47,4.07-5.19c1.18-1.49,2.37-2.97,3.55-4.47c1.08-1.36,2.06-2.81,3.22-4.09 c2.02-2.23,3.56-4.8,5.49-7.1c2.4-2.86,4.7-5.81,6.96-8.79c0.82-1.08,1.89-2.03,2.37-3.7c-0.71,0.52-1.24,0.87-1.73,1.27 c-1.6,1.28-3.18,2.59-4.76,3.88c-1.56,1.28-3.14,2.55-4.68,3.85c-0.5,0.42-0.89,0.99-1.39,1.41c-0.42,0.35-1.05,0.27-1.38-0.09 c-0.36-0.39-0.22-0.69,0.06-1.14c1.19-1.92,2.28-3.9,3.43-5.84c0.93-1.57,1.92-3.11,2.86-4.67c0.45-0.74,0.8-1.54,1.26-2.27 c0.47-0.76,1-1.47,1.56-2.28c-0.18-0.18-0.33-0.48-0.55-0.53c-2.16-0.52-4.1-1.62-6.08-2.54c-1.79-0.83-3.58-1.84-4.97-3.35 c-0.08-0.09-0.18-0.16-0.27-0.23c-1.45-1.1-2.94-2.15-4.33-3.32c-0.64-0.53-1.2-1.08-2.01-1.41c-0.7-0.29-0.51-1.65,0.24-1.94 c1.29-0.5,2.6-0.95,3.91-1.39c1-0.34,1.23-0.59,1.33-1.7c0.11-1.15,0.15-2.29-0.3-3.38c-0.17-0.41,0.07-0.67,0.38-0.9 c0.37-0.27,0.69-0.19,0.93,0.16c0.41,0.6,1.08,0.78,1.68,1.07c1,0.49,2.03,0.91,2.96,1.51c0.92,0.59,1.73,1.35,2.6,2.03 c0.27,0.21,0.58,0.38,1.01,0.67c0.11-0.6,0.2-1.05,0.28-1.5c0.05,0,0.09,0,0.14,0c0.05,0.24,0.1,0.48,0.18,0.9 c0.14-0.42,0.31-0.69,0.32-0.97c0.03-1.11-0.05-2.22,0.01-3.33c0.07-1.31,0.24-2.61,0.38-3.91c0.16-1.62,0.34-3.24,0.49-4.86 c0.07-0.74,0.13-1.47,0.17-2.21c0.08-1.46,0.14-2.93,0.21-4.39c0.14-2.58,0.29-5.16,0.42-7.75c0.13-2.7,0.23-5.39,0.33-8.09 c0.07-1.75,0.23-3.51,0.14-5.25c-0.1-1.96,0.14-3.87,0.38-5.8c0.07-0.58-0.02-1.17,0.01-1.76c0.1-1.98,0.2-3.96,0.36-5.94 c0.04-0.44,0.33-0.87,0.53-1.37c1.7,0.2,3.33,0.44,4.98,0.56c0.83,0.06,1.68-0.12,2.55-0.19c0.78,0.45,1.05,1.02,0.59,1.95 c-0.25,0.5-0.25,1.16-0.22,1.74c0.16,2.94-0.42,5.81-0.71,8.7c-0.21,2.01-0.43,4.03-0.56,6.05c-0.18,2.73-0.3,5.46-0.4,8.19 c-0.04,0.98,0.14,1.96,0.08,2.94c-0.09,1.69-0.28,3.38-0.42,5.07c-0.08,0.91-0.09,1.83-0.22,2.73c-0.43,2.85-0.11,5.73-0.46,8.6 c-0.23,1.85,0.13,3.76,0.19,5.65c0.05,1.63,0.11,3.27,0.05,4.9c-0.05,1.3,0.07,2.61-0.36,3.91c-0.18,0.53,0.04,1.2,0.67,1.73 c2.19,1.87,4.82,2.89,7.39,4.04c2.27,1.02,4.56,1.97,7.03,3.03c0.21-1.26,0.43-2.36,0.56-3.48c0.25-2.25,0.45-4.5,0.64-6.76 c0.22-2.68,0.43-5.37,0.62-8.05c0.2-2.81,0.38-5.63,0.56-8.45c0.19-3.01,0.33-6.02,0.56-9.02c0.14-1.82,0.42-3.63,0.6-5.44 c0.25-2.57,0.47-5.14,0.7-7.71c0.09-0.95,0.2-1.9,0.26-2.86c0.18-2.61,0.28-5.23,0.51-7.83c0.29-3.36,0.69-6.72,1.01-10.08 c0.14-1.46,0.18-2.93,0.29-4.39c0.11-1.46,0.23-2.91,0.42-4.36c0.18-1.34,0.1-2.67-0.03-4.01c-0.11-1.17,0.15-2.32,0.19-3.49 c0.03-0.78,0.24-1.58-0.11-2.34c-0.16-0.36-0.36-0.61-0.83-0.44c-1.38,0.48-2.77,0.93-4.14,1.42c-1.18,0.43-2.33,0.92-3.5,1.35 c-1.52,0.56-3.04,1.08-4.56,1.63c-2.15,0.77-4.28,1.6-6.34,2.6c-1.6,0.78-3.3,1.36-4.91,2.1c-1,0.46-1.99,1-2.88,1.65 c-0.98,0.72-2.03,1.3-3.1,1.85c-0.63,0.32-1.15,0.83-1.74,1.23c-1.22,0.81-2.47,1.58-3.68,2.42c-0.68,0.47-1.31,1.03-1.95,1.55 c-1.28,1.04-2.55,2.1-3.83,3.13c-1.04,0.84-2.11,1.65-2.92,2.28c-0.14,1.88-0.27,3.41-0.37,4.95c-0.03,0.51,0.02,1.02-0.01,1.53 c-0.06,1.11-0.14,2.22-0.24,3.33c-0.19,2.18-0.16,4.35-0.04,6.53c0.06,1.01,0.1,2.06-0.06,3.05c-0.34,2.04-0.34,4.08-0.36,6.13 c-0.02,1.58-0.29,3.15-0.39,4.72c-0.06,1.03,0,2.07-0.03,3.1c-0.02,0.9-0.08,1.81-0.12,2.62c-0.59,0.91-1.43,0.76-2.26,0.66 c-0.69-0.08-1.38-0.17-2.07-0.21c-0.72-0.05-0.93-0.21-1.02-0.87c-0.1-0.66-0.22-1.32-0.31-1.98c-0.1-0.66-0.18-1.32-0.11-2.01 c0.12,0.46,0.24,0.91,0.36,1.37c0.62-0.6,0.6-1.25,0.42-1.87c-0.25-0.82-0.29-1.61-0.15-2.46c0.12-0.74,0.01-1.51,0-2.27 c-0.01-0.67-0.07-1.35-0.01-2.01c0.14-1.5-0.18-2.97-0.25-4.45c-0.01-0.2,0-0.39,0.03-0.59c0.28-1.77,0.11-3.54,0.02-5.32 c-0.09-1.85,0.06-3.72,0.12-5.58c0.01-0.41,0.07-0.82,0.11-1.3c-0.65,0.26-1.26,0.33-1.61,0.68c-0.44,0.43-0.89,0.3-1.14,0.09 c-1.17-1.03-2.59-1.44-4.03-1.84c-0.69-0.19-1.34-0.78-2.1-0.24c-0.56,0.4-1.32,0.31-1.82,0.95c-0.26,0.33-0.96,0.4-1.46,0.42 c-0.49,0.01-1.1,0.31-1.49-0.38c-0.15-0.27-0.56-0.39-0.87-0.56c-0.77-0.41-1.01-1.27-1.57-1.86c-1.15-1.2-2.3-2.32-3.87-2.99 c-0.76-0.32-1.39-1.01-2-1.61c-0.64-0.62-0.46-1.52,0.3-2.01c0.36-0.23,0.69-0.52,1-0.81c0.46-0.44,0.9-0.89,1.32-1.36 c0.33-0.37,0.58-0.82,0.94-1.17c0.7-0.69,1.43-1.36,2.18-2c1.4-1.21,2.82-2.41,4.23-3.6c1.24-1.04,2.38-2.24,3.76-3.06 c1.06-0.63,2.06-1.33,3.07-2.03c1.25-0.88,2.48-1.79,3.75-2.66c0.55-0.38,1.15-0.67,1.73-1c1.09-0.63,2.2-1.23,3.27-1.91 c0.19-0.12,0.32-0.57,0.26-0.8c-0.21-0.71-0.49-1.4-0.81-2.06c-0.7-1.46-1.41-2.92-2.16-4.36c-1.31-2.49-2.68-4.94-4-7.43 c-0.67-1.26-1.27-2.56-1.92-3.84c-0.3-0.59-0.63-1.17-0.94-1.75c0.28-0.41,0.5-0.72,0.7-1.01c0.66,0.02,1.05,0.37,1.4,0.84 c1.05,1.41,2.26,2.66,3.64,3.75c0.75,0.59,1.43,1.27,2.15,1.9c0.31,0.27,0.65,0.53,0.97,0.79c0.07-0.06,0.13-0.13,0.2-0.19 c-0.61-0.85-1.22-1.7-1.85-2.54c-1.37-1.84-2.76-3.68-4.14-5.52c-0.9-1.19-1.79-2.39-2.7-3.58c-1.43-1.85-2.87-3.69-4.31-5.53 c-0.27-0.34-0.6-0.63-0.85-0.98c-0.8-1.12-1.69-2.2-2.34-3.4c-0.5-0.93-1.41-1.49-1.87-2.42c-0.15-0.31-0.42-0.57-0.63-0.86 c-0.83-1.19-1.71-2.32-2.74-3.35c-0.83-0.84-1.55-1.8-2.34-2.68c-0.29-0.32-0.64-0.59-0.97-0.88c-0.64-0.55-0.81-0.94-0.57-1.41 c0.31-0.6,0.84-0.24,1.06-0.27c0.86,0.84,1.58,1.61,2.36,2.32c3.16,2.86,6.38,5.65,9.5,8.56c2.7,2.52,5.22,5.22,7.94,7.71 c1.67,1.53,3.21,3.17,4.79,4.78c0.96,0.98,2.04,1.91,3.21,2.63c2.03,1.25,3.73,2.84,5.37,4.52c1.41,1.44,2.89,2.83,4.34,4.23 c0.14,0.13,0.3,0.24,0.63,0.26c-0.07-0.22-0.1-0.47-0.23-0.65c-0.9-1.16-1.86-2.29-2.74-3.46c-0.84-1.11-1.59-2.28-2.42-3.4 c-0.37-0.51-0.2-0.91,0.18-1.24c0.43-0.38,0.79-0.31,1.21,0.22c1.35,1.7,3.18,2.87,4.77,4.31c1.03,0.93,2.14,1.77,3.22,2.64 c0.14,0.11,0.32,0.17,0.54,0.28c-0.34-1.26-5.74-9.25-9.77-13.75c0.06-0.19,0.11-0.43,0.22-0.63c0.28-0.53,0.58-0.6,1.04-0.21 c0.57,0.49,1.07,1.05,1.63,1.54c1.2,1.05,2.43,2.06,3.64,3.1c1.42,1.22,2.82,2.45,4.24,3.66c0.24,0.2,0.51,0.36,0.97,0.68 c-0.12-0.4-0.13-0.62-0.24-0.78c-1.05-1.44-2.11-2.86-3.19-4.28c-0.16-0.21-0.45-0.32-0.61-0.53c-1.08-1.4-2.15-2.81-3.22-4.22 c-0.73-0.94-1.47-1.87-2.2-2.81c-0.83-1.06-1.65-2.14-2.49-3.19c-2.17-2.74-4.35-5.46-6.51-8.2c-0.25-0.31-0.43-0.67-0.66-0.99 c-0.98-1.39-1.86-2.86-2.98-4.12c-1.15-1.28-2.15-2.65-3.11-4.06c-0.4-0.58-1.05-0.98-1.5-1.53c-0.77-0.95-1.45-1.97-2.21-2.93 c-0.49-0.62-1.08-1.16-1.58-1.78c-0.56-0.69-0.46-0.97,0.44-1.57c0.82,0.79,1.64,1.59,2.48,2.37c1.71,1.59,3.46,3.15,5.16,4.76 c1.82,1.72,3.61,3.47,5.42,5.2c0.28,0.27,0.53,0.63,0.87,0.8c1.85,0.87,2.81,2.66,4.2,4c1.29,1.24,2.52,2.55,3.8,3.8 c1.5,1.46,3.02,2.9,4.55,4.34c0.99,0.92,2,1.82,3.01,2.72c2.28,2.04,4.59,4.05,6.84,6.13c3.79,3.51,7.49,7.12,11.04,10.87 c0.15,0.16,0.34,0.29,0.63,0.33c-0.57-0.81-1.23-1.58-1.7-2.45c-0.67-1.23-1.68-2.22-2.21-3.56c-0.37-0.96-1.2-1.75-1.84-2.59 c-1.63-2.15-3.26-4.29-4.9-6.43c-0.41-0.53-0.85-1.03-1.3-1.56c0.27-0.4,0.48-0.72,0.74-1.11c5.55,4.69,11.08,9.36,16.61,14.03 c0.06-0.05,0.13-0.1,0.19-0.15c-0.09-0.23-0.13-0.5-0.27-0.69c-2-2.65-4.04-5.29-6.03-7.95c-1.64-2.19-3.24-4.42-4.88-6.61 c-0.38-0.5-0.86-0.93-1.26-1.41c-1.11-1.34-2.26-2.66-3.28-4.06c-1.54-2.1-3.21-4.07-5.04-5.91c-0.4-0.4-0.42-0.82-0.04-1.24 c0.39-0.42,0.75-0.39,1.23,0.06c0.78,0.74,1.52,1.51,2.36,2.17c1.87,1.46,3.81,2.83,5.67,4.31c1.18,0.94,2.29,1.98,3.41,2.99 c2.04,1.84,4.07,3.69,6.11,5.52c0.2,0.18,0.48,0.28,0.88,0.31c-0.31-0.49-0.52-1.15-0.96-1.45c-1.38-0.95-2.32-2.32-3.44-3.51 c-1.91-2.03-3.8-4.1-5.68-6.15c-0.51-0.55-0.97-1.15-1.46-1.71c-0.94-1.06-1.88-2.12-2.83-3.16c-1.39-1.51-2.85-2.93-4.08-4.6 c-0.9-1.23-2.12-2.23-3.19-3.33c-0.41-0.42-0.83-0.84-1.23-1.27c-1.67-1.86-3.28-3.78-5.03-5.57c-1.28-1.31-2.47-2.68-3.67-4.05 c-0.74-0.85-1.63-1.58-2.51-2.29c-0.78-0.63-0.85-1-0.09-1.67c0.08-0.07,0.21-0.1,0.38-0.18c0.19,0.16,0.42,0.32,0.6,0.52 c1.47,1.51,3.19,2.72,4.86,3.99c1.29,0.98,2.54,2.01,3.82,3c0.37,0.29,0.8,0.51,1.15,0.82c2.08,1.77,4.28,3.43,6.19,5.38 c2.49,2.56,5.24,4.83,7.82,7.29c2.88,2.73,5.92,5.28,8.89,7.91c1.41,1.25,2.82,2.52,4.24,3.77c0.32,0.28,0.71,0.5,1.04,0.78 c1.45,1.21,2.89,2.43,4.33,3.66c0.48,0.41,0.92,0.87,1.4,1.27c2.46,2.07,4.92,4.12,7.38,6.19c0.93,0.78,1.88,1.55,2.79,2.36 c1.33,1.19,2.62,2.43,3.95,3.62c1.19,1.05,2.44,2.03,3.61,3.1c0.84,0.77,1.54,1.67,2.36,2.46c1.45,1.4,2.95,2.74,4.42,4.12 c0.52,0.49,0.99,1.04,1.51,1.53c0.46,0.43,0.98,0.78,1.42,1.22c0.58,0.58,1.23,1.14,1.61,1.84c0.27,0.49,0.57,0.81,1.03,1.08 c2.89,1.73,5.92,3.25,8.29,5.75c1.14,1.2,2.46,2.23,3.64,3.39c1.55,1.53,3.08,3.07,4.54,4.68c1.16,1.28,2.21,2.67,3.32,4.01 c0.22,0.27,0.5,0.49,0.76,0.75c1.36-1.15,2.63-2.29,3.96-3.34c0.64-0.5,1.44-0.79,2.13-1.25c0.49-0.32,0.98-0.7,1.35-1.15 c0.89-1.08,1.86-1.98,3.16-2.61c1.05-0.51,1.93-1.38,2.89-2.08c0.37-0.27,0.76-0.54,1.15-0.79c0.3-0.2,0.65-0.33,0.91-0.57 c0.92-0.85,1.99-1.41,3.14-1.88c0.4-0.16,0.74-0.45,1.22-0.75c-0.53-0.62-1.04-1.21-1.54-1.8c-1.63-1.95-3.24-3.92-4.88-5.86 c-0.71-0.85-1.48-1.65-2.21-2.49c-1.6-1.87-3.22-3.72-4.78-5.62c-1.13-1.37-2.14-2.84-3.27-4.22c-0.72-0.88-1.57-1.66-2.33-2.51 c-0.92-1.04-1.81-2.11-2.7-3.17c-1.16-1.39-2.27-2.83-3.49-4.16c-1.23-1.34-2.59-2.56-3.85-3.87c-0.8-0.83-1.51-1.74-2.28-2.59 c-1.45-1.62-2.9-3.23-4.38-4.82c-0.56-0.61-0.61-0.97-0.02-2.01c0.29,0.13,0.65,0.19,0.88,0.4c1.92,1.76,3.81,3.55,5.73,5.31 c1.55,1.42,3.12,2.82,4.7,4.21c0.57,0.5,1.22,0.9,1.76,1.42c1.62,1.52,3.19,3.08,4.8,4.61c1.49,1.42,3.03,2.78,4.48,4.23 c1.85,1.85,3.64,3.75,5.43,5.66c2.07,2.21,4.36,4.15,6.74,6.02c2.41,1.89,4.67,3.95,6.97,5.97c1.55,1.36,3.06,2.77,4.66,4.1 c-0.83-1.68-2.05-3.07-3.22-4.51c-1.16-1.43-2.32-2.86-3.46-4.27c0.31-0.42,0.56-0.76,0.86-1.18c0.29,0.16,0.62,0.28,0.89,0.49 c1.04,0.79,2.07,1.6,3.1,2.41c1.43,1.13,2.83,2.29,4.26,3.41c1.19,0.93,2.4,1.84,3.62,2.73c0.24,0.18,0.56,0.26,1.1,0.5 c-0.38-0.63-0.61-1.06-0.88-1.46c-0.75-1.1-1.49-2.21-2.29-3.27c-1-1.33-2.08-2.59-3.08-3.92c-1.17-1.55-2.28-3.15-3.43-4.71 c-0.82-1.12-1.65-2.22-2.54-3.43c0.23-0.35,0.48-0.73,0.76-1.15c6.08,4.52,12.07,8.97,18.05,13.42c0.05-0.05,0.1-0.1,0.14-0.15 c-0.57-0.74-1.11-1.51-1.7-2.23c-3.03-3.67-6.07-7.34-9.1-11.01c-1.54-1.86-3.05-3.75-4.63-5.56c-0.88-1.01-1.91-1.88-2.85-2.84 c-0.58-0.59-1.12-1.23-1.69-1.84c-0.73-0.78-1.42-1.6-2.2-2.31c-1.45-1.31-2.69-2.8-3.94-4.3c-0.78-0.94-1.66-1.8-2.5-2.68 c-1.81-1.88-3.65-3.73-5.44-5.64c-0.73-0.78-1.33-1.69-2.05-2.49c-0.62-0.7-1.31-1.34-1.98-1.99c-0.75-0.72-1.53-1.41-1.51-2.64 c0.28-0.17,0.57-0.35,0.78-0.47c1.42,1.15,2.74,2.26,4.1,3.31c1.1,0.85,2.27,1.61,3.38,2.45c1.97,1.48,3.92,2.98,5.87,4.5 c2.72,2.12,5.07,4.67,7.87,6.72c1.34,0.98,2.46,2.26,3.68,3.4c1.54,1.44,3.11,2.85,4.63,4.3c1.63,1.56,3.22,3.16,4.84,4.72 c0.74,0.71,1.55,1.35,2.29,2.05c0.52,0.49,0.96,1.05,1.48,1.54c1.99,1.88,3.96,3.8,6.02,5.6c1.28,1.12,2.71,2.05,4.23,2.95 c-0.47-0.63-0.92-1.27-1.41-1.88c-0.97-1.21-1.97-2.39-2.93-3.6c-1.43-1.8-2.77-3.67-4.26-5.41c-1.46-1.71-2.82-3.5-4.15-5.31 c-1.67-2.26-3.55-4.38-5.38-6.52c-0.38-0.44-0.48-0.75-0.14-1.25c0.29-0.42,0.59-0.5,0.99-0.21c0.19,0.14,0.39,0.28,0.57,0.44 c1.6,1.42,3.23,2.82,4.8,4.27c1.34,1.23,2.62,2.51,3.93,3.77c1.6,1.54,3.21,3.05,4.78,4.61c0.88,0.87,1.66,1.83,2.53,2.7 c1.03,1.03,2.1,2.01,3.16,3.01c0.09-0.08,0.17-0.16,0.26-0.24c-0.51-0.6-1.02-1.2-1.53-1.81c-1.12-1.34-2.24-2.68-3.36-4.03 c-1.08-1.31-1.98-2.77-3.29-3.91c-0.74-0.64-1.28-1.51-1.93-2.26c-0.84-0.99-1.72-1.94-2.55-2.94c-1.31-1.58-2.6-3.19-3.9-4.78 c-1.33-1.62-2.66-3.24-4.01-4.85c-0.46-0.55-1-1.02-1.45-1.57c-0.68-0.82-1.26-1.71-1.97-2.5c-1.2-1.33-1.97-3-3.39-4.18 c-0.75-0.63-1.3-1.49-1.95-2.24c-0.6-0.69-1.22-1.37-1.83-2.05c-0.6-0.66-0.6-0.77,0.09-1.63c0.88,0.2,1.47,0.89,2.09,1.46 c1.81,1.65,3.51,3.43,5.33,5.07c1.56,1.41,3.24,2.69,4.84,4.06c1.8,1.54,3.57,3.12,5.34,4.69c1.22,1.07,2.46,2.13,3.65,3.23 c1.4,1.29,2.77,2.61,4.13,3.94c1.16,1.13,2.26,2.32,3.42,3.44c1.31,1.26,2.66,2.48,3.99,3.73c0.61,0.57,1.18,1.18,1.78,1.76 c1.51,1.46,3.01,2.93,4.56,4.35c0.91,0.83,1.93,1.54,2.86,2.35c1.41,1.22,2.78,2.48,4.17,3.72c0.27,0.24,0.54,0.46,1.03,0.87 c-0.15-0.44-0.18-0.66-0.29-0.81c-0.88-1.13-1.77-2.26-2.69-3.36c-1.65-1.98-3.32-3.93-4.97-5.91c-1.89-2.28-3.77-4.58-5.64-6.88 c-0.22-0.27-0.53-0.6-0.52-0.89c0.02-0.34,0.29-0.88,0.55-0.94c0.35-0.08,0.94,0.09,1.16,0.36c1.67,2.15,3.89,3.69,5.95,5.41 c1.67,1.38,3.33,2.78,4.93,4.23c1.74,1.57,3.42,3.2,5.11,4.83c0.83,0.8,1.6,1.67,2.42,2.48c0.38,0.38,0.81,0.7,1.22,1.04 c0.07-0.06,0.14-0.12,0.2-0.18c-0.67-0.86-1.35-1.71-1.99-2.58c-1.01-1.37-2.12-2.65-3.01-4.12c-0.79-1.3-1.77-2.48-2.72-3.66 c-1.01-1.26-2.08-2.47-3.13-3.7c-1.36-1.6-2.72-3.2-4.1-4.78c-0.28-0.32-0.67-0.54-1.1-0.87c-0.01-0.14-0.08-0.39-0.02-0.6 c0.1-0.31,0.24-0.76,0.47-0.84c0.26-0.09,0.7,0.09,0.95,0.29c1.17,0.96,2.29,1.97,3.43,2.96c0.17,0.14,0.35,0.27,0.71,0.54 c-0.27-1.02-0.99-1.46-1.49-1.99c-1.22-1.31-2.56-2.51-3.85-3.75c-1.93-1.87-3.85-3.74-5.79-5.6c-0.79-0.76-1.57-1.53-2.42-2.21 c-0.5-0.4-0.68-0.82-0.68-1.42c0-0.34-0.06-0.75-0.26-1c-0.65-0.8-1.39-1.52-2.06-2.29c-0.87-1.01-1.72-2.04-2.61-3.11 c0.34-0.37,0.6-0.66,0.94-1.04c0.31,0.26,0.57,0.47,0.82,0.7c0.92,0.86,1.8,1.76,2.75,2.59c1.77,1.54,3.57,3.04,5.36,4.55 c2.03,1.7,4.09,3.35,6.09,5.07c2.64,2.28,5.25,4.6,7.84,6.94c1.02,0.92,1.91,1.98,2.9,2.94c1.42,1.39,2.87,2.73,4.3,4.11 c1.13,1.09,2.22,2.22,3.35,3.31c0.88,0.85,1.82,1.64,2.69,2.5c1.05,1.03,2.05,2.11,3.1,3.14c1.35,1.34,2.73,2.65,4.08,3.99 c0.73,0.72,1.42,1.49,2.14,2.22c0.41,0.42,0.85,0.83,1.27,1.24c0.91,0.87,1.84,1.74,2.74,2.63c0.31,0.31,0.5,0.72,0.81,1.03 c1.27,1.29,2.59,2.54,3.85,3.85c1.62,1.68,3.19,3.4,4.8,5.09c0.52,0.54,1.08,1.04,1.63,1.55c0.23,0.21,0.48,0.4,0.68,0.64 c0.86,0.98,1.59,2.1,2.58,2.92c1.21,1.01,2.24,2.2,3.45,3.21c0.6,0.5,1.15,1.18,1.27,2.06c0.02,0.18,0.1,0.39,0.23,0.52 c1.29,1.22,2.41,2.6,3.97,3.55c1.02,0.62,1.83,1.6,2.71,2.45c1.68,1.61,3.4,3.17,4.99,4.87c1.04,1.11,2.3,1.92,3.45,2.86 c1.32,1.09,2.62,2.19,4.01,3.35c1.52-1.14,3.01-2.29,4.54-3.39c0.84-0.6,1.74-0.93,2.88-0.72c0.98,0.18,2.03-0.04,3.05-0.1 c0.69-0.04,1.32,0.04,1.96,0.35c0.6,0.29,1.3,0.38,1.92,0.63c0.73,0.29,1.43,0.66,2.12,1.02c1.15,0.6,2.3,1.23,3.44,1.86 c0.41,0.23,0.82,0.47,1.21,0.7c1.77-1.07,3.53-2.14,5.3-3.19c1.46-0.87,2.92-1.72,4.38-2.58c0.41-0.24,0.79-0.52,1.19-0.78 c1.46-0.95,2.93-1.89,4.39-2.84c0.66-0.43,1.33-0.84,1.99-1.28c0.63-0.42,1.19-0.95,1.85-1.3c2.09-1.09,3.89-2.61,5.84-3.9 c1.39-0.91,2.77-1.82,4.16-2.74c2.07-1.36,4.14-2.72,6.2-4.1c1.51-1.01,2.99-2.06,4.48-3.1c2.7-1.89,5.38-3.8,8.08-5.69 c1.3-0.91,2.64-1.77,3.96-2.64c2.68-1.78,5.37-3.54,8.04-5.32c1.56-1.05,3.11-2.11,4.65-3.2c1.21-0.85,2.59-0.89,3.97-0.92 c1.83-0.04,3.66-0.02,5.48-0.01c0.47,0,0.94,0.08,1.4,0.09c3.41,0.11,6.82,0.3,10.24,0.06c2.06-0.14,4.14-0.03,6.21-0.06 c0.75-0.01,1.5-0.12,2.26-0.15c2.47-0.09,4.94-0.27,7.4-0.21c2.94,0.07,5.84-0.29,8.76-0.45c1.45-0.08,2.91-0.01,4.36-0.08 c1.23-0.06,2.46-0.25,3.69-0.33c1.94-0.12,3.88-0.21,5.81-0.26c2.93-0.08,5.87-0.15,8.81-0.15c2.45,0,4.89,0.15,7.34,0.13 c2.22-0.02,4.45-0.27,6.67-0.27c0.87,0,1.84,0.21,2.58,0.64c1.47,0.85,2.83,1.9,4.22,2.89c2.01,1.43,3.93,2.99,5.96,4.38 c3.12,2.14,6.25,4.26,9.38,6.38c2.33,1.58,4.69,3.11,7,4.72c1.22,0.85,2.43,1.69,3.77,2.38c0.99,0.51,1.76,1.43,2.69,2.06 c3.73,2.51,7.49,4.98,11.25,7.45c0.28,0.19,0.66,0.37,0.97,0.34c1.58-0.15,3.15-0.38,4.72-0.57c0.59-0.07,1.19-0.15,1.78-0.13 c0.97,0.04,1.34,0.58,1.17,1.57c-0.04,0.23-0.12,0.55-0.01,0.69c0.61,0.79,0.34,1.66,0.2,2.61c0.99,0.05,1.92,0.14,2.84,0.13 c1.82-0.03,3.64-0.12,5.47-0.2c2.26-0.09,4.53-0.13,6.79-0.29c3.69-0.26,7.38-0.6,11.07-0.88c0.54-0.04,1.09,0.08,1.64,0.12 c1.14,0.08,2.12,0.05,3.03-0.99c0.96-1.1,2.25-1.92,3.44-2.8c0.25-0.19,0.7-0.23,1.02-0.17c1.5,0.29,2.99,0.33,4.48-0.03 c0.23-0.06,0.49-0.09,0.71-0.03c1.14,0.29,2.28,0.03,3.42,0.04c2.28,0.02,4.57-0.39,6.83,0.22c0.44,0.12,0.95-0.05,1.43-0.03 c2.06,0.07,4.11,0.17,6.16,0.25c2.24,0.09,4.5,0.35,6.73,0.22c2.09-0.12,4.18,0.29,6.26-0.15c0.29-0.06,0.62,0.08,0.93,0.06 c0.85-0.04,0.95-0.21,0.75-1.2c0.24-0.06,0.48-0.11,0.86-0.2c0,0.28,0.02,0.47-0.01,0.65c-0.02,0.15-0.08,0.29-0.16,0.54 c0.32,0,0.56,0,0.8,0c1.39,1.01,0.65,2.47,0.68,3.79c0.02,0.91,0.05,1.82,0.1,2.73c0.02,0.42,0.29,0.66,0.71,0.66 c0.91,0.01,1.82,0.04,2.73-0.02c0.61-0.05,1.17-0.16,1.67,0.35c0.17,0.17,0.49,0.25,0.76,0.27c3.25,0.28,6.51,0.52,9.76,0.81 c1.46,0.13,2.91,0.48,4.38,0.54c2.41,0.11,4.69,0.83,7.03,1.28c2.66,0.51,5.33,0.93,7.98,1.43c0.97,0.18,1.93,0.47,2.88,0.73 c2.05,0.56,4.11,1.12,6.15,1.72c1.86,0.55,3.68,1.19,5.54,1.75c1.98,0.59,3.99,1.1,5.97,1.71c1.06,0.33,2.07,0.82,3.12,1.2 c0.52,0.19,1.07,0.31,1.61,0.4c0.65,0.12,1.15,0.48,1.34,1.06c0.11,0.34-0.09,0.79-0.13,1.02c-1.72,0.33-3.27,0.63-4.68,0.91 c-0.63,1.29-1.19,2.37-1.68,3.48c-0.2,0.45-0.25,0.97-0.38,1.45c-0.06,0.22-0.14,0.45-0.24,0.65c-0.83,1.58-1.04,3.33-1.41,5.04 c-0.14,0.65-0.03,1.35-0.02,2.02c0.01,1.17,0.01,2.34,0.03,3.52c0.01,0.63-0.15,1.12-0.57,1.66c0.05,0.06,0.08,0.17,0.14,0.18 c0.88,0.18,1.76,0.37,2.65,0.52c0.35,0.06,0.81,0.16,1.06,0c0.9-0.61,1.56,0.15,2.31,0.31c0.45,0.1,0.86,0.37,1.3,0.48 c0.85,0.22,1.6,0.52,1.84,1.57c-0.29,0.44-0.45,1.1-1.34,0.86c-0.2-0.05-0.5,0.33-0.76,0.49c-1.26,0.8-2.65,1.4-3.74,2.47 c-0.15,0.15-0.51,0.26-0.69,0.19c-1.49-0.56-3.01-0.37-4.5-0.16c-0.73,0.1-1.43,0.19-2.16,0.09c-0.38-0.05-1.99,0.2-2.36,0.36 c-0.01-0.54-0.33-0.75-0.76-0.5c-0.49,0.29-0.91,0.72-1.42,1.13c0.38,0.63,0.37,1.24-0.16,1.81c-0.12,0.13-0.21,0.35-0.21,0.53 c-0.04,1.37-0.04,1.37-0.91,2.01c0.17,0.44,0.33,0.88,0.5,1.33c-1.04,0.1-1.03,0.13-1.31,1.03c-0.18,0.6-0.47,1.17-0.7,1.75 c-0.28,0.7-0.64,1.37-0.82,2.09c-0.28,1.13-1,1.8-2.1,1.78c-1.65-0.02-3.3,0-4.95-0.05c-1.58-0.05-3.16-0.15-4.74-0.23 c-0.16-0.01-0.33-0.08-0.47-0.04c-1.38,0.41-2.76,0.13-4.13,0c-1.64-0.15-3.27-0.1-4.89,0.09c-0.08,0.01-0.17,0.07-0.23,0.04 c-0.75-0.36-1.36,0-1.89,0.35c-0.46-0.21-0.85-0.55-1.21-0.53c-0.84,0.05-0.84,0.13-1.6-0.06c0.01-0.08,0.01-0.22,0.03-0.22 c0.85-0.1,1.24-0.71,1.76-1.31c0.73-0.84,1.07-1.83,1.53-2.76c0.33-0.66,0.23-1.56,0.23-2.35c0.01-2.6-0.03-5.19-0.01-7.79 c0.01-0.73-0.26-1.26-0.86-1.59c-1.12-0.61-1.83-1.59-2.63-2.54c-1.37-1.62-2.32-3.47-3.27-5.32c-0.55-1.06-1.44-1.79-2.19-2.65 c-0.52-0.6-1.17-1.08-1.68-1.69c-1.41-1.7-3.3-2.43-5.4-2.74c-0.79-0.12-1.06-0.58-0.79-1.43c-1.74,0.15-2.78-1.27-4.23-1.81 c-1.3-0.48-2.54-1.09-3.95-1.3c-1.44-0.22-2.84-0.73-4.27-1.09c-0.53-0.13-1.08-0.23-1.63-0.28c-2.16-0.22-4.18,0.29-6.14,1.16 c-0.85,0.37-1.76,0.45-2.67,0.43c-1.33-0.03-2.59,0.17-3.85,0.66c-1.55,0.61-3.2,0.96-4.75,1.58c-2.07,0.82-3.73,2.28-5.35,3.76 c-1,0.92-1.78,1.97-2.44,3.18c-0.51,0.95-1.42,1.7-2.23,2.46c-1.76,1.66-3.15,3.57-4.24,5.73c-0.74,1.48-1.46,2.96-2.55,4.29 c-1.76,2.14-2.24,4.63-0.97,7.26c0.8,1.66,0.93,3.46,0.98,5.24c0.03,1.24,0.5,2.2,1.18,3.17c0.88,1.25,1.74,2.51,2.52,3.83 c0.93,1.6,2.09,2.99,3.9,3.69c0.71,0.27,1.26,0.74,1.81,1.3c1.39,1.42,2.99,2.63,4.87,3.34c0.98,0.37,2.06,0.48,3.14,0.6 c-0.76-0.44-1.28-1.14-2.17-1.44c-1.08-0.37-2.12-0.94-3.06-1.58c-0.77-0.52-1.15-1.42-1.3-2.35c-0.29-1.8-1.02-3.39-2.08-4.87 c-0.95-1.32-1.89-2.68-2.58-4.14c-0.91-1.92-1.95-3.87-1.99-6.04c-0.06-2.46,0.08-4.93,0.26-7.38c0.07-0.88,0.49-1.74,0.78-2.59 c0.41-1.2,0.6-2.44,1.22-3.6c0.89-1.68,2.04-3.14,3.32-4.49c1.42-1.5,2.74-3.06,4.06-4.63c0.84-1,1.94-1.79,3.37-2.03 c1.32-0.22,2.62-0.66,3.9-1.08c1-0.33,1.94-0.94,2.96-1.15c1.94-0.41,3.89-0.8,5.91-0.75c2.07,0.05,4.13-0.01,6.18,0.43 c0.84,0.18,1.75,0.07,2.63,0.06c0.85-0.01,1.64,0.15,2.44,0.5c1.49,0.66,3.02,1.23,4.53,1.84c0.88,0.35,1.76,0.71,2.64,1.06 c1.7,0.69,2.96,1.91,4.21,3.22c1.47,1.55,3.12,2.92,4.69,4.38c0.23,0.21,0.5,0.43,0.62,0.7c0.64,1.44,1.24,2.89,1.85,4.34 c-0.03,0.02-0.07,0.03-0.1,0.05c-0.12,0.1-0.24,0.21-0.37,0.32c0.08,0.06,0.16,0.13,0.24,0.19c0.07-0.12,0.16-0.24,0.21-0.37 c0.03-0.06-0.01-0.15-0.02-0.23c0.98,2,1.41,4.14,1.44,6.35c0.03,2.67,0.09,5.34-0.33,8c-0.27,1.7-0.83,3.28-1.52,4.84 c-0.44,1-0.83,2.03-1.23,3.05c-0.52,1.31-1.24,2.51-2.09,3.64c-0.52,0.69-0.94,1.46-1.41,2.18c-0.13,0.2-0.26,0.39-0.42,0.56 c-0.7,0.74-1.45,1.44-2.11,2.21c-0.8,0.92-1.75,1.59-2.86,2.08c-0.61,0.26-1.16,0.66-1.73,0.99c-0.2-0.26-0.35-0.47-0.64-0.85 c-0.1,0.48-0.16,0.75-0.23,1.04c-0.59,0.21-1.22,0.4-1.82,0.67c-2.05,0.9-4.19,1.42-6.42,1.64c-0.65,0.06-1.27,0.32-1.91,0.47 c-0.26,0.06-0.54,0.13-0.8,0.12c-0.79-0.05-1.57-0.13-2.35-0.21c-1.97-0.2-3.96-0.33-5.91-0.65c-1.03-0.17-2-0.69-3.1-0.65 c-0.2,0.01-0.41-0.22-0.61-0.35c-0.54-0.37-1.08-0.75-1.75-1.21c-0.1,0.5-0.16,0.82-0.22,1.13c-0.98-0.14-1.9-0.23-2.8-0.4 c-0.91-0.18-1.87-0.32-2.7-0.71c-0.86-0.41-1.74-0.35-2.61-0.44c-1.48-0.15-2.78-0.73-4.14-1.29c-1.26-0.53-2.34-1.29-3.48-1.98 c-1.1-0.66-2.22-1.33-3.23-2.12c-0.8-0.62-1.51-1.39-2.16-2.17c-0.33-0.4-0.46-0.96-0.66-1.46c-0.07-0.17-0.08-0.37-0.15-0.55 c-0.49-1.27-0.98-2.54-1.47-3.81c-0.02-0.06-0.12-0.09-0.18-0.14c0.96-0.66-0.39-1.26-0.06-1.94c0.07-0.13-0.19-0.5-0.38-0.67 c-0.33-0.29-0.72-0.51-1.16-0.81c-1.15,2.27-2.07,4.67-2.41,7.34c-0.28,0.06-0.58,0.13-0.97,0.23c0.29,0.16,0.51,0.29,0.91,0.51 c-0.34,0.09-0.5,0.18-0.67,0.18c-9.63-0.01-19.25-0.02-28.88-0.06c-4.02-0.02-8.05-0.11-12.07-0.15c-0.72-0.01-1.49-0.18-2.08,0.53 c-0.16,0.19-0.61,0.22-0.91,0.18c-2.18-0.31-4.37-0.12-6.55-0.15c-2.06-0.03-4.12-0.07-6.18-0.07c-1.12,0-2.24,0.1-3.35,0.09 c-1.73-0.02-3.46-0.1-5.19-0.15c-1.54-0.04-3.08-0.06-4.61-0.1c-1.07-0.03-2.14-0.17-3.2-0.12c-1.33,0.06-2.66-0.13-4,0.01 c-1.01,0.1-2.05-0.17-3.07-0.24c-1.38-0.09-2.75-0.17-4.13-0.2c-1.77-0.04-3.55,0.03-5.32-0.03c-3.48-0.12-6.96-0.34-10.45-0.46 c-2.67-0.09-5.34-0.11-8.01-0.13c-2.17-0.01-4.34,0.04-6.51,0.05c-2.67,0.01-5.34,0.01-8.01-0.01c-1.51-0.01-3.01-0.12-4.51-0.12 c-0.94,0-1.88,0.14-2.82,0.2c-1.19,0.07-2.38,0.17-3.57,0.16c-1.54-0.02-3.08-0.19-4.62-0.21c-2.5-0.03-4.99,0.03-7.49,0 c-1.75-0.02-3.5-0.08-5.24-0.22c-1.38-0.11-2.75-0.08-4.12-0.1c-2.05-0.02-4.1-0.1-6.15-0.09c-0.86,0.01-1.71,0.21-2.57,0.29 c-1.26,0.11-2.53,0.28-3.78,0.25c-2.4-0.05-4.8-0.22-7.31-0.34c-0.76,1.63-1.54,3.42-2.59,5.04c-0.41,0.63-0.93,1.21-1.53,1.73 c-0.6,0.52-1.03,1.27-1.71,1.75c-0.9,0.64-1.8,1.29-2.75,1.87c-1.17,0.72-2.33,1.51-3.6,2.03c-1.07,0.44-2.26,0.6-3.42,0.79 c-1.56,0.25-3.12,0.45-4.7,0.57c-2.02,0.15-4.04,0.01-6.05-0.29c-1.01-0.15-2.06-0.06-3.08-0.16c-1.3-0.13-2.6-0.3-3.88-0.55 c-1.63-0.32-3.24-0.74-4.86-1.12c-1.78-0.42-3.54-0.86-5.19-1.7c-1.19-0.6-2.49-0.98-3.74-1.47c-0.15-0.06-0.36-0.11-0.41-0.22 c-0.32-0.78-1.16-0.94-1.68-1.47c-0.61-0.62-1.12-1.34-1.79-1.88c-1.6-1.31-2.2-3.22-3.14-4.93c-0.96-1.74-1.58-3.6-1.96-5.54 c-0.06-0.31-0.16-0.64-0.11-0.94c0.11-0.71-0.19-1.07-0.83-1.37c-0.93-0.43-1.79-1.01-2.68-1.51c-0.48-0.27-0.98-0.52-1.46-0.8 c-0.23-0.13-0.47-0.27-0.67-0.45c-1.92-1.69-4.1-3.06-5.97-4.83c-1.66-1.58-3.53-2.93-5.4-4.46c-1.53,0.76-2.44,2.36-3.73,3.54 c-1.3,1.19-2.4,2.6-3.61,3.94c0.26,0.21,0.54,0.43,0.95,0.75c-0.55,0.7-1.01,1.37-1.55,1.98c-2.86,3.23-5.62,6.54-8.12,10.08 c-1.76,2.48-3.77,4.78-5.63,7.2c-1.52,1.97-2.96,4-4.47,5.98c-2.03,2.68-4.11,5.32-6.12,8.01c-0.78,1.04-1.44,2.18-2.13,3.28 c-1.77,2.83-3.66,5.58-5.7,8.22c-1.12,1.45-2.26,2.88-3.35,4.36c-0.54,0.73-0.96,1.55-1.48,2.3c-1.09,1.56-2.22,3.08-3.32,4.64 c-1.64,2.33-3.27,4.67-4.88,7.02c-0.98,1.44-1.89,2.92-2.89,4.35c-0.68,0.97-1.46,1.85-2.18,2.79c-0.62,0.82-1.22,1.66-1.82,2.5 c-0.47,0.67-0.92,1.36-1.38,2.05c-0.72,0-1.44,0-2.16,0c1-1.33,1.99-2.67,2.99-4c1.28-1.71,2.6-3.4,3.83-5.15 c0.84-1.2,1.56-2.49,2.34-3.73c0.47-0.74,0.99-1.45,1.44-2.21c0.73-1.21,1.42-2.45,2.12-3.68c0.8-1.41,1.62-2.8,2.38-4.23 c0.73-1.36,1.37-2.77,2.11-4.12c0.37-0.69,0.86-1.32,1.33-1.95c1.25-1.66,1.83-3.7,3.16-5.34c0.83-1.01,1.31-2.31,1.94-3.48 c0.49-0.91,1-1.81,1.47-2.73c0.27-0.54,0.46-1.12,0.75-1.64c0.52-0.96,1.1-1.89,1.63-2.84c0.45-0.81,0.86-1.64,1.29-2.46 c-0.09-0.05-0.18-0.1-0.27-0.16c-2.51,3.3-4.85,6.72-7.12,10.18c-2.27,3.46-4.69,6.83-6.43,10.57c-0.34,0.09-0.65,0.16-0.95,0.24 c-1.08-0.78-1.13-1.12-0.29-2.15c0.12-0.15,0.26-0.3,0.36-0.47c0.86-1.34,1.71-2.68,2.57-4.01c1.27-1.97,2.5-3.96,3.47-6.1 c0.65-1.44,1.45-2.82,2.17-4.23c0.28-0.56,0.51-1.15,0.77-1.73c0.26-0.57,0.48-1.17,0.82-1.68c0.44-0.64,0.5-1.21-0.02-1.96 c-0.42,0.5-0.82,0.94-1.17,1.41c-0.79,1.04-1.54,2.1-2.32,3.14c-1.44,1.93-2.9,3.84-4.34,5.77c-0.76,1.02-1.48,2.06-2.22,3.08 c-0.34,0.46-1.07,0.6-1.45,0.29c-0.37-0.3-0.41-0.9-0.15-1.36c1.65-2.87,2.91-5.91,3.74-9.12c0.08-0.31,0.06-0.64,0.08-0.96 c-0.7,0.55-1.16,1.18-1.66,1.78c-1.41,1.72-2.89,3.38-4.23,5.15c-1.41,1.86-2.65,3.84-4.04,5.71c-2.22,2.99-4.56,5.87-6.92,8.75 c-1.48,1.81-2.96,3.62-4.43,5.43c-0.5,0.61-1,1.23-1.5,1.85c-1.94,2.39-3.9,4.75-5.81,7.17c-1.15,1.46-2.2,3-3.34,4.47 c-1.5,1.94-3.05,3.84-4.56,5.78c-0.14,0.18-0.12,0.49-0.18,0.74C196.47,228.98,195.43,228.98,194.39,228.98z M512.03,160.97c0.08-0.36,0.16-0.72,0.28-1.26c-0.77,0.43-0.91,0.8-0.41,1.29 c-0.19-0.05-0.39-0.1-0.58-0.14c0.13-0.43,0.19-0.84-0.39-1.05c-0.53,0.56-0.45,1.12-0.11,1.71c-0.47-0.45-1.31,0.08-1.68-0.64 c0.16-0.11,0.31-0.27,0.49-0.3c0.19-0.04,0.4,0.03,0.6,0.06c0.02-0.22,0.14-0.51,0.04-0.63c-0.14-0.18-0.43-0.27-0.68-0.31 c-0.17-0.03-0.38,0.07-0.55,0.16c-0.21,0.12-0.54,0.28-0.55,0.44c-0.03,0.4,0.23,0.65,0.68,0.55c-0.37,0.69-1.06,0.42-1.61,0.52 c-0.43,0.08-0.85,0.1-1.13,0.62c-0.04-0.6,0.16-0.87,0.66-0.89c0.45-0.02,0.8-0.17,0.99-0.63c-0.56-0.12-1.04-0.23-1.44-0.31 c-0.31,0.33-0.58,0.63-0.85,0.93l0.03,0.04c0.08-0.18,0.19-0.36,0.22-0.54c0.1-0.54-0.17-0.62-0.61-0.44l-0.03,0 c-0.68-0.48-1.14,0.26-1.66,0.24c-0.07,0.62-0.13,1.15-0.16,1.44c0.24,0.63,0.41,1.07,0.58,1.52c-0.35-0.83-0.35-0.83-1.28-0.72 c0.03,0.5,0.13,0.93,0.65,1.16c-0.39-0.01-0.68,0.09-0.65,0.63c0.57,0.02,0.8-0.14,0.58-0.68c0.24,0.31,0.48,0.62,0.7,0.9 c1.27,0.05,2.49,0.12,3.72,0.14c0.71,0.02,1.46-0.19,2.11,0c0.74,0.21,1.19-0.02,1.67-0.4c-0.05-0.6-0.4-0.5-0.78-0.45 c-0.7,0.09-1.4,0.14-2.11,0.19c-0.23,0.02-0.23-0.02-0.6-0.43l-0.04,0.04c1.08-0.4,2.31-0.44,3.12-1.38 c0.53,0.53,0.53,0.53,1.3,0.26c-0.12-0.47-0.24-0.96-0.36-1.45c0.56,0.41,0.73,0.1,0.84-0.44 C512.59,160.53,512.25,160.51,512.03,160.97z M215.28,83.17 c0.63,0.06,1.27,0.18,1.89,0.15c0.91-0.04,1.71,0.24,2.53,0.57c1.28,0.51,2.55,1.12,4.01,0.92c0.37-0.05,0.77,0.11,1.16,0.19 c0.43,0.09,0.85,0.19,1.28,0.29c0.85,0.19,1.7,0.37,2.54,0.57c0.95,0.22,1.73,0.95,2.82,0.85c1.45-0.13,2.87,0.07,4.06,1.06 c0.12,0.1,0.28,0.14,0.44,0.19c2.48,0.83,4.96,1.66,7.44,2.47c0.75,0.25,1.54,0.39,2.28,0.68c1.85,0.71,3.67,1.46,5.5,2.21 c0.29,0.12,0.57,0.3,0.78,0.53c1.19,1.28,2.69,1.9,4.35,2.32c1.11,0.28,2.3,0.64,2.98,1.6c1.08,1.53,2.42,2.58,4.19,3.14 c0.19,0.06,0.38,0.14,0.53,0.27c1.59,1.29,3.44,2.25,4.82,3.81c0.36,0.41,0.81,0.69,1.43,0.76c0.47,0.05,0.95,0.37,1.34,0.67 c1.29,1,2.55,2.03,3.79,3.07c0.48,0.4,0.91,0.87,1.35,1.32c0.58,0.6,1.06,1.34,1.74,1.78c1.27,0.85,2.66,1.53,3.98,2.27 c0.36-0.44,0.11-0.62-0.15-0.85c-0.71-0.62-1.46-1.22-2.06-1.94c-0.5-0.6-0.95-1.14-1.73-1.39c-0.69-0.22-1.31-0.56-1.5-1.39 c-0.05-0.21-0.38-0.37-0.59-0.53c-0.25-0.2-0.61-0.32-0.75-0.58c-0.62-1.15-1.7-1.75-2.75-2.38c-0.47-0.28-0.9-0.49-0.86-1.15 c0.01-0.13-0.17-0.32-0.31-0.42c-0.69-0.5-1.42-0.95-2.09-1.47c-0.49-0.38-1.01-0.79-1.36-1.29c-0.5-0.7-1.1-1.22-1.83-1.66 c-0.73-0.44-1.4-0.99-2.06-1.54c-0.61-0.5-1.15-1.09-1.74-1.6c-0.62-0.54-1.39-0.95-1.88-1.58c-0.42-0.54-0.92-0.84-1.45-1.17 c-0.47-0.29-1.02-0.54-1.34-0.96c-0.84-1.09-2.06-1.59-3.17-2.27c-1.18-0.73-2.39-1.43-3.51-2.26c-0.43-0.32-0.8-0.62-1.34-0.67 c-0.51-0.05-1.03-0.1-1.54-0.2c-1.45-0.28-2.65-0.93-3.32-2.15c-0.45-0.14-0.82-0.24-1.17-0.37c-0.77-0.27-1.54-0.56-2.31-0.82 c-0.59-0.2-1.21-0.35-1.79-0.58c-1.56-0.6-3.17-0.86-4.83-0.84c-0.61,0.01-1.19,0.02-1.7-0.4c-0.12-0.1-0.43-0.16-0.5-0.09 c-0.29,0.29-0.48,0.09-0.73-0.05c-0.24-0.14-0.5-0.28-0.76-0.31c-1.74-0.19-3.48-0.38-5.23-0.51c-0.95-0.07-1.91-0.07-2.87-0.05 c-1.18,0.03-2.35-0.01-3.55,0.21c-0.94,0.17-2,0.46-3-0.15c-0.48-0.29-2.4,0.49-2.75,1c-0.07,0.11-0.04,0.28-0.06,0.51 c0.41,0.07,0.75,0.13,1.1,0.18C215.11,83.16,215.19,83.16,215.28,83.17z M410.86,84.77c-0.34-0.24-0.7-0.31-1.08-0.03c0.37,0,0.74,0,1.12,0 c-0.4,0.1-0.8,0.27-1.21,0.29c-0.36,0.01-0.73-0.22-1.08-0.21c-0.37,0.01-0.73,0.24-1.11,0.28c-0.9,0.09-1.8,0.19-2.7,0.17 c-0.97-0.02-1.94-0.15-2.91-0.24c-0.18-0.02-0.46-0.16-0.51-0.1c-0.46,0.59-1.05,0.21-1.55,0.21c-1.38,0.01-2.76-0.08-4.14-0.1 c-0.49-0.01-0.97,0.05-1.6,0.09c0.14,2.75,0.37,5.52,0.38,8.29c0,1.85,0.43,3.66,0.33,5.52c-0.08,1.51,0.17,3.05,0.3,4.57 c0.13,1.5,0.3,2.99,0.42,4.49c0.04,0.5,0.06,1.02-0.05,1.5c-0.2,0.94-0.22,0.99,0.76,0.9c2.13-0.2,4.28-0.11,6.41-0.44 c1.98-0.31,4.01-0.34,6.01-0.52c2.1-0.18,4.2-0.36,6.3-0.6c1.98-0.22,3.94-0.6,5.91-0.76c3.65-0.29,7.31-0.46,10.97-0.69 c0.39-0.02,0.78-0.15,1.17-0.17c2.3-0.07,4.59-0.09,6.89-0.18c2.22-0.09,4.45-0.25,6.67-0.37c1.79-0.09,3.58-0.12,5.36-0.26 c2.61-0.2,5.22-0.52,7.83-0.71c2.14-0.16,4.3-0.2,6.45-0.32c1.51-0.09,3.01-0.24,4.51-0.36c1.73-0.14,3.46-0.29,5.18-0.45 c0.1-0.01,0.19-0.1,0.36-0.19c-0.86-0.66-1.7-1.25-2.47-1.91c-1.73-1.47-3.29-3.13-5.13-4.48c-1.56-1.14-3.01-2.42-4.5-3.64 c-0.18-0.15-0.39-0.3-0.51-0.49c-0.85-1.37-2.26-2.16-3.38-3.24c-1.6-1.55-3.3-2.99-4.96-4.48c-0.32-0.29-0.65-0.56-0.98-0.83 c-0.63-0.52-1.36-0.95-1.88-1.56c-0.37-0.43-0.77-0.56-1.24-0.55c-2.93,0.05-5.86,0.12-8.78,0.22c-3.36,0.11-6.72,0.2-10.06,0.43 c-1.46,0.1-2.95-0.14-4.38,0.38c-0.11,0.04-0.28-0.05-0.41-0.1c-0.83-0.32-1.58-0.12-2.3,0.32c-0.36-0.39-0.69-0.96-1.31-0.31 c-0.03,0.03-0.14-0.01-0.2-0.04c-1.05-0.47-1.77-0.3-2.39,0.58c-0.59-0.05-1.17-0.14-1.76-0.14c-0.54,0.01-1.08,0.15-1.62,0.18 c-0.6,0.03-1.26-0.16-1.77,0.04c-0.52,0.2-1.04-0.63-1.37-0.02c-0.31-0.1-0.65-0.33-0.88-0.25c-0.68,0.26-0.66,0.3-1.41,0.1 c-0.09-0.02-0.25,0-0.29,0.06C411.82,85.25,411.33,84.88,410.86,84.77z M91.51,168.61c0.67-0.34,1.07-0.57,1.49-0.75 c1.21-0.53,2.63-0.63,3.49-1.86c0.14-0.19,0.49-0.28,0.75-0.33c1.8-0.3,3.38-1.16,4.97-1.98c1.79-0.93,3.58-1.86,5.36-2.79 c0.77-0.4,1.55-0.77,2.31-1.18c0.78-0.42,0.88-0.67,0.72-1.54c-0.05-0.27-0.1-0.54-0.08-0.81c0.1-1.53,0.23-3.07,0.32-4.6 c0.06-1.15,0.04-2.31,0.11-3.46c0.18-2.86,0.39-5.71,0.58-8.57c0.05-0.79,0.05-1.59,0.11-2.39c0.15-2.14,0.33-4.27,0.48-6.41 c0.05-0.75,0.03-1.5,0.07-2.24c0.1-1.71,0.28-3.41,0.33-5.11c0.11-3.61,0.15-7.23,0.49-10.84c0.18-1.94,0.31-3.88,0.49-5.82 c0.17-1.8,0.46-3.6,0.58-5.4c0.11-1.66,0.02-3.34,0.11-5.01c0.1-1.93,0.25-3.87,0.51-5.78c0.08-0.61-0.1-0.9-0.51-1.19 c-0.77-0.55-1.57-1.06-2.33-1.63c-0.65-0.49-1.26-1.05-1.89-1.58c-0.36-0.3-0.71-0.62-1.09-0.9c-2.24-1.62-4.47-3.25-6.74-4.83 c-1.06-0.74-2.21-1.36-3.37-2.05c-0.13,0.24-0.24,0.37-0.26,0.51c-0.16,1.21-0.32,2.42-0.45,3.63c-0.13,1.3-0.22,2.6-0.34,3.89 c-0.22,2.24-0.42,4.48-0.68,6.72c-0.22,1.88-0.46,3.76-0.49,5.67c-0.02,1.42-0.35,2.84-0.45,4.26c-0.19,2.74-0.19,5.49-0.52,8.23 c-0.32,2.62-0.41,5.27-0.59,7.91c-0.1,1.43-0.17,2.85-0.26,4.28c-0.04,0.6-0.13,1.19-0.14,1.78c-0.03,1.54-0.01,3.08-0.05,4.62 c-0.06,2.22-0.15,4.43-0.25,6.65c-0.04,0.87-0.11,1.75-0.2,2.62c-0.18,1.7-0.52,3.39-0.54,5.09c-0.03,3.38-0.56,6.71-0.87,10.05 c-0.25,2.72-0.85,5.41-0.88,8.16c-0.01,0.75-0.08,1.5-0.13,2.26C91.66,166.72,91.59,167.58,91.51,168.61z M211.06,88.96c-0.01-0.08-0.03-0.17-0.04-0.25c-0.26-0.04-0.51-0.09-0.77-0.11 c-0.48-0.04-0.99,0.05-1.42-0.11c-1.07-0.39-2.21-0.26-3.3-0.47c-1.51-0.29-3.08-0.3-4.62-0.46c-1.42-0.14-2.87-0.06-4.3-0.16 c-0.82-0.06-1.46,0.35-2.1,0.68c-0.29,0.15-0.31,0.81-0.45,1.25c-0.08,0.26-0.17,0.53-0.19,0.8c-0.15,2.12-0.31,4.24-0.42,6.37 c-0.09,1.71-0.11,3.42-0.17,5.13c-0.13,3.7-0.27,7.4-0.42,11.1c-0.04,1.1-0.3,2.22-0.12,3.28c0.19,1.17-0.03,2.28-0.07,3.41 c-0.08,2.58-0.37,5.16-0.5,7.74c-0.13,2.6-0.12,5.21-0.24,7.81c-0.1,2.26-0.28,4.52-0.44,6.79c-0.05,0.78-0.16,1.56-0.24,2.34 c-0.07,0.71-0.18,1.42-0.21,2.13c-0.1,2.34-0.18,4.68-0.27,7.02c-0.07,1.71-0.12,3.42-0.25,5.13c-0.05,0.74-0.14,1.53-0.46,2.17 c-0.22,0.45-0.61,0.73-0.49,1.35c0.11,0.56,0.39,0.93,0.78,1.27c0.39,0.34,0.78,0.67,1.19,0.98c1.86,1.4,3.25,3.36,5.36,4.45 c0.09,0.05,0.13,0.2,0.21,0.28c1.26,1.08,2.58,2.08,4.11,2.8c0.39-1.19,0.38-1.21-0.46-1.87c-0.42-0.32-0.85-0.63-1.28-0.94 c0.03-0.04,0.06-0.08,0.09-0.12c0.62,0.31,1.23,0.61,2.01,1c0.16-0.67,0.35-1.19,0.41-1.72c0.12-1.01,0.16-2.02,0.25-3.04 c0.19-2.22,0.38-4.44,0.58-6.66c0.12-1.31,0.28-2.61,0.42-3.91c0.14-1.3,0.31-2.6,0.43-3.91c0.24-2.57,0.43-5.14,0.68-7.7 c0.13-1.29,0.4-2.57,0.52-3.86c0.2-2.21,0.33-4.42,0.49-6.63c0.09-1.23,0.2-2.45,0.25-3.68c0.02-0.47-0.14-0.95-0.09-1.41 c0.36-3.23,0.7-6.47,1.15-9.69c0.28-2.02,0.3-4.07,0.66-6.09c0.46-2.57,0.62-5.19,0.94-7.79c0.25-2.05,0.56-4.08,0.82-6.13 c0.15-1.16,0.33-2.33,0.37-3.49c0.03-0.93-0.08-1.88-0.2-2.81c-0.15-1.27,0.09-1.71,1.33-2.13C210.76,89.02,210.91,89,211.06,88.96z M218.6,90.01c-0.2,0.18-0.3,0.23-0.32,0.29c-0.3,1.7-0.65,3.38-0.87,5.09c-0.16,1.25-0.13,2.52-0.25,3.78 c-0.17,1.8-0.42,3.6-0.59,5.4c-0.24,2.56-0.5,5.13-0.64,7.7c-0.1,1.96-0.62,3.86-0.63,5.86c-0.02,2.53-0.42,5.06-0.72,7.58 c-0.18,1.48-0.49,2.94-0.71,4.42c-0.13,0.86-0.2,1.73-0.27,2.6c-0.11,1.38-0.25,2.77-0.28,4.15c-0.05,2.09-0.13,4.17-0.66,6.21 c-0.23,0.86-0.35,1.76-0.43,2.65c-0.11,1.28-0.11,2.58-0.2,3.86c-0.1,1.38-0.27,2.76-0.38,4.15c-0.05,0.55,0.02,1.12-0.05,1.67 c-0.26,1.96-0.52,3.93-0.79,5.88c-0.27,1.96-0.36,3.92-0.57,5.87c-0.15,1.38-0.17,2.77-0.35,4.15c-0.09,0.65-0.04,1.22,0.19,1.81 c0.19-0.03,0.32-0.01,0.42-0.06c1.87-0.87,3.74-1.73,5.59-2.63c0.45-0.22,0.78-0.67,1.23-0.89c1.81-0.88,3.64-1.72,5.44-2.56 c-0.04-0.56-0.12-1.15-0.1-1.73c0.02-0.59,0.1-1.18,0.21-1.75c0.22-1.16,0.51-2.32,0.7-3.48c0.44-2.65,0.54-5.34,1-8 c0.4-2.28,0.35-4.64,0.48-6.97c0.1-1.7,0.13-3.41,0.24-5.11c0.09-1.46,0.25-2.92,0.37-4.38c0.11-1.31,0.19-2.62,0.29-3.93 c0.19-2.45,0.43-4.89,0.55-7.34c0.14-2.74,0.16-5.49,0.26-8.24c0.05-1.47-0.07-3,0.32-4.38c0.36-1.27,0.28-2.51,0.35-3.74 c0.15-2.49,0.1-4.98,0.49-7.46c0.14-0.9,0.19-1.86,0-2.74c-0.23-1.04-0.36-1.93,0.86-2.59c-1.2-0.76-2.22-1.48-3.32-2.08 c-1.13-0.62-2.32-1.15-3.5-1.67C220.82,90.89,219.67,90.45,218.6,90.01z M250.96,149.66c-0.18-1.15-0.35-2.01-0.43-2.87 c-0.03-0.38,0.18-0.78,0.18-1.17c0-1.19-0.1-2.38-0.06-3.57c0.06-1.69,0.22-3.38,0.32-5.07c0.09-1.42,0.24-2.85,0.23-4.27 c-0.01-1.71-0.13-3.41-0.25-5.12c-0.07-0.88,0.01-1.77-0.04-2.64c-0.1-1.88-0.44-3.75-0.49-5.63c-0.02-0.63,0.03-1.24-0.18-1.84 c-0.3-0.86-0.26-0.99,0.44-1.49c0.18-0.13,0.4-0.21,0.64-0.34c-4.43-5.99-9.94-10.77-15.44-15.65c-0.46,1.01-0.52,1.63-0.42,2.68 c0.06,0.57,0.12,1.17,0.01,1.72c-0.32,1.75-0.64,3.49-0.63,5.27c0,0.36-0.02,0.72-0.04,1.07c-0.13,2.01-0.28,4.01-0.4,6.02 c-0.17,2.65-0.32,5.31-0.49,7.96c-0.01,0.2-0.1,0.39-0.13,0.58c-0.26,1.72-0.52,3.44-0.76,5.16c-0.24,1.71-0.13,3.45-0.5,5.16 c-0.33,1.51-0.46,3.06-0.65,4.6c-0.11,0.9-0.13,1.81-0.25,2.71c-0.23,1.77-0.53,3.53-0.75,5.3c-0.16,1.37-0.22,2.75-0.35,4.13 c-0.06,0.62-0.23,1.24-0.28,1.86c-0.19,2.84-0.36,5.69-0.53,8.53c-0.02,0.31,0,0.61,0,1.08c0.47-0.19,0.86-0.28,1.18-0.48 c1-0.62,1.97-1.29,2.96-1.92c1.33-0.85,2.61-1.84,4.05-2.47c1.19-0.52,2.12-1.32,3.12-2.05c0.92-0.66,1.62-1.64,2.54-2.32 c1.28-0.96,2.65-1.8,3.99-2.68c0.96-0.63,1.93-1.24,2.88-1.86C250.66,149.93,250.86,149.74,250.96,149.66z M183.87,157.83 c0.09-1.91,0.17-3.55,0.24-5.18c0.03-0.66-0.16-1.41,0.09-1.97c0.39-0.86,0.28-1.7,0.28-2.54c0.02-2.56-0.09-5.12,0.2-7.68 c0.06-0.51,0.13-1.03,0.06-1.53c-0.2-1.32,0.15-2.58,0.25-3.87c0.05-0.62,0.14-1.23,0.16-1.85c0.02-0.79-0.06-1.58-0.02-2.37 c0.09-1.58,0.25-3.16,0.35-4.74c0.09-1.38,0.09-2.76,0.2-4.13c0.14-1.85,0.41-3.69,0.5-5.55c0.16-3.21,0.23-6.42,0.34-9.63 c0.13-3.49,0.27-6.98,0.4-10.47c0.04-1.11,0.07-2.21,0.05-3.32c-0.01-0.49-0.12-0.97-0.19-1.53c-0.57,0.21-1.01,0.31-1.38,0.52 c-1.69,0.95-3.4,1.87-5.04,2.92c-1.33,0.85-2.58,1.82-3.82,2.79c-1.15,0.89-2.22,1.88-3.36,2.78c-1.26,1.01-2.71,1.8-3.64,3.19 c0.07,0.46,0.14,0.91,0.22,1.38c0.22-0.04,0.38-0.07,0.44-0.08c-0.06,0.57-0.16,1.14-0.17,1.71c-0.02,1.14,0.02,2.29,0,3.43 c-0.03,1.43-0.14,2.86-0.15,4.29c-0.01,1.21-0.08,2.41-0.07,3.62c0.02,1.93-0.07,3.87-0.17,5.8c-0.07,1.26-0.24,2.51-0.35,3.77 c-0.1,1.15-0.16,2.29-0.24,3.44c-0.08,1.14-0.16,2.27-0.25,3.41c-0.1,1.28-0.11,2.59-0.79,3.74c-0.31,0.53-0.29,0.95,0.08,1.41 c0.15,0.19,0.25,0.41,0.4,0.6c1.26,1.63,2.53,3.25,3.79,4.89c0.81,1.06,1.59,2.16,2.42,3.21c0.54,0.69,1.04,1.47,1.74,1.94 c1.17,0.8,1.96,1.92,2.83,2.95c1.03,1.22,2.22,2.27,3.28,3.44C182.88,156.98,183.28,157.29,183.87,157.83z M560.48,155.05 c0.49,0.68,0.81,1.34,1.32,1.8c1.18,1.06,2.57,1.82,4.06,2.39c0.88,0.34,1.81,0.43,2.64-0.04c0.97-0.56,2-0.88,3.08-1.16 c1.83-0.46,3.11-1.85,4.55-2.94c1.43-1.08,1.81-2.69,1.88-4.39c0.07-1.77-0.36-3.47-0.94-5.1c-0.26-0.74-0.85-1.46-1.48-1.94 c-0.92-0.71-1.62-1.71-2.82-2.11c-1.07-0.36-2.05-1.06-3.14-1.3c-2.39-0.53-4.72-0.28-6.82,1.11c-0.68,0.45-1.29,1.01-1.95,1.5 c-0.74,0.54-1.72,2.39-1.67,3.26c0.11,1.74,0.2,3.48,0.4,5.21c0.09,0.85,0.4,1.68,0.61,2.53c0.08,0.31,0.16,0.61,0.24,0.92 c-0.1,0.04-0.19,0.08-0.29,0.11c-0.14-0.61-0.52-1.11-0.61-1.72c-0.16-1.16-0.26-2.33-0.42-3.49c-0.07-0.47,0.08-1.02-0.38-1.44 c-0.27,0.64-0.6,3.8-0.34,4.42c0.44,1.03,0.7,2.17,1.66,3.03C560.21,155.48,560.31,155.32,560.48,155.05z M386.52,86.63c-0.44,0.31-0.84,0.56-1.2,0.85 c-0.34,0.27-0.63,0.58-0.97,0.86c-1.18,0.98-2.37,1.95-3.55,2.94c-0.81,0.68-1.58,1.42-2.42,2.07c-0.75,0.59-1.56,1.1-2.37,1.66 c0.62,1.26,1.09,2.53,2.26,3.34c0.26,0.18,0.52,0.37,0.73,0.6c1.41,1.48,2.8,2.98,4.21,4.47c0.16,0.17,0.34,0.34,0.53,0.47 c1.4,0.9,2.84,1.75,4.19,2.75c0.12,0.09,0.34,0.03,0.53,0.04c-0.05-0.73-0.08-1.36-0.14-1.99c-0.11-1.14-0.22-2.29-0.38-3.43 c-0.07-0.46-0.28-0.9-0.4-1.35c-0.25-0.89-0.13-1.77-0.09-2.68c0.07-1.41-0.11-2.83-0.2-4.24c-0.03-0.43-0.01-0.89-0.14-1.29 C386.6,90.09,386.56,88.43,386.52,86.63z" fill="black" fill-rule="evenodd"/>
    </g>
  </g>
  
  <!-- Bold black text -->
  <path d="M1181.72,570.84c0.1-0.38,0.14-0.65,0.25-0.89c0.64-1.42,1.33-2.82,1.93-4.25c0.32-0.77,0.77-1.04,1.62-1.03
	c8.52,0.03,17.03,0.02,25.55,0.02c4.68,0,9.36-0.01,14.04,0.01c1.71,0.01,3.31,0.47,4.72,1.48c1.24,0.89,1.73,2.21,1.29,3.69
	c-0.71,2.38-1.68,4.66-3.03,6.75c-0.57,0.88-1.44,1.55-2.22,2.37c0.13,0.3,0.48,0.75,0.49,1.21c0.01,0.48-0.26,0.98-0.47,1.45
	c-0.84,1.85-1.72,3.69-2.55,5.55c-0.37,0.84-1,1.23-1.87,1.23c-2.04,0.02-4.08,0.03-6.12,0c-1.27-0.02-1.88-1.06-1.35-2.2
	c0.7-1.52,1.42-3.04,2.11-4.57c0.47-1.05,0.05-1.77-1.11-1.92c-0.2-0.03-0.4-0.02-0.6-0.02c-8.72,0-17.43,0-26.15,0
	c-0.28,0-0.55,0.03-0.9,0.05c-0.71,1.55-1.42,3.11-2.13,4.67c-0.41,0.91-0.83,1.81-1.23,2.73c-0.37,0.87-1,1.28-1.96,1.27
	c-2.12-0.03-4.24-0.01-6.36-0.01c-0.2,0-0.4,0-0.6-0.04c-0.86-0.18-1.27-0.88-0.91-1.7c0.59-1.35,1.24-2.68,1.87-4.02
	c1.3-2.78,2.6-5.57,3.91-8.35c0.12-0.25,0.27-0.49,0.43-0.79c0.39-0.02,0.78-0.05,1.17-0.05c7.36,0,14.71-0.01,22.07,0
	c5.28,0.01,10.55,0.04,15.83,0.09c1,0.01,1.8-0.26,2.34-1.14c0.52-0.84,0.2-1.51-0.77-1.58c-0.32-0.03-0.64-0.01-0.96-0.01
	c-12.32,0-24.63,0-36.95,0C1182.68,570.84,1182.25,570.84,1181.72,570.84z" fill="black"/>
  <path d="M941.9,543.49c0.61,0,1,0,1.38,0c8.71,0,17.43-0.02,26.14,0.02c1.53,0.01,2.41-0.56,3.01-1.98c1.07-2.54,2.29-5.01,3.47-7.5
	c0.79-1.67,0.57-2.06-1.24-2.06c-8.95,0-17.91,0-26.86,0c-3.44,0-6.87,0-10.48,0c0.89-2.15,1.9-4.1,2.92-6.16c0.36,0,0.72,0,1.07,0
	c1.32,0,2.64,0,3.96,0c12.23-0.03,24.46-0.05,36.69-0.09c0.91,0,1.73,0.21,2.52,0.61c2.27,1.14,3.14,3.67,2.05,5.98
	c-2.15,4.55-4.26,9.11-6.47,13.62c-1.13,2.32-2.95,3.64-5.69,3.64c-14.59-0.03-29.18-0.02-43.77-0.02c-0.43,0-0.86,0-1.44,0
	c2.33-5.01,4.6-9.88,6.89-14.8c3.22,0,6.43,0,9.83,0C944.53,537.69,943.26,540.5,941.9,543.49z" fill="black"/>
  <path d="M1039.36,540.05c1.09,0.94,0.89,1.82,0.4,2.81c-0.88,1.75-1.72,3.51-2.48,5.31c-0.46,1.08-1.24,1.53-2.32,1.55
	c-1.96,0.03-3.92,0.05-5.87,0c-1.15-0.03-1.76-1.14-1.27-2.2c0.71-1.56,1.44-3.11,2.15-4.67c0.41-0.89,0.19-1.42-0.74-1.75
	c-0.29-0.1-0.62-0.15-0.93-0.15c-8.91-0.01-17.83,0-26.74,0c-0.08,0-0.16,0.02-0.36,0.05c-0.78,1.71-1.59,3.48-2.4,5.25
	c-0.33,0.73-0.69,1.44-0.99,2.18c-0.37,0.89-1.06,1.29-1.96,1.3c-2.12,0.03-4.24,0.01-6.35,0c-0.23,0-0.47-0.07-0.7-0.14
	c-0.84-0.26-1.15-0.95-0.77-1.76c1.25-2.67,2.51-5.34,3.77-8.01c0.63-1.34,1.25-2.67,1.89-4.01c0.17-0.36,0.37-0.7,0.58-1.1
	c0.38,0,0.74,0,1.09,0c10.91,0,21.82-0.01,32.73,0.01c1.71,0,3.43,0.1,5.14,0.15c0.98,0.03,1.8-0.33,2.38-1.14
	c0.23-0.33,0.39-0.67,0.17-1.11c-0.21-0.42-0.52-0.57-0.96-0.55c-0.32,0.01-0.64,0-0.96,0c-12.27,0-24.54,0-36.81,0
	c-0.48,0-0.95,0-1.62,0c0.95-2.09,1.84-4.03,2.77-6.07c0.42,0,0.85,0,1.29,0c13.15,0,26.3,0.01,39.45-0.01
	c1.74,0,3.31,0.44,4.72,1.45c1.3,0.94,1.82,2.3,1.25,3.78c-0.8,2.08-1.69,4.13-2.66,6.14
	C1041.66,538.49,1040.83,539.49,1039.36,540.05z" fill="black"/>
  <path d="M1124.1,570.68c0.59-1.28,0.94-2.42,1.59-3.34c0.78-1.12,2-1.85,3.31-2.25c1.33-0.41,2.7-0.66,4.12-0.66
	c11.76,0.02,23.51,0.02,35.27,0c0.86,0,1.65,0.15,2.41,0.56c1.82,0.97,2.33,2.65,2.38,4.51c0.03,1.03-0.23,2.03-0.68,3
	c-1.93,4.16-3.76,8.37-5.73,12.52c-1.01,2.13-2.9,3.17-5.19,3.3c-2.11,0.12-4.24,0.03-6.36,0.03c-10.12,0-20.23-0.01-30.35,0.02
	c-0.98,0-1.83-0.21-2.56-0.81c-0.86-0.7-1.7-1.45-2.48-2.24c-0.71-0.72-0.98-1.64-0.83-2.65c0.11-0.7,0.18-1.44,0.46-2.08
	c1.07-2.36,2.22-4.68,3.36-7.06c3.21,0,6.39,0,9.73,0c-0.41,0.92-0.77,1.75-1.15,2.58c-0.46,1.02-0.95,2.02-1.39,3.05
	c-0.16,0.36-0.27,0.76-0.3,1.15c-0.08,1.05,0.54,1.76,1.58,1.87c0.28,0.03,0.56,0.01,0.84,0.01c7.72,0,15.43-0.03,23.15,0.02
	c2.15,0.01,3.54-0.91,4.37-2.86c0.94-2.2,1.95-4.37,2.92-6.56c0.44-0.98-0.04-1.9-1.11-2.14c-0.27-0.06-0.56-0.05-0.83-0.05
	c-7.12,0-14.23-0.01-21.35,0c-4.64,0.01-9.27,0.05-13.91,0.08C1125.04,570.68,1124.68,570.68,1124.1,570.68z" fill="black"/>
  <path d="M823.2,498.77c-0.5,1.11-0.95,2.11-1.4,3.11c-0.41,0.91-0.87,1.8-1.23,2.73c-0.69,1.76,0.11,2.9,2.02,2.9
	c7.8,0.01,15.59,0.01,23.39,0c2.03,0,3.46-0.88,4.28-2.83c1.03-2.46,2.18-4.88,3.28-7.3c-0.34-1.14-1.11-1.56-2.26-1.55
	c-10.39,0.02-20.79,0.01-31.18,0.02c-1.35,0-2.71,0.1-4.06,0.15c-0.36,0.01-0.71,0-1.08,0c0.31-2.65,2.38-5.07,4.81-5.7
	c1.4-0.37,2.8-0.55,4.26-0.54c11.71,0.02,23.43,0.01,35.14,0.01c2.32,0,3.66,1.06,4.35,3.28c0.5,1.61,0.31,3.13-0.37,4.62
	c-1.9,4.18-3.79,8.36-5.71,12.52c-0.98,2.11-2.78,3.08-5,3.39c-0.2,0.03-0.4,0-0.6,0c-12.15,0-24.31-0.01-36.46,0.02
	c-0.89,0-1.68-0.17-2.34-0.71c-0.87-0.7-1.75-1.41-2.5-2.22c-1.31-1.42-1.11-3.15-0.49-4.72c0.87-2.18,2.03-4.25,3.01-6.39
	c0.29-0.63,0.66-0.87,1.37-0.86c2.64,0.04,5.28,0.02,7.92,0.02C822.56,498.71,822.79,498.74,823.2,498.77z" fill="black"/>
  <path d="M757.14,495.99c0.63-1.43,1.16-2.66,1.72-3.88c0.09-0.2,0.3-0.38,0.49-0.5c0.85-0.53,1.68-1.08,2.57-1.53
	c0.4-0.2,0.91-0.24,1.38-0.24c6.32-0.01,12.63,0,18.95-0.01c5.91-0.01,11.83-0.05,17.74-0.08c1.72-0.01,3.14,0.85,4.58,1.58
	c0.37,0.19,0.57,0.75,0.79,1.16c1.43,2.6,1.42,2.61,0.14,5.26c-0.35,0.72-0.76,1.42-1.01,2.17c-0.34,1.01-1.01,1.7-1.87,2.24
	c-1.01,0.64-2.02,1.28-3.05,1.89c-1.06,0.62-2.22,0.82-3.45,0.82c-9.99-0.01-19.99,0.02-29.98-0.03c-1.24-0.01-2.28,0.33-3.23,1.03
	c-0.43,0.32-0.83,0.76-1.07,1.23c-0.67,1.31-1.18,2.71-1.88,4c-0.79,1.47-2,2.45-3.77,2.47c-1.52,0.02-3.04-0.02-4.56,0.02
	c-0.66,0.02-1.01-0.23-1.25-0.84c-0.36-0.93-0.42-1.75,0.06-2.73c1.6-3.26,3.08-6.57,4.62-9.86c0.23-0.5,0.5-0.99,0.79-1.53
	c0.5,0,0.98,0,1.45,0c11.71,0,23.42-0.02,35.14,0.02c1.29,0,2.31-0.43,3.37-1.15c-0.36-0.93-1.04-1.38-1.96-1.51
	c-0.31-0.04-0.64-0.01-0.96-0.01c-11.39,0-22.78,0-34.18,0C758.25,495.99,757.79,495.99,757.14,495.99z" fill="black"/>
  <path d="M1127.26,507.35c0.51,0,0.91,0,1.31,0c11.55,0,23.11,0,34.66,0.01c0.91,0,1.83,0.12,2.74,0.15
	c1.23,0.04,1.94-0.82,2.64-1.63c0.3-0.35,0.02-0.88-0.49-0.97c-0.35-0.06-0.72-0.03-1.08-0.03c-11.07,0-22.15,0-33.22,0
	c-1.86,0-3.29-1.06-3.74-2.87c-0.11-0.43-0.06-0.96,0.09-1.39c0.24-0.67,0.62-1.28,0.97-1.98c0.43,0,0.83,0,1.22,0
	c13.31,0,26.62,0.01,39.94-0.01c2.18,0,3.69,1.11,4.9,2.74c0.24,0.32,0.28,0.81,0.33,1.24c0.08,0.63,0.13,1.27,0.12,1.9
	c-0.01,0.34-0.11,0.71-0.25,1.02c-0.65,1.46-1.34,2.9-1.99,4.35c-0.62,1.39-1.64,2.38-3.06,2.87c-1.05,0.36-2.15,0.68-3.24,0.77
	c-1.74,0.13-3.49,0.06-5.24,0.07c-0.36,0-0.72,0-1.08,0c-11.71,0-23.43,0-35.14,0.01c-0.7,0-1.35-0.07-1.9-0.55
	c-0.66-0.58-0.8-1.21-0.4-2C1125.96,509.83,1126.59,508.63,1127.26,507.35z" fill="black"/>
  <path d="M1050.7,498.63c0.45,0,0.85,0,1.25,0c13.28,0,26.55,0.02,39.83-0.02c2.27-0.01,3.76,1.15,5,2.79
	c0.28,0.37,0.26,0.97,0.33,1.47c0.18,1.25,0.09,2.43-0.57,3.58c-0.55,0.96-0.96,2.02-1.38,3.05c-0.68,1.65-1.84,2.82-3.54,3.34
	c-1.17,0.36-2.4,0.7-3.61,0.71c-8.11,0.06-16.21,0.03-24.32,0.03c-5.44,0-10.88,0-16.31,0c-0.36,0-0.73,0.02-1.08-0.04
	c-1.27-0.22-1.89-1.45-1.34-2.6c0.28-0.58,0.56-1.15,0.86-1.71c0.32-0.6,0.66-1.18,1.05-1.88c0.39,0,0.82,0,1.25,0
	c11.56,0,23.11,0,34.67,0.01c0.91,0,1.83,0.13,2.74,0.15c1.22,0.02,1.97-0.77,2.62-1.64c0.32-0.43,0.08-0.86-0.47-0.95
	c-0.39-0.06-0.8-0.04-1.2-0.04c-11.04,0-22.07-0.04-33.11,0.03c-1.99,0.01-3.01-1.07-3.68-2.8c-0.18-0.46-0.05-1.1,0.11-1.61
	C1049.99,499.88,1050.35,499.33,1050.7,498.63z" fill="black"/>
  <path d="M991.06,498.87c0.42,0,0.85,0,1.29,0c15.27,0,30.55,0,45.82,0c0.16,0,0.32,0,0.48,0c1.12,0.03,1.43,0.39,1.02,1.39
	c-0.54,1.33-1.18,2.62-1.77,3.93c-0.24,0.54-0.67,0.77-1.24,0.76c-0.36-0.01-0.72,0-1.08,0c-12.27,0-24.55,0-36.82,0.01
	c-0.51,0-1.03,0.06-1.53,0.17c-0.61,0.13-0.94,0.57-1.06,1.17c-0.17,0.81,0.11,1.21,0.95,1.29c0.36,0.03,0.72,0.01,1.08,0.01
	c11.71,0,23.43,0,35.14,0c0.28,0,0.56,0,0.84,0c1.3,0.02,1.77,0.76,1.24,1.96c-0.43,0.99-0.91,1.96-1.3,2.96
	c-0.32,0.82-0.92,1.21-1.74,1.21c-1.71,0-3.43-0.06-5.14-0.1c-0.44-0.01-0.88-0.04-1.32-0.04c-12.07,0-24.15-0.01-36.22,0.01
	c-0.95,0-1.83-0.01-2.47-0.87c-0.71-0.95-1.06-2-0.79-3.14c0.21-0.92,0.58-1.82,0.97-2.69c1.11-2.52,2.26-5.02,3.4-7.53
	C990.84,499.22,990.93,499.09,991.06,498.87z" fill="black"/>
  <path d="M1133.3,534.94c16.3,0,32.48,0,48.82,0c-0.07,0.6-0.04,1.13-0.22,1.58c-0.46,1.15-1.06,2.24-1.53,3.38
	c-0.33,0.8-0.89,1.07-1.69,1.03c-0.32-0.02-0.64,0-0.96,0c-12.23,0-24.47,0-36.7,0.01c-0.55,0-1.11,0.08-1.64,0.23
	c-0.65,0.18-0.93,0.71-0.96,1.37c-0.03,0.7,0.15,0.94,0.87,1.02c0.36,0.04,0.72,0.02,1.08,0.02c11.83,0,23.67,0,35.5,0
	c0.32,0,0.64-0.02,0.96,0.01c0.83,0.09,1.34,0.86,1.02,1.64c-0.45,1.11-0.97,2.19-1.44,3.29c-0.34,0.8-0.96,1.19-1.77,1.19
	c-1.67,0.01-3.35-0.06-5.02-0.1c-0.44-0.01-0.88-0.04-1.32-0.04c-11.95,0-23.91,0-35.86,0c-1.16,0-2.33,0.13-3.09-1.08
	c-0.83-1.34-0.8-2.74-0.31-4.14c0.3-0.86,0.76-1.67,1.14-2.51C1131.23,539.55,1132.26,537.26,1133.3,534.94z" fill="black"/>
  <path d="M672.73,504.98c-9.91,0-19.67,0-29.55,0c-0.61,1.32-1.24,2.69-1.87,4.06c-0.52,1.12-1.02,2.25-1.53,3.38
	c-0.42,0.94-1.12,1.36-2.18,1.34c-2.04-0.05-4.08-0.01-6.12-0.01c-0.12,0-0.24,0.01-0.36,0c-1.17-0.08-1.59-0.69-1.14-1.75
	c0.56-1.32,1.19-2.62,1.79-3.92c1.25-2.68,2.49-5.35,3.75-8.03c0.2-0.43,0.43-0.85,0.67-1.33c0.49,0,0.96,0,1.44,0
	c9.88,0,19.75-0.01,29.63,0.01c2.43,0,4.87,0.06,7.3,0.18c0.89,0.04,1.25-0.33,1.58-1.07c1.03-2.29,2.16-4.54,3.23-6.82
	c0.32-0.69,0.77-1.03,1.57-1.02c2.4,0.04,4.8,0.01,7.2,0.02c1.1,0.01,1.27,0.26,0.8,1.31c-0.78,1.75-1.6,3.48-2.41,5.22
	c-2.4,5.18-4.81,10.35-7.17,15.54c-0.53,1.17-1.26,1.73-2.57,1.69c-1.92-0.06-3.84-0.02-5.76-0.02c-0.2,0-0.4,0.02-0.6-0.01
	c-1.1-0.13-1.33-0.58-0.9-1.5c1.02-2.17,1.96-4.37,2.93-6.55C672.54,505.5,672.6,505.32,672.73,504.98z" fill="black"/>
  <path d="M931.16,498.79c13.15,0,26.25,0,39.46,0c0.19-0.4,0.41-0.86,0.63-1.32c1.01-2.13,2.01-4.26,3.03-6.38
	c0.3-0.64,0.69-1.12,1.53-1.11c2.56,0.03,5.12,0.01,7.67,0.02c0.15,0,0.31,0.05,0.44,0.07c0.46,0.56,0.07,1.03-0.12,1.47
	c-0.76,1.71-1.57,3.41-2.36,5.11c-2.38,5.14-4.79,10.27-7.12,15.43c-0.54,1.19-1.28,1.71-2.57,1.67c-1.92-0.06-3.84-0.01-5.76-0.01
	c-0.2,0-0.4,0.01-0.6-0.01c-1.08-0.11-1.31-0.5-0.87-1.5c0.95-2.15,1.91-4.3,2.87-6.45c0.09-0.21,0.17-0.43,0.3-0.75
	c-9.86,0-19.62,0-29.55,0c-0.57,1.24-1.19,2.57-1.8,3.9c-0.53,1.16-1.07,2.32-1.59,3.48c-0.42,0.96-1.13,1.35-2.18,1.34
	c-2.04-0.04-4.08-0.01-6.12-0.01c-0.12,0-0.24,0.01-0.36,0c-1.15-0.08-1.56-0.68-1.13-1.78c0.32-0.82,0.71-1.6,1.08-2.4
	c1.54-3.29,3.08-6.58,4.62-9.86C930.83,499.38,931.01,499.07,931.16,498.79z" fill="black"/>
  <path d="M1229.74,540.62c2.39-5,4.73-9.89,7.06-14.77c3.18,0,6.3,0,9.62,0c-3.63,7.96-7.27,15.79-10.88,23.65
	c-0.35,0.02-0.67,0.05-0.98,0.06c-2.6,0-5.2-0.01-7.79,0.01c-0.64,0.01-1.14-0.18-1.64-0.57c-4.92-3.87-9.87-7.72-14.79-11.6
	c-2-1.58-3.97-3.21-5.93-4.84c-0.46-0.38-0.93-0.53-1.53-0.53c-2.4,0.02-4.8,0.01-7.2,0.01c-0.39,0-0.79,0-1.34,0
	c0.18-0.49,0.29-0.86,0.45-1.21c0.63-1.38,1.32-2.73,1.9-4.13c0.29-0.72,0.71-0.91,1.45-0.91c3.88,0.03,7.75,0.02,11.63,0.01
	c0.62,0,1.13,0.14,1.64,0.54c5.56,4.36,11.13,8.69,16.71,13.03C1228.62,539.77,1229.12,540.15,1229.74,540.62z" fill="black"/>
  <path d="M1280.7,588.4c-3.26,0-6.41,0-9.67,0c0.09-0.4,0.17-0.74,0.29-1.29c-0.74,0.37-1.32,0.71-1.93,0.94
	c-0.51,0.19-1.06,0.37-1.6,0.37c-11.35,0.02-22.71,0.02-34.06,0.02c-0.2,0-0.4,0.02-0.6-0.01c-0.92-0.11-1.38-0.84-1.03-1.71
	c0.33-0.81,0.73-1.6,1.1-2.39c1.69-3.57,3.39-7.14,5.11-10.77c3.17,0,6.35,0,9.68,0c-0.6,1.36-1.15,2.62-1.72,3.89
	c-0.52,1.17-1.07,2.32-1.57,3.49c-0.35,0.81-0.05,1.28,0.83,1.4c0.2,0.03,0.4,0.01,0.6,0.01c8.95,0,17.91,0,26.86,0
	c0.2,0,0.4-0.02,0.71-0.03c0.37-0.78,0.75-1.6,1.2-2.56c-3.41,0-6.67,0-10.14,0c0.9-2.21,1.78-4.24,2.72-6.21
	c6.67,0,13.25,0,20.01,0C1285.19,578.58,1282.95,583.49,1280.7,588.4z" fill="black"/>
  <path d="M696.12,498.63c0.49,0,0.96,0,1.44,0c11.71,0,23.41,0,35.12,0c2,0,3.42-0.82,4.22-2.69c0.6-1.39,1.24-2.77,1.93-4.11
	c0.64-1.24,1.65-2.01,3.12-2c1.68,0.01,3.36,0.01,5.03,0c0.5,0,0.96,0.06,1.31,0.45c0.41,0.45,0.55,0.91,0.26,1.52
	c-1.65,3.58-3.23,7.21-4.93,10.77c-0.7,1.46-2.05,2.26-3.66,2.28c-4.67,0.06-9.35,0.03-14.02,0.01c-0.94,0-1.81,0.16-2.63,0.65
	c-0.74,0.45-1.32,0.99-1.67,1.8c-0.54,1.24-1.16,2.45-1.71,3.69c-0.75,1.7-2.17,2.42-3.88,2.55c-1.55,0.11-3.12,0.05-4.67,0.02
	c-1.15-0.02-1.8-0.99-1.35-2.05c0.66-1.54,1.38-3.05,2.09-4.57c0.58-1.24,0.07-2.08-1.34-2.08c-4.91-0.01-9.83,0-14.74-0.01
	c-1.13,0-1.44-0.22-1.85-1.15c-0.17-0.4-0.18-0.74,0.02-1.14C694.87,501.29,695.47,499.99,696.12,498.63z" fill="black"/>
  <path d="M1086.92,549.72c-2.2-4.95-4.35-9.79-6.51-14.65c0.91-0.27,7.5-0.34,9.14-0.11c1.35,2.88,2.72,5.8,4.14,8.83
	c0.95-0.78,1.8-1.48,2.64-2.19c5.94-5.01,11.89-10.03,17.82-15.06c0.61-0.52,1.22-0.77,2.04-0.75c2.8,0.05,5.6,0.01,8.39,0.02
	c0.46,0,0.93,0.09,1.66,0.17c-1.19,1.03-2.17,1.88-3.16,2.73c-6.76,5.78-13.51,11.56-20.27,17.34c-1.27,1.09-2.55,2.17-3.85,3.23
	c-0.26,0.21-0.62,0.42-0.93,0.42C1094.36,549.74,1090.69,549.72,1086.92,549.72z" fill="black"/>
  <path d="M874.91,489.89c16.42,0,32.71,0,49.22,0c-1,2.13-1.95,4.13-2.87,6.08c-16.42,0-32.74,0-49.26,0
	C873.01,493.86,873.94,491.9,874.91,489.89z" fill="black"/>
  <path d="M1239.42,570.84c0.95-1.91,1.74-3.56,2.6-5.17c0.34-0.64,1.03-0.85,1.71-0.97c0.31-0.05,0.64-0.01,0.96-0.01
	c14.91,0,29.82,0.01,44.73-0.02c1.84,0,2.04,0.43,1.31,2.03c-0.48,1.05-0.95,2.11-1.43,3.16c-0.27,0.6-0.75,0.92-1.4,0.98
	c-0.32,0.03-0.64,0.01-0.96,0.01c-15.31,0-30.62,0-45.93,0C1240.58,570.84,1240.15,570.84,1239.42,570.84z" fill="black"/>
  <path d="M1181.8,495.95c-16.42,0-32.73,0-49.14,0c0.06-0.29,0.08-0.55,0.18-0.79c0.32-0.78,0.66-1.54,0.99-2.31
	c0.65-1.52,1.83-2.39,3.4-2.76c0.73-0.17,1.5-0.26,2.25-0.26c14.19-0.01,28.38-0.01,42.57-0.01c0.12,0,0.24,0,0.36,0
	c1.48,0.04,1.77,0.47,1.2,1.85C1183.02,493.12,1182.4,494.54,1181.8,495.95z" fill="black"/>
  <path d="M1101.38,495.96c-16.48,0-32.78,0-49.29,0c0.69-1.53,1.06-3.08,2.12-4.32c1.26-1.47,2.99-1.76,4.78-1.79
	c3.64-0.05,7.28-0.01,10.92-0.01c10.52,0,21.03,0,31.55,0c0.43,0,0.88,0.01,1.3,0.12c0.76,0.2,0.93,0.5,0.64,1.22
	C1102.74,492.76,1102.06,494.33,1101.38,495.96z" fill="black"/>
  <path d="M1134.72,532.05c0.69-1.52,1.27-2.86,1.92-4.18c0.35-0.71,0.97-1.19,1.72-1.4c0.8-0.22,1.63-0.48,2.45-0.48
	c14.7-0.03,29.4-0.02,44.1-0.02c1.33,0,1.67,0.52,1.14,1.72c-0.49,1.09-1.04,2.16-1.5,3.26c-0.35,0.83-0.93,1.15-1.78,1.1
	c-0.2-0.01-0.4,0-0.6,0c-15.34,0-30.68,0-46.02,0C1135.75,532.05,1135.35,532.05,1134.72,532.05z" fill="black"/>
  <path d="M992.39,496.07c0.67-1.48,1.18-2.78,1.82-4.01c0.64-1.23,1.82-1.75,3.12-1.97c0.51-0.09,1.03-0.09,1.55-0.09
	c14.46,0,28.93,0,43.39,0c0.2,0,0.4-0.01,0.6,0c0.85,0.06,1.28,0.56,0.96,1.36c-0.55,1.37-1.21,2.69-1.86,4.01
	c-0.22,0.46-0.64,0.7-1.18,0.69c-0.28,0-0.56,0-0.84,0c-15.38,0-30.77,0-46.15,0C993.41,496.07,993.02,496.07,992.39,496.07z" fill="black"/>
  <path d="M1196.14,549.59c-3.4,0-6.66,0-10.15,0c2.37-5.01,4.64-9.83,6.93-14.68c3.24,0,6.45,0,9.83,0
	C1200.52,539.89,1198.32,544.75,1196.14,549.59z" fill="black"/>
  <path d="M1052.05,534.92c3.22,0,6.4,0,9.71,0c-0.42,0.97-0.79,1.84-1.18,2.7c-1.6,3.52-3.23,7.02-4.79,10.56
	c-0.49,1.1-1.23,1.57-2.41,1.56c-2.04-0.03-4.07-0.01-6.11-0.01c-0.24,0-0.48,0.01-0.71-0.05c-0.68-0.16-0.95-0.55-0.77-1.23
	c0.13-0.5,0.36-0.97,0.58-1.44c1.77-3.84,3.55-7.67,5.33-11.5C1051.79,535.29,1051.94,535.1,1052.05,534.92z" fill="black"/>
  <path d="M1120.13,498.87c-0.92,2.03-1.75,3.84-2.57,5.64c-1.17,2.58-2.37,5.14-3.5,7.73c-0.46,1.07-1.21,1.5-2.32,1.5
	c-2.08-0.02-4.15,0-6.23-0.01c-0.24,0-0.48-0.01-0.71-0.07c-0.64-0.17-0.88-0.51-0.72-1.15c0.12-0.5,0.34-0.98,0.55-1.45
	c1.75-3.8,3.51-7.6,5.28-11.39c0.18-0.39,0.31-0.82,0.9-0.81C1113.84,498.88,1116.87,498.87,1120.13,498.87z" fill="black"/>
  <path d="M890.61,498.68c3.17,0,6.31,0,9.61,0c-0.56,1.25-1.06,2.4-1.59,3.55c-1.28,2.79-2.61,5.56-3.85,8.36
	c-0.34,0.77-0.9,1.26-1.48,1.81c-1.03,0.99-2.16,1.33-3.56,1.21c-1.19-0.1-2.39-0.01-3.59-0.03c-1.19-0.02-1.92-1.1-1.49-2.23
	c0.25-0.67,0.57-1.31,0.88-1.96c1.55-3.32,3.1-6.64,4.66-9.96C890.33,499.17,890.47,498.93,890.61,498.68z" fill="black"/>
  <path d="M707.01,495.96c-3.22,0-6.34,0-9.55,0c0.09-0.3,0.13-0.56,0.24-0.79c0.41-0.86,0.93-1.69,1.26-2.58
	c0.51-1.38,1.69-1.96,2.81-2.63c0.22-0.13,0.54-0.13,0.81-0.13c1.72-0.01,3.44-0.01,5.15,0c0.27,0,0.56,0.03,0.82,0.12
	c0.69,0.25,0.99,0.87,0.68,1.53C708.51,493.01,707.74,494.49,707.01,495.96z" fill="black"/>
  <path d="M1123.82,490.24c-0.48,2.04-1.57,3.84-2.34,5.78c-3.26,0-6.43,0-9.77,0c0.31-0.7,0.59-1.3,0.86-1.91
	c0.47-1.05,0.94-2.11,1.4-3.17c0.24-0.55,0.59-0.94,1.24-0.94c2.71,0.01,5.42,0.01,8.13,0.03
	C1123.45,490.03,1123.56,490.12,1123.82,490.24z" fill="black"/>
  <path d="M1063.19,531.99c-3.28,0-6.46,0-9.77,0c0.64-1.43,1.34-2.73,1.8-4.11c0.51-1.55,1.44-2.05,3.03-1.94
	c1.94,0.14,3.9,0.03,5.86,0.04c0.39,0,0.78,0.03,1.35,0.06c-0.07,0.45-0.07,0.84-0.2,1.17
	C1064.6,528.79,1063.9,530.35,1063.19,531.99z" fill="black"/>
  <path d="M932.35,496.02c0.9-1.84,1.7-3.53,2.54-5.18c0.29-0.56,0.82-0.85,1.48-0.84c2.39,0,4.78-0.01,7.17,0.01
	c0.77,0.01,1.15,0.5,0.87,1.14c-0.71,1.64-1.48,3.25-2.23,4.88C938.92,496.02,935.74,496.02,932.35,496.02z" fill="black"/>
  <path d="M647.2,496.03c-3.29,0-6.48,0-9.81,0c0.63-1.34,1.21-2.59,1.8-3.83c0.17-0.36,0.37-0.71,0.54-1.07
	c0.38-0.81,1-1.16,1.91-1.15c2.23,0.03,4.47,0,6.7,0.01c1.13,0.01,1.39,0.43,0.92,1.49C648.6,492.98,647.91,494.46,647.2,496.03z" fill="black"/>
  <path d="M1079.27,532c-0.75-1.96-1.48-3.88-2.22-5.81c1.43-0.46,4.59-0.57,8.82-0.31c0.86,1.97,1.74,3.99,2.68,6.13
	C1085.37,532,1082.35,532,1079.27,532z" fill="black"/>
  <path d="M1111.79,586.15c0.01,1.79-1.45,3.24-3.28,3.23c-1.71-0.01-3.23-1.49-3.17-3.21c0.05-1.86,1.26-3.21,3.27-3.23
	C1110.42,582.93,1111.75,584.4,1111.79,586.15z" fill="black"/>

</svg>