<?xml version="1.0" encoding="utf-8"?>
<!-- Generator: Adobe Illustrator 25.2.0, SVG Export Plug-In . SVG Version: 6.00 Build 0)  -->
<svg version="1.1" id="Layer_1" xmlns="http://www.w3.org/2000/svg" xmlns:xlink="http://www.w3.org/1999/xlink" x="0px" y="0px"
	 viewBox="0 0 1920 1080" style="enable-background:new 0 0 1920 1080;" xml:space="preserve">
<path d="M1181.72,570.84c0.1-0.38,0.14-0.65,0.25-0.89c0.64-1.42,1.33-2.82,1.93-4.25c0.32-0.77,0.77-1.04,1.62-1.03
	c8.52,0.03,17.03,0.02,25.55,0.02c4.68,0,9.36-0.01,14.04,0.01c1.71,0.01,3.31,0.47,4.72,1.48c1.24,0.89,1.73,2.21,1.29,3.69
	c-0.71,2.38-1.68,4.66-3.03,6.75c-0.57,0.88-1.44,1.55-2.22,2.37c0.13,0.3,0.48,0.75,0.49,1.21c0.01,0.48-0.26,0.98-0.47,1.45
	c-0.84,1.85-1.72,3.69-2.55,5.55c-0.37,0.84-1,1.23-1.87,1.23c-2.04,0.02-4.08,0.03-6.12,0c-1.27-0.02-1.88-1.06-1.35-2.2
	c0.7-1.52,1.42-3.04,2.11-4.57c0.47-1.05,0.05-1.77-1.11-1.92c-0.2-0.03-0.4-0.02-0.6-0.02c-8.72,0-17.43,0-26.15,0
	c-0.28,0-0.55,0.03-0.9,0.05c-0.71,1.55-1.42,3.11-2.13,4.67c-0.41,0.91-0.83,1.81-1.23,2.73c-0.37,0.87-1,1.28-1.96,1.27
	c-2.12-0.03-4.24-0.01-6.36-0.01c-0.2,0-0.4,0-0.6-0.04c-0.86-0.18-1.27-0.88-0.91-1.7c0.59-1.35,1.24-2.68,1.87-4.02
	c1.3-2.78,2.6-5.57,3.91-8.35c0.12-0.25,0.27-0.49,0.43-0.79c0.39-0.02,0.78-0.05,1.17-0.05c7.36,0,14.71-0.01,22.07,0
	c5.28,0.01,10.55,0.04,15.83,0.09c1,0.01,1.8-0.26,2.34-1.14c0.52-0.84,0.2-1.51-0.77-1.58c-0.32-0.03-0.64-0.01-0.96-0.01
	c-12.32,0-24.63,0-36.95,0C1182.68,570.84,1182.25,570.84,1181.72,570.84z"/>
<path d="M941.9,543.49c0.61,0,1,0,1.38,0c8.71,0,17.43-0.02,26.14,0.02c1.53,0.01,2.41-0.56,3.01-1.98c1.07-2.54,2.29-5.01,3.47-7.5
	c0.79-1.67,0.57-2.06-1.24-2.06c-8.95,0-17.91,0-26.86,0c-3.44,0-6.87,0-10.48,0c0.89-2.15,1.9-4.1,2.92-6.16c0.36,0,0.72,0,1.07,0
	c1.32,0,2.64,0,3.96,0c12.23-0.03,24.46-0.05,36.69-0.09c0.91,0,1.73,0.21,2.52,0.61c2.27,1.14,3.14,3.67,2.05,5.98
	c-2.15,4.55-4.26,9.11-6.47,13.62c-1.13,2.32-2.95,3.64-5.69,3.64c-14.59-0.03-29.18-0.02-43.77-0.02c-0.43,0-0.86,0-1.44,0
	c2.33-5.01,4.6-9.88,6.89-14.8c3.22,0,6.43,0,9.83,0C944.53,537.69,943.26,540.5,941.9,543.49z"/>
<path d="M1039.36,540.05c1.09,0.94,0.89,1.82,0.4,2.81c-0.88,1.75-1.72,3.51-2.48,5.31c-0.46,1.08-1.24,1.53-2.32,1.55
	c-1.96,0.03-3.92,0.05-5.87,0c-1.15-0.03-1.76-1.14-1.27-2.2c0.71-1.56,1.44-3.11,2.15-4.67c0.41-0.89,0.19-1.42-0.74-1.75
	c-0.29-0.1-0.62-0.15-0.93-0.15c-8.91-0.01-17.83,0-26.74,0c-0.08,0-0.16,0.02-0.36,0.05c-0.78,1.71-1.59,3.48-2.4,5.25
	c-0.33,0.73-0.69,1.44-0.99,2.18c-0.37,0.89-1.06,1.29-1.96,1.3c-2.12,0.03-4.24,0.01-6.35,0c-0.23,0-0.47-0.07-0.7-0.14
	c-0.84-0.26-1.15-0.95-0.77-1.76c1.25-2.67,2.51-5.34,3.77-8.01c0.63-1.34,1.25-2.67,1.89-4.01c0.17-0.36,0.37-0.7,0.58-1.1
	c0.38,0,0.74,0,1.09,0c10.91,0,21.82-0.01,32.73,0.01c1.71,0,3.43,0.1,5.14,0.15c0.98,0.03,1.8-0.33,2.38-1.14
	c0.23-0.33,0.39-0.67,0.17-1.11c-0.21-0.42-0.52-0.57-0.96-0.55c-0.32,0.01-0.64,0-0.96,0c-12.27,0-24.54,0-36.81,0
	c-0.48,0-0.95,0-1.62,0c0.95-2.09,1.84-4.03,2.77-6.07c0.42,0,0.85,0,1.29,0c13.15,0,26.3,0.01,39.45-0.01
	c1.74,0,3.31,0.44,4.72,1.45c1.3,0.94,1.82,2.3,1.25,3.78c-0.8,2.08-1.69,4.13-2.66,6.14
	C1041.66,538.49,1040.83,539.49,1039.36,540.05z"/>
<path d="M1124.1,570.68c0.59-1.28,0.94-2.42,1.59-3.34c0.78-1.12,2-1.85,3.31-2.25c1.33-0.41,2.7-0.66,4.12-0.66
	c11.76,0.02,23.51,0.02,35.27,0c0.86,0,1.65,0.15,2.41,0.56c1.82,0.97,2.33,2.65,2.38,4.51c0.03,1.03-0.23,2.03-0.68,3
	c-1.93,4.16-3.76,8.37-5.73,12.52c-1.01,2.13-2.9,3.17-5.19,3.3c-2.11,0.12-4.24,0.03-6.36,0.03c-10.12,0-20.23-0.01-30.35,0.02
	c-0.98,0-1.83-0.21-2.56-0.81c-0.86-0.7-1.7-1.45-2.48-2.24c-0.71-0.72-0.98-1.64-0.83-2.65c0.11-0.7,0.18-1.44,0.46-2.08
	c1.07-2.36,2.22-4.68,3.36-7.06c3.21,0,6.39,0,9.73,0c-0.41,0.92-0.77,1.75-1.15,2.58c-0.46,1.02-0.95,2.02-1.39,3.05
	c-0.16,0.36-0.27,0.76-0.3,1.15c-0.08,1.05,0.54,1.76,1.58,1.87c0.28,0.03,0.56,0.01,0.84,0.01c7.72,0,15.43-0.03,23.15,0.02
	c2.15,0.01,3.54-0.91,4.37-2.86c0.94-2.2,1.95-4.37,2.92-6.56c0.44-0.98-0.04-1.9-1.11-2.14c-0.27-0.06-0.56-0.05-0.83-0.05
	c-7.12,0-14.23-0.01-21.35,0c-4.64,0.01-9.27,0.05-13.91,0.08C1125.04,570.68,1124.68,570.68,1124.1,570.68z"/>
<path d="M823.2,498.77c-0.5,1.11-0.95,2.11-1.4,3.11c-0.41,0.91-0.87,1.8-1.23,2.73c-0.69,1.76,0.11,2.9,2.02,2.9
	c7.8,0.01,15.59,0.01,23.39,0c2.03,0,3.46-0.88,4.28-2.83c1.03-2.46,2.18-4.88,3.28-7.3c-0.34-1.14-1.11-1.56-2.26-1.55
	c-10.39,0.02-20.79,0.01-31.18,0.02c-1.35,0-2.71,0.1-4.06,0.15c-0.36,0.01-0.71,0-1.08,0c0.31-2.65,2.38-5.07,4.81-5.7
	c1.4-0.37,2.8-0.55,4.26-0.54c11.71,0.02,23.43,0.01,35.14,0.01c2.32,0,3.66,1.06,4.35,3.28c0.5,1.61,0.31,3.13-0.37,4.62
	c-1.9,4.18-3.79,8.36-5.71,12.52c-0.98,2.11-2.78,3.08-5,3.39c-0.2,0.03-0.4,0-0.6,0c-12.15,0-24.31-0.01-36.46,0.02
	c-0.89,0-1.68-0.17-2.34-0.71c-0.87-0.7-1.75-1.41-2.5-2.22c-1.31-1.42-1.11-3.15-0.49-4.72c0.87-2.18,2.03-4.25,3.01-6.39
	c0.29-0.63,0.66-0.87,1.37-0.86c2.64,0.04,5.28,0.02,7.92,0.02C822.56,498.71,822.79,498.74,823.2,498.77z"/>
<path d="M757.14,495.99c0.63-1.43,1.16-2.66,1.72-3.88c0.09-0.2,0.3-0.38,0.49-0.5c0.85-0.53,1.68-1.08,2.57-1.53
	c0.4-0.2,0.91-0.24,1.38-0.24c6.32-0.01,12.63,0,18.95-0.01c5.91-0.01,11.83-0.05,17.74-0.08c1.72-0.01,3.14,0.85,4.58,1.58
	c0.37,0.19,0.57,0.75,0.79,1.16c1.43,2.6,1.42,2.61,0.14,5.26c-0.35,0.72-0.76,1.42-1.01,2.17c-0.34,1.01-1.01,1.7-1.87,2.24
	c-1.01,0.64-2.02,1.28-3.05,1.89c-1.06,0.62-2.22,0.82-3.45,0.82c-9.99-0.01-19.99,0.02-29.98-0.03c-1.24-0.01-2.28,0.33-3.23,1.03
	c-0.43,0.32-0.83,0.76-1.07,1.23c-0.67,1.31-1.18,2.71-1.88,4c-0.79,1.47-2,2.45-3.77,2.47c-1.52,0.02-3.04-0.02-4.56,0.02
	c-0.66,0.02-1.01-0.23-1.25-0.84c-0.36-0.93-0.42-1.75,0.06-2.73c1.6-3.26,3.08-6.57,4.62-9.86c0.23-0.5,0.5-0.99,0.79-1.53
	c0.5,0,0.98,0,1.45,0c11.71,0,23.42-0.02,35.14,0.02c1.29,0,2.31-0.43,3.37-1.15c-0.36-0.93-1.04-1.38-1.96-1.51
	c-0.31-0.04-0.64-0.01-0.96-0.01c-11.39,0-22.78,0-34.18,0C758.25,495.99,757.79,495.99,757.14,495.99z"/>
<path d="M1127.26,507.35c0.51,0,0.91,0,1.31,0c11.55,0,23.11,0,34.66,0.01c0.91,0,1.83,0.12,2.74,0.15
	c1.23,0.04,1.94-0.82,2.64-1.63c0.3-0.35,0.02-0.88-0.49-0.97c-0.35-0.06-0.72-0.03-1.08-0.03c-11.07,0-22.15,0-33.22,0
	c-1.86,0-3.29-1.06-3.74-2.87c-0.11-0.43-0.06-0.96,0.09-1.39c0.24-0.67,0.62-1.28,0.97-1.98c0.43,0,0.83,0,1.22,0
	c13.31,0,26.62,0.01,39.94-0.01c2.18,0,3.69,1.11,4.9,2.74c0.24,0.32,0.28,0.81,0.33,1.24c0.08,0.63,0.13,1.27,0.12,1.9
	c-0.01,0.34-0.11,0.71-0.25,1.02c-0.65,1.46-1.34,2.9-1.99,4.35c-0.62,1.39-1.64,2.38-3.06,2.87c-1.05,0.36-2.15,0.68-3.24,0.77
	c-1.74,0.13-3.49,0.06-5.24,0.07c-0.36,0-0.72,0-1.08,0c-11.71,0-23.43,0-35.14,0.01c-0.7,0-1.35-0.07-1.9-0.55
	c-0.66-0.58-0.8-1.21-0.4-2C1125.96,509.83,1126.59,508.63,1127.26,507.35z"/>
<path d="M1050.7,498.63c0.45,0,0.85,0,1.25,0c13.28,0,26.55,0.02,39.83-0.02c2.27-0.01,3.76,1.15,5,2.79
	c0.28,0.37,0.26,0.97,0.33,1.47c0.18,1.25,0.09,2.43-0.57,3.58c-0.55,0.96-0.96,2.02-1.38,3.05c-0.68,1.65-1.84,2.82-3.54,3.34
	c-1.17,0.36-2.4,0.7-3.61,0.71c-8.11,0.06-16.21,0.03-24.32,0.03c-5.44,0-10.88,0-16.31,0c-0.36,0-0.73,0.02-1.08-0.04
	c-1.27-0.22-1.89-1.45-1.34-2.6c0.28-0.58,0.56-1.15,0.86-1.71c0.32-0.6,0.66-1.18,1.05-1.88c0.39,0,0.82,0,1.25,0
	c11.56,0,23.11,0,34.67,0.01c0.91,0,1.83,0.13,2.74,0.15c1.22,0.02,1.97-0.77,2.62-1.64c0.32-0.43,0.08-0.86-0.47-0.95
	c-0.39-0.06-0.8-0.04-1.2-0.04c-11.04,0-22.07-0.04-33.11,0.03c-1.99,0.01-3.01-1.07-3.68-2.8c-0.18-0.46-0.05-1.1,0.11-1.61
	C1049.99,499.88,1050.35,499.33,1050.7,498.63z"/>
<path d="M991.06,498.87c0.42,0,0.85,0,1.29,0c15.27,0,30.55,0,45.82,0c0.16,0,0.32,0,0.48,0c1.12,0.03,1.43,0.39,1.02,1.39
	c-0.54,1.33-1.18,2.62-1.77,3.93c-0.24,0.54-0.67,0.77-1.24,0.76c-0.36-0.01-0.72,0-1.08,0c-12.27,0-24.55,0-36.82,0.01
	c-0.51,0-1.03,0.06-1.53,0.17c-0.61,0.13-0.94,0.57-1.06,1.17c-0.17,0.81,0.11,1.21,0.95,1.29c0.36,0.03,0.72,0.01,1.08,0.01
	c11.71,0,23.43,0,35.14,0c0.28,0,0.56,0,0.84,0c1.3,0.02,1.77,0.76,1.24,1.96c-0.43,0.99-0.91,1.96-1.3,2.96
	c-0.32,0.82-0.92,1.21-1.74,1.21c-1.71,0-3.43-0.06-5.14-0.1c-0.44-0.01-0.88-0.04-1.32-0.04c-12.07,0-24.15-0.01-36.22,0.01
	c-0.95,0-1.83-0.01-2.47-0.87c-0.71-0.95-1.06-2-0.79-3.14c0.21-0.92,0.58-1.82,0.97-2.69c1.11-2.52,2.26-5.02,3.4-7.53
	C990.84,499.22,990.93,499.09,991.06,498.87z"/>
<path d="M1133.3,534.94c16.3,0,32.48,0,48.82,0c-0.07,0.6-0.04,1.13-0.22,1.58c-0.46,1.15-1.06,2.24-1.53,3.38
	c-0.33,0.8-0.89,1.07-1.69,1.03c-0.32-0.02-0.64,0-0.96,0c-12.23,0-24.47,0-36.7,0.01c-0.55,0-1.11,0.08-1.64,0.23
	c-0.65,0.18-0.93,0.71-0.96,1.37c-0.03,0.7,0.15,0.94,0.87,1.02c0.36,0.04,0.72,0.02,1.08,0.02c11.83,0,23.67,0,35.5,0
	c0.32,0,0.64-0.02,0.96,0.01c0.83,0.09,1.34,0.86,1.02,1.64c-0.45,1.11-0.97,2.19-1.44,3.29c-0.34,0.8-0.96,1.19-1.77,1.19
	c-1.67,0.01-3.35-0.06-5.02-0.1c-0.44-0.01-0.88-0.04-1.32-0.04c-11.95,0-23.91,0-35.86,0c-1.16,0-2.33,0.13-3.09-1.08
	c-0.83-1.34-0.8-2.74-0.31-4.14c0.3-0.86,0.76-1.67,1.14-2.51C1131.23,539.55,1132.26,537.26,1133.3,534.94z"/>
<path d="M672.73,504.98c-9.91,0-19.67,0-29.55,0c-0.61,1.32-1.24,2.69-1.87,4.06c-0.52,1.12-1.02,2.25-1.53,3.38
	c-0.42,0.94-1.12,1.36-2.18,1.34c-2.04-0.05-4.08-0.01-6.12-0.01c-0.12,0-0.24,0.01-0.36,0c-1.17-0.08-1.59-0.69-1.14-1.75
	c0.56-1.32,1.19-2.62,1.79-3.92c1.25-2.68,2.49-5.35,3.75-8.03c0.2-0.43,0.43-0.85,0.67-1.33c0.49,0,0.96,0,1.44,0
	c9.88,0,19.75-0.01,29.63,0.01c2.43,0,4.87,0.06,7.3,0.18c0.89,0.04,1.25-0.33,1.58-1.07c1.03-2.29,2.16-4.54,3.23-6.82
	c0.32-0.69,0.77-1.03,1.57-1.02c2.4,0.04,4.8,0.01,7.2,0.02c1.1,0.01,1.27,0.26,0.8,1.31c-0.78,1.75-1.6,3.48-2.41,5.22
	c-2.4,5.18-4.81,10.35-7.17,15.54c-0.53,1.17-1.26,1.73-2.57,1.69c-1.92-0.06-3.84-0.02-5.76-0.02c-0.2,0-0.4,0.02-0.6-0.01
	c-1.1-0.13-1.33-0.58-0.9-1.5c1.02-2.17,1.96-4.37,2.93-6.55C672.54,505.5,672.6,505.32,672.73,504.98z"/>
<path d="M931.16,498.79c13.15,0,26.25,0,39.46,0c0.19-0.4,0.41-0.86,0.63-1.32c1.01-2.13,2.01-4.26,3.03-6.38
	c0.3-0.64,0.69-1.12,1.53-1.11c2.56,0.03,5.12,0.01,7.67,0.02c0.15,0,0.31,0.05,0.44,0.07c0.46,0.56,0.07,1.03-0.12,1.47
	c-0.76,1.71-1.57,3.41-2.36,5.11c-2.38,5.14-4.79,10.27-7.12,15.43c-0.54,1.19-1.28,1.71-2.57,1.67c-1.92-0.06-3.84-0.01-5.76-0.01
	c-0.2,0-0.4,0.01-0.6-0.01c-1.08-0.11-1.31-0.5-0.87-1.5c0.95-2.15,1.91-4.3,2.87-6.45c0.09-0.21,0.17-0.43,0.3-0.75
	c-9.86,0-19.62,0-29.55,0c-0.57,1.24-1.19,2.57-1.8,3.9c-0.53,1.16-1.07,2.32-1.59,3.48c-0.42,0.96-1.13,1.35-2.18,1.34
	c-2.04-0.04-4.08-0.01-6.12-0.01c-0.12,0-0.24,0.01-0.36,0c-1.15-0.08-1.56-0.68-1.13-1.78c0.32-0.82,0.71-1.6,1.08-2.4
	c1.54-3.29,3.08-6.58,4.62-9.86C930.83,499.38,931.01,499.07,931.16,498.79z"/>
<path d="M1229.74,540.62c2.39-5,4.73-9.89,7.06-14.77c3.18,0,6.3,0,9.62,0c-3.63,7.96-7.27,15.79-10.88,23.65
	c-0.35,0.02-0.67,0.05-0.98,0.06c-2.6,0-5.2-0.01-7.79,0.01c-0.64,0.01-1.14-0.18-1.64-0.57c-4.92-3.87-9.87-7.72-14.79-11.6
	c-2-1.58-3.97-3.21-5.93-4.84c-0.46-0.38-0.93-0.53-1.53-0.53c-2.4,0.02-4.8,0.01-7.2,0.01c-0.39,0-0.79,0-1.34,0
	c0.18-0.49,0.29-0.86,0.45-1.21c0.63-1.38,1.32-2.73,1.9-4.13c0.29-0.72,0.71-0.91,1.45-0.91c3.88,0.03,7.75,0.02,11.63,0.01
	c0.62,0,1.13,0.14,1.64,0.54c5.56,4.36,11.13,8.69,16.71,13.03C1228.62,539.77,1229.12,540.15,1229.74,540.62z"/>
<path d="M1280.7,588.4c-3.26,0-6.41,0-9.67,0c0.09-0.4,0.17-0.74,0.29-1.29c-0.74,0.37-1.32,0.71-1.93,0.94
	c-0.51,0.19-1.06,0.37-1.6,0.37c-11.35,0.02-22.71,0.02-34.06,0.02c-0.2,0-0.4,0.02-0.6-0.01c-0.92-0.11-1.38-0.84-1.03-1.71
	c0.33-0.81,0.73-1.6,1.1-2.39c1.69-3.57,3.39-7.14,5.11-10.77c3.17,0,6.35,0,9.68,0c-0.6,1.36-1.15,2.62-1.72,3.89
	c-0.52,1.17-1.07,2.32-1.57,3.49c-0.35,0.81-0.05,1.28,0.83,1.4c0.2,0.03,0.4,0.01,0.6,0.01c8.95,0,17.91,0,26.86,0
	c0.2,0,0.4-0.02,0.71-0.03c0.37-0.78,0.75-1.6,1.2-2.56c-3.41,0-6.67,0-10.14,0c0.9-2.21,1.78-4.24,2.72-6.21
	c6.67,0,13.25,0,20.01,0C1285.19,578.58,1282.95,583.49,1280.7,588.4z"/>
<path d="M696.12,498.63c0.49,0,0.96,0,1.44,0c11.71,0,23.41,0,35.12,0c2,0,3.42-0.82,4.22-2.69c0.6-1.39,1.24-2.77,1.93-4.11
	c0.64-1.24,1.65-2.01,3.12-2c1.68,0.01,3.36,0.01,5.03,0c0.5,0,0.96,0.06,1.31,0.45c0.41,0.45,0.55,0.91,0.26,1.52
	c-1.65,3.58-3.23,7.21-4.93,10.77c-0.7,1.46-2.05,2.26-3.66,2.28c-4.67,0.06-9.35,0.03-14.02,0.01c-0.94,0-1.81,0.16-2.63,0.65
	c-0.74,0.45-1.32,0.99-1.67,1.8c-0.54,1.24-1.16,2.45-1.71,3.69c-0.75,1.7-2.17,2.42-3.88,2.55c-1.55,0.11-3.12,0.05-4.67,0.02
	c-1.15-0.02-1.8-0.99-1.35-2.05c0.66-1.54,1.38-3.05,2.09-4.57c0.58-1.24,0.07-2.08-1.34-2.08c-4.91-0.01-9.83,0-14.74-0.01
	c-1.13,0-1.44-0.22-1.85-1.15c-0.17-0.4-0.18-0.74,0.02-1.14C694.87,501.29,695.47,499.99,696.12,498.63z"/>
<path d="M1086.92,549.72c-2.2-4.95-4.35-9.79-6.51-14.65c0.91-0.27,7.5-0.34,9.14-0.11c1.35,2.88,2.72,5.8,4.14,8.83
	c0.95-0.78,1.8-1.48,2.64-2.19c5.94-5.01,11.89-10.03,17.82-15.06c0.61-0.52,1.22-0.77,2.04-0.75c2.8,0.05,5.6,0.01,8.39,0.02
	c0.46,0,0.93,0.09,1.66,0.17c-1.19,1.03-2.17,1.88-3.16,2.73c-6.76,5.78-13.51,11.56-20.27,17.34c-1.27,1.09-2.55,2.17-3.85,3.23
	c-0.26,0.21-0.62,0.42-0.93,0.42C1094.36,549.74,1090.69,549.72,1086.92,549.72z"/>
<path d="M874.91,489.89c16.42,0,32.71,0,49.22,0c-1,2.13-1.95,4.13-2.87,6.08c-16.42,0-32.74,0-49.26,0
	C873.01,493.86,873.94,491.9,874.91,489.89z"/>
<path d="M1239.42,570.84c0.95-1.91,1.74-3.56,2.6-5.17c0.34-0.64,1.03-0.85,1.71-0.97c0.31-0.05,0.64-0.01,0.96-0.01
	c14.91,0,29.82,0.01,44.73-0.02c1.84,0,2.04,0.43,1.31,2.03c-0.48,1.05-0.95,2.11-1.43,3.16c-0.27,0.6-0.75,0.92-1.4,0.98
	c-0.32,0.03-0.64,0.01-0.96,0.01c-15.31,0-30.62,0-45.93,0C1240.58,570.84,1240.15,570.84,1239.42,570.84z"/>
<path d="M1181.8,495.95c-16.42,0-32.73,0-49.14,0c0.06-0.29,0.08-0.55,0.18-0.79c0.32-0.78,0.66-1.54,0.99-2.31
	c0.65-1.52,1.83-2.39,3.4-2.76c0.73-0.17,1.5-0.26,2.25-0.26c14.19-0.01,28.38-0.01,42.57-0.01c0.12,0,0.24,0,0.36,0
	c1.48,0.04,1.77,0.47,1.2,1.85C1183.02,493.12,1182.4,494.54,1181.8,495.95z"/>
<path d="M1101.38,495.96c-16.48,0-32.78,0-49.29,0c0.69-1.53,1.06-3.08,2.12-4.32c1.26-1.47,2.99-1.76,4.78-1.79
	c3.64-0.05,7.28-0.01,10.92-0.01c10.52,0,21.03,0,31.55,0c0.43,0,0.88,0.01,1.3,0.12c0.76,0.2,0.93,0.5,0.64,1.22
	C1102.74,492.76,1102.06,494.33,1101.38,495.96z"/>
<path d="M1134.72,532.05c0.69-1.52,1.27-2.86,1.92-4.18c0.35-0.71,0.97-1.19,1.72-1.4c0.8-0.22,1.63-0.48,2.45-0.48
	c14.7-0.03,29.4-0.02,44.1-0.02c1.33,0,1.67,0.52,1.14,1.72c-0.49,1.09-1.04,2.16-1.5,3.26c-0.35,0.83-0.93,1.15-1.78,1.1
	c-0.2-0.01-0.4,0-0.6,0c-15.34,0-30.68,0-46.02,0C1135.75,532.05,1135.35,532.05,1134.72,532.05z"/>
<path d="M992.39,496.07c0.67-1.48,1.18-2.78,1.82-4.01c0.64-1.23,1.82-1.75,3.12-1.97c0.51-0.09,1.03-0.09,1.55-0.09
	c14.46,0,28.93,0,43.39,0c0.2,0,0.4-0.01,0.6,0c0.85,0.06,1.28,0.56,0.96,1.36c-0.55,1.37-1.21,2.69-1.86,4.01
	c-0.22,0.46-0.64,0.7-1.18,0.69c-0.28,0-0.56,0-0.84,0c-15.38,0-30.77,0-46.15,0C993.41,496.07,993.02,496.07,992.39,496.07z"/>
<path d="M1196.14,549.59c-3.4,0-6.66,0-10.15,0c2.37-5.01,4.64-9.83,6.93-14.68c3.24,0,6.45,0,9.83,0
	C1200.52,539.89,1198.32,544.75,1196.14,549.59z"/>
<path d="M1052.05,534.92c3.22,0,6.4,0,9.71,0c-0.42,0.97-0.79,1.84-1.18,2.7c-1.6,3.52-3.23,7.02-4.79,10.56
	c-0.49,1.1-1.23,1.57-2.41,1.56c-2.04-0.03-4.07-0.01-6.11-0.01c-0.24,0-0.48,0.01-0.71-0.05c-0.68-0.16-0.95-0.55-0.77-1.23
	c0.13-0.5,0.36-0.97,0.58-1.44c1.77-3.84,3.55-7.67,5.33-11.5C1051.79,535.29,1051.94,535.1,1052.05,534.92z"/>
<path d="M1120.13,498.87c-0.92,2.03-1.75,3.84-2.57,5.64c-1.17,2.58-2.37,5.14-3.5,7.73c-0.46,1.07-1.21,1.5-2.32,1.5
	c-2.08-0.02-4.15,0-6.23-0.01c-0.24,0-0.48-0.01-0.71-0.07c-0.64-0.17-0.88-0.51-0.72-1.15c0.12-0.5,0.34-0.98,0.55-1.45
	c1.75-3.8,3.51-7.6,5.28-11.39c0.18-0.39,0.31-0.82,0.9-0.81C1113.84,498.88,1116.87,498.87,1120.13,498.87z"/>
<path d="M890.61,498.68c3.17,0,6.31,0,9.61,0c-0.56,1.25-1.06,2.4-1.59,3.55c-1.28,2.79-2.61,5.56-3.85,8.36
	c-0.34,0.77-0.9,1.26-1.48,1.81c-1.03,0.99-2.16,1.33-3.56,1.21c-1.19-0.1-2.39-0.01-3.59-0.03c-1.19-0.02-1.92-1.1-1.49-2.23
	c0.25-0.67,0.57-1.31,0.88-1.96c1.55-3.32,3.1-6.64,4.66-9.96C890.33,499.17,890.47,498.93,890.61,498.68z"/>
<path d="M707.01,495.96c-3.22,0-6.34,0-9.55,0c0.09-0.3,0.13-0.56,0.24-0.79c0.41-0.86,0.93-1.69,1.26-2.58
	c0.51-1.38,1.69-1.96,2.81-2.63c0.22-0.13,0.54-0.13,0.81-0.13c1.72-0.01,3.44-0.01,5.15,0c0.27,0,0.56,0.03,0.82,0.12
	c0.69,0.25,0.99,0.87,0.68,1.53C708.51,493.01,707.74,494.49,707.01,495.96z"/>
<path d="M1123.82,490.24c-0.48,2.04-1.57,3.84-2.34,5.78c-3.26,0-6.43,0-9.77,0c0.31-0.7,0.59-1.3,0.86-1.91
	c0.47-1.05,0.94-2.11,1.4-3.17c0.24-0.55,0.59-0.94,1.24-0.94c2.71,0.01,5.42,0.01,8.13,0.03
	C1123.45,490.03,1123.56,490.12,1123.82,490.24z"/>
<path d="M1063.19,531.99c-3.28,0-6.46,0-9.77,0c0.64-1.43,1.34-2.73,1.8-4.11c0.51-1.55,1.44-2.05,3.03-1.94
	c1.94,0.14,3.9,0.03,5.86,0.04c0.39,0,0.78,0.03,1.35,0.06c-0.07,0.45-0.07,0.84-0.2,1.17
	C1064.6,528.79,1063.9,530.35,1063.19,531.99z"/>
<path d="M932.35,496.02c0.9-1.84,1.7-3.53,2.54-5.18c0.29-0.56,0.82-0.85,1.48-0.84c2.39,0,4.78-0.01,7.17,0.01
	c0.77,0.01,1.15,0.5,0.87,1.14c-0.71,1.64-1.48,3.25-2.23,4.88C938.92,496.02,935.74,496.02,932.35,496.02z"/>
<path d="M647.2,496.03c-3.29,0-6.48,0-9.81,0c0.63-1.34,1.21-2.59,1.8-3.83c0.17-0.36,0.37-0.71,0.54-1.07
	c0.38-0.81,1-1.16,1.91-1.15c2.23,0.03,4.47,0,6.7,0.01c1.13,0.01,1.39,0.43,0.92,1.49C648.6,492.98,647.91,494.46,647.2,496.03z"/>
<path d="M1079.27,532c-0.75-1.96-1.48-3.88-2.22-5.81c1.43-0.46,4.59-0.57,8.82-0.31c0.86,1.97,1.74,3.99,2.68,6.13
	C1085.37,532,1082.35,532,1079.27,532z"/>
<path d="M1111.79,586.15c0.01,1.79-1.45,3.24-3.28,3.23c-1.71-0.01-3.23-1.49-3.17-3.21c0.05-1.86,1.26-3.21,3.27-3.23
	C1110.42,582.93,1111.75,584.4,1111.79,586.15z"/>
</svg>
