<?xml version="1.0" encoding="utf-8"?>
<svg version="1.1" xmlns="http://www.w3.org/2000/svg" viewBox="0 0 657 242">
<rect width="657" height="242" fill="#eee"/>
<path d="M117.26,155.15 c0.18-0.05,0.42-0.07,0.61-0.18c0.62-0.35,1.22-0.72,1.82-1.1c0.47-0.29,0.95-0.58,1.39-0.91c0.88-0.67,1.71-1.39,2.59-2.05 c1.57-1.2,3.2-2.34,4.73-3.58c0.63-0.51,1.42-1.05,1.01-2.15c-0.1-0.26,0.02-0.63,0.1-0.93c0.69-2.47,0.79-5.01,0.96-7.55 c0.09-1.39,0.1-2.78,0.2-4.17c0.18-2.42,0.48-4.82,0.6-7.24c0.16-3.29,0.23-6.58,0.28-9.87c0.03-1.58-0.08-3.17-0.09-4.75 c0-0.29,0.06-0.67,0.24-0.86c0.47-0.47,0.34-0.86,0.08-1.38c-1.05-2.12-2.79-3.7-4.29-5.47c-1.19-1.41-2.77-2.44-3.86-3.95 c-0.38-0.53-0.94-0.94-1.53-1.52c-0.18,0.3-0.42,0.56-0.5,0.86c-0.49,2-0.41,4.07-0.63,6.1c-0.17,1.53-0.18,3.09-0.31,4.63 c-0.1,1.18-0.19,2.38-0.42,3.54c-0.23,1.18-0.01,2.33-0.04,3.49c-0.04,1.43-0.16,2.86-0.2,4.29c-0.05,1.72-0.06,3.45-0.07,5.18 c-0.01,1.14-0.01,2.29-0.02,3.43c-0.01,1.06,0.04,2.12-0.04,3.17c-0.16,2.06-0.39,4.11-0.61,6.16c-0.14,1.3-0.29,2.6-0.44,3.9 c-0.17,1.43-0.5,2.86-0.47,4.28c0.05,2.24-0.33,4.42-0.6,6.62C117.68,153.76,117.45,154.38,117.26,155.15z" fill="red"/>
</svg>